<?xml version="1.0" encoding="UTF-8" standalone="no"?>
<!DOCTYPE svg  PUBLIC '-//W3C//DTD SVG 1.1//EN'  'http://www.w3.org/Graphics/SVG/1.1/DTD/svg11.dtd'>
<svg xmlns="http://www.w3.org/2000/svg">
<defs>
<font id="FranklinGothicMediumC-Italic" horiz-adv-x="616">
<font-face slope="-9.3" underline-position="-50" font-weight="500" descent="-200" panose-1="0 0 6 0 0 0 0 0 0 0" units-per-em="1000" unicode-range="U+0020-2122" bbox="-129 -187 1088 889" x-height="510" underline-thickness="50" font-family="FranklinGothicMediumC" ascent="800" font-style="italic" cap-height="686"/>
<missing-glyph horiz-adv-x="1000"/>
<glyph glyph-name=".notdef" horiz-adv-x="1000"/>
<glyph glyph-name=".null" horiz-adv-x="0"/>
<glyph glyph-name="nonmarkingreturn" horiz-adv-x="333"/>
<glyph glyph-name="space" horiz-adv-x="233" unicode=" "/>
<glyph glyph-name="space" horiz-adv-x="233" unicode=" "/>
<glyph glyph-name="exclam" horiz-adv-x="284" unicode="!" d="M191 132l-21 -132h-134l21 132h134zM292 686l-124 -496h-71l37 496h158z"/>
<glyph glyph-name="quotedbl" horiz-adv-x="398" unicode='&quot;' d="M310 686h114l-72 -261h-56zM136 686h114l-72 -261h-56z"/>
<glyph glyph-name="numbersign" horiz-adv-x="660" unicode="#" d="M425 271l51 146h-126l-51 -146h126zM412 0h-84l69 193h-126l-69 -193h-84l69 193h-109l13 78h124l51 146h-108l13 78h123l70 194h85l-71 -194h126l70 194h85l-70 -194h108l-13 -78h-123l-52 -146h108l-12 -78h-124z"/>
<glyph glyph-name="dollar" horiz-adv-x="600" unicode="$" d="M304 420l29 177h-5q-61 -1 -87.5 -28t-26.5 -61q0 -39 28 -60.5t62 -27.5zM353 281l-31 -189q50 1 81.5 31t31.5 76q0 39 -25.5 58t-56.5 24zM588 535l-104 -35q-18 60 -81 85l-31 -181q68 -16 114 -45q83 -52 83 -144q0 -109 -89 -173q-72 -52 -175 -52l-13 -79h-71 l13 81q-71 6 -127 43q-75 49 -99 143l115 31q10 -34 35 -63q39 -46 93 -53l33 206q-72 16 -120 50q-78 55 -78 143q0 99 76 157q62 48 161 48q18 0 27 -1l13 81h71l-14 -88q54 -10 97 -46q52 -44 71 -108z"/>
<glyph glyph-name="percent" horiz-adv-x="856" unicode="%" d="M625 288q-49 0 -73 -61q-18 -46 -18 -99q0 -38 16.5 -54t37.5 -16q46 0 69 62q17 45 17 104q0 64 -49 64zM631 352q51 0 86 -32.5t35 -101.5q0 -47 -15.5 -93t-40.5 -76q-46 -55 -114 -55q-56 0 -91 35.5t-35 104.5q0 100 56 163q49 55 119 55zM313 629q-49 0 -73 -61 q-18 -46 -18 -99q0 -38 16.5 -54t37.5 -16q46 0 69 62q17 45 17 104q0 64 -49 64zM319 693q51 0 86 -32.5t35 -101.5q0 -47 -15.5 -93t-40.5 -76q-46 -55 -114 -55q-56 0 -91 35.5t-35 104.5q0 100 56 163q49 55 119 55zM658 686h80l-500 -686h-80z"/>
<glyph glyph-name="ampersand" horiz-adv-x="680" unicode="&amp;" d="M386 129l-110 207q-41 -17 -69 -39q-49 -37 -49 -92q0 -50 31.5 -83.5t81.5 -33.5q53 0 115 41zM333 439q49 19 75.5 42t26.5 58q0 30 -20 48.5t-50 18.5q-27 0 -48 -17t-21 -53t37 -97zM579 380l95 -26q-28 -73 -82 -149q-35 -48 -73 -82q19 -36 67 -36q25 0 49 6 l-15 -92q-37 -10 -65 -10q-82 0 -119 64q-75 -65 -186 -65q-99 0 -161 59q-27 27 -43 65t-16 75q0 101 94 167q44 30 109 49q-46 74 -46 139q0 77 63 121q46 31 114 31q76 0 123 -38q51 -42 51 -112t-61 -119q-34 -29 -103 -58l89 -170q40 42 69 89q31 52 47 92z"/>
<glyph glyph-name="quotesingle" horiz-adv-x="224" unicode="&apos;" d="M136 686h114l-72 -261h-56z"/>
<glyph glyph-name="parenleft" horiz-adv-x="322" unicode="(" d="M284 686h80q-102 -124 -155 -267q-51 -140 -51 -282q0 -76 19 -157q18 -74 52 -148h-80q-46 72 -68 152q-25 88 -25 175q0 128 56 261q60 145 172 266z"/>
<glyph glyph-name="parenright" horiz-adv-x="294" unicode=")" d="M18 -168h-80q102 124 155 267q51 140 51 282q0 76 -19 157q-18 74 -52 148h80q46 -72 68 -152q25 -87 25 -175q0 -128 -56 -261q-60 -145 -172 -266z"/>
<glyph glyph-name="asterisk" horiz-adv-x="563" unicode="*" d="M414 668l-53 -158l163 41l11 -76l-165 -23l131 -102l-47 -61l-121 117l-33 -163l-77 20l52 158l-161 -41l-14 77l163 24l-129 101l50 61l119 -117l34 162z"/>
<glyph glyph-name="plus" horiz-adv-x="645" unicode="+" d="M296 547h93v-212h212v-93h-212v-212h-93v212h-212v93h212v212z"/>
<glyph glyph-name="comma" horiz-adv-x="284" unicode="," d="M194 136l-20 -123l-112 -158h-54l88 145h-62l22 136h138z"/>
<glyph glyph-name="hyphen" horiz-adv-x="266" unicode="-" d="M255 310l-16 -94h-226l16 94h226z"/>
<glyph glyph-name="hyphen" horiz-adv-x="266" unicode="­" d="M255 310l-16 -94h-226l16 94h226z"/>
<glyph glyph-name="period" horiz-adv-x="284" unicode="." d="M56 136h138l-22 -136h-138z"/>
<glyph glyph-name="slash" horiz-adv-x="509" unicode="/" d="M521 686h89l-575 -857h-89z"/>
<glyph glyph-name="zero" d="M364 600q-75 0 -119 -75q-31 -53 -48 -139.5t-17 -153.5q0 -81 37 -118q28 -28 77 -28q68 0 110 69q32 52 49 141.5t17 156.5q0 75 -24 109q-26 38 -82 38zM378 696q100 0 155 -67q55 -68 55 -196q0 -89 -23.5 -181t-75.5 -161q-43 -57 -91.5 -79t-115.5 -22 q-88 0 -142 48q-78 71 -78 226q0 89 26.5 184t90.5 163q79 85 199 85z" unicode="0"/>
<glyph glyph-name="one" d="M372 686h93l-96 -584h183l-17 -102h-495l17 102h190l72 440q-84 -65 -193 -109l17 108q138 54 229 145z" unicode="1"/>
<glyph glyph-name="two" d="M196 457l-96 37q27 90 88 142q72 60 181 60q111 0 170 -59q55 -55 55 -140q0 -133 -150 -241q-39 -28 -122 -77t-139 -77h351l-17 -102h-497l17 106l80 49q123 76 229 156q40 30 62.5 51t42.5 56.5t20 73.5q0 47 -31 76q-30 28 -83 28q-72 0 -115 -48q-31 -34 -46 -91z " unicode="2"/>
<glyph glyph-name="three" d="M204 511l-89 38q18 48 64 87q71 60 183 60q103 0 159 -47q57 -49 57 -125q0 -73 -54 -124q-41 -38 -91 -45l1 -3q44 -12 73 -43q40 -43 40 -105q0 -45 -20.5 -88.5t-58.5 -73.5q-67 -52 -175 -52q-114 0 -181 53q-61 48 -82 128l98 30q16 -47 44 -74q43 -41 112 -41 q65 0 103 35t38 85t-34 76q-33 26 -106 26h-70l16 92h89q64 0 107 36q33 29 33 71q0 43 -28 68q-27 25 -81 25q-55 0 -99 -32q-31 -22 -48 -57z" unicode="3"/>
<glyph glyph-name="four" d="M356 253l54 332l-266 -332h212zM398 686h148l-71 -433h107l-16 -96h-106l-26 -157h-120l26 157h-320l14 87z" unicode="4"/>
<glyph glyph-name="five" d="M606 686l-31 -102h-318l-44 -186q59 65 160 65q86 0 138 -44q63 -55 63 -156q0 -110 -67 -187q-75 -86 -205 -86q-116 0 -188 66q-44 40 -64 100l100 35q17 -50 58 -78q39 -27 86 -27q80 0 122 51q36 43 36 109q0 58 -32 90t-87 32q-87 0 -139 -70l-98 25l85 363h425z " unicode="5"/>
<glyph glyph-name="six" d="M320 350q-58 0 -96 -35q-47 -43 -47 -112q0 -59 39 -91q31 -26 74 -26q63 0 102 36q46 43 46 109q0 51 -31.5 85t-86.5 34zM596 533l-107 -22q-5 29 -23 51q-31 38 -90 38q-72 0 -119 -55q-61 -70 -81 -199h1q58 100 177 100q102 0 158 -64q49 -56 49 -138 q0 -98 -66 -170q-76 -84 -203 -84q-97 0 -157 53q-85 74 -85 223q0 101 30.5 189t84.5 148q46 51 96.5 72t117.5 21q100 0 157 -53q49 -47 60 -110z" unicode="6"/>
<glyph glyph-name="seven" d="M606 686l-13 -77q-77 -79 -136 -163q-70 -99 -114 -203q-48 -113 -69 -243h-134q32 144 99 274q84 164 227 310h-354l28 102h466z" unicode="7"/>
<glyph glyph-name="eight" d="M301 307q-49 -11 -85 -35q-56 -37 -56 -88q0 -40 35.5 -71t109.5 -31q70 0 108 31.5t38 74.5t-46 76q-41 29 -104 43zM358 403q41 15 75 38q47 33 47 73q0 42 -34 69q-28 21 -77 21q-59 0 -92 -22q-41 -27 -41 -71q0 -39 31 -65t91 -43zM209 350v4q-43 17 -67 56.5 t-24 86.5q0 86 70 143q69 56 180 56q87 0 143 -31q41 -23 61 -59t20 -74q0 -73 -55 -120q-34 -29 -85 -45l1 -2q48 -21 76 -49q44 -44 44 -114q0 -100 -87 -159q-79 -53 -201 -53q-99 0 -161 40q-78 50 -78 140q0 81 59 130q43 36 104 50z" unicode="8"/>
<glyph glyph-name="nine" d="M321 336q56 0 95 35q47 42 47 107q0 61 -40 95q-32 27 -77 27q-55 0 -92 -32q-52 -45 -52 -113q0 -49 29 -83q31 -36 90 -36zM44 153l107 22q5 -29 24 -51q32 -38 90 -38q72 0 119 55q30 35 51 90t29 109h-2q-56 -100 -176 -100q-103 0 -158 64q-48 54 -48 137 q0 101 59 168q76 87 212 87q106 0 170 -66q69 -71 69 -210q0 -102 -30.5 -190t-84.5 -147q-46 -51 -96.5 -72t-117.5 -21q-110 0 -170 67q-37 44 -47 96z" unicode="9"/>
<glyph glyph-name="colon" horiz-adv-x="284" unicode=":" d="M194 136l-22 -136h-138l22 136h138zM256 510l-22 -136h-138l22 136h138z"/>
<glyph glyph-name="semicolon" horiz-adv-x="284" unicode=";" d="M194 136l-20 -123l-112 -158h-54l88 145h-62l22 136h138zM256 510l-22 -136h-138l22 136h138z"/>
<glyph glyph-name="less" horiz-adv-x="644" unicode="&lt;" d="M215 289l363 -145v-96l-496 203v76l496 203v-96z"/>
<glyph glyph-name="equal" horiz-adv-x="644" unicode="=" d="M84 137v93h516v-93h-516zM84 347v93h516v-93h-516z"/>
<glyph glyph-name="greater" horiz-adv-x="654" unicode="&gt;" d="M455 289l-363 145v96l496 -203v-76l-496 -203v96z"/>
<glyph glyph-name="question" horiz-adv-x="532" unicode="?" d="M296 132l-21 -132h-134l21 132h134zM162 472l-98 22q17 74 62 125q68 77 198 77q100 0 154 -46.5t54 -125.5q0 -42 -13.5 -77t-38.5 -59.5t-47 -39.5t-51 -30q-57 -28 -72 -46.5t-21 -55.5l-4 -26h-100l4 26q9 63 30 94q7 10 15.5 19t20.5 18t18 13t21.5 13.5t17.5 10.5 q45 27 71.5 57t26.5 74q0 40 -28.5 63.5t-73.5 23.5q-59 0 -95.5 -38t-50.5 -92z"/>
<glyph glyph-name="at" horiz-adv-x="871" unicode="@" d="M452 448q-47 0 -80 -37q-39 -43 -39 -111q0 -38 20 -59q18 -20 48 -20q56 0 90 63q25 47 25 92q0 33 -16 51q-18 21 -48 21zM605 98l45 -37q-89 -71 -214 -71q-65 0 -130 22t-107 56q-51 42 -84.5 112.5t-33.5 151.5q0 162 106 265q106 101 269 101q160 0 253 -95 q81 -83 81 -198q0 -107 -55 -173q-28 -34 -73 -58t-89 -24q-43 0 -66 21q-11 11 -17 31q-11 -13 -31 -28q-32 -24 -76 -24q-54 0 -93 36q-45 43 -45 118q0 41 19 91.5t64 85.5q51 40 117 40q46 0 71 -20q19 -14 31 -41l15 50h76l-68 -254q-4 -16 -4 -23q0 -27 31 -27 q51 0 87 51q35 50 35 128q0 79 -40 137q-33 48 -97 76t-141 28q-112 0 -187 -68q-43 -39 -67 -99.5t-24 -129.5q0 -137 95 -211q73 -57 182 -57q94 0 165 37z"/>
<glyph glyph-name="A" horiz-adv-x="586" unicode="A" d="M204 274h175l-43 284zM297 686h140l113 -686h-134l-28 178h-224l-84 -178h-110z"/>
<glyph glyph-name="B" horiz-adv-x="644" unicode="B" d="M216 306l-34 -206h149q82 0 117 37q29 32 29 75q0 48 -36 73q-30 21 -90 21h-135zM261 586l-29 -184h134q76 0 109 30q31 28 31 72q0 41 -30 62q-29 20 -93 20h-122zM152 686h255h8q94 0 144 -29q75 -44 75 -135q0 -66 -42 -111q-35 -38 -94 -55v-2q44 -12 69 -39 q40 -41 40 -110q0 -85 -58 -143q-62 -62 -187 -62h-322z"/>
<glyph glyph-name="C" horiz-adv-x="630" unicode="C" d="M632 457l-114 -18q-2 62 -30 104q-35 53 -102 53q-86 0 -138 -91q-27 -47 -43.5 -116.5t-16.5 -129.5q0 -76 32 -119q38 -50 102 -50t108 48q35 39 52 97l111 -26q-25 -78 -76 -132q-81 -87 -205 -87q-115 0 -186 81q-72 82 -72 217q0 76 25 156.5t71 136.5 q92 115 237 115q117 0 183 -72q60 -68 62 -167z"/>
<glyph glyph-name="D" horiz-adv-x="686" unicode="D" d="M261 586l-79 -486h111q52 0 95 15t79 63q27 36 42 90t17 79t2 45q0 98 -45 146t-135 48h-87zM152 686h200q77 0 136.5 -16t104.5 -66q69 -76 69 -215q0 -79 -27.5 -160t-82.5 -138t-113 -74t-135 -17h-264z"/>
<glyph glyph-name="E" horiz-adv-x="570" unicode="E" d="M152 686h458l-17 -102h-332l-29 -180h264l-16 -96h-264l-33 -206h340l-17 -102h-466z"/>
<glyph glyph-name="F" horiz-adv-x="530" unicode="F" d="M152 686h442l-17 -102h-315l-30 -180h258l-16 -96h-258l-50 -308h-126z"/>
<glyph glyph-name="G" horiz-adv-x="660" unicode="G" d="M636 485l-119 -20q-2 50 -29 85q-34 46 -97 46q-94 0 -152 -109q-51 -97 -51 -227q0 -77 35 -121q39 -49 107 -49q84 0 129 68q27 40 39 106h-156l16 96h274l-59 -360h-64l-11 78h-3q-32 -36 -56 -51q-55 -37 -136 -37q-97 0 -162 58q-87 78 -87 226q0 74 21.5 149.5 t57.5 129.5q94 143 266 143q122 0 186 -74q48 -54 51 -137z"/>
<glyph glyph-name="H" horiz-adv-x="676" unicode="H" d="M152 686h126l-45 -276h268l45 276h126l-112 -686h-126l51 308h-268l-51 -308h-126z"/>
<glyph glyph-name="I" horiz-adv-x="282" unicode="I" d="M152 686h126l-112 -686h-126z"/>
<glyph glyph-name="J" horiz-adv-x="380" unicode="J" d="M258 686h126l-73 -442q-21 -133 -67 -185q-62 -69 -188 -69q-50 0 -104 10l17 104q34 -10 73 -10q66 0 100 36q30 31 43 114z"/>
<glyph glyph-name="K" horiz-adv-x="632" unicode="K" d="M152 686h126l-58 -355l318 355h132l-222 -248l165 -438h-138l-122 340l-159 -165l-28 -175h-126z"/>
<glyph glyph-name="L" horiz-adv-x="510" unicode="L" d="M490 102l-17 -102h-433l112 686h126l-95 -584h307z"/>
<glyph glyph-name="M" horiz-adv-x="852" unicode="M" d="M152 686h168l94 -489h2l248 489h184l-112 -686h-122l92 564h-2l-283 -564h-84l-103 563h-2l-90 -563h-102z"/>
<glyph glyph-name="N" horiz-adv-x="690" unicode="N" d="M152 686h138l209 -501h2q5 53 9 74l70 427h106l-112 -686h-114l-229 548h-2q0 -43 -7 -83l-76 -465h-106z"/>
<glyph glyph-name="O" horiz-adv-x="680" unicode="O" d="M383 596q-110 0 -160 -131q-35 -93 -35 -194q0 -76 27 -121q37 -60 112 -60q37 0 66 13.5t47.5 38.5t29.5 45.5t20 47.5q32 93 32 187q0 72 -30 118q-36 56 -109 56zM394 696q95 0 158 -48q104 -80 104 -243q0 -80 -24 -161t-66 -135q-91 -119 -249 -119q-123 0 -194 80 q-69 78 -69 212q0 125 49 229q89 185 291 185z"/>
<glyph glyph-name="P" horiz-adv-x="620" unicode="P" d="M262 586l-36 -219h131q75 0 113 40q30 33 30 85q0 42 -21 65q-26 29 -99 29h-118zM152 686h239q128 0 184 -48q55 -48 55 -132q0 -55 -22.5 -105t-62.5 -81q-69 -53 -212 -53h-123l-44 -267h-126z"/>
<glyph glyph-name="Q" horiz-adv-x="680" unicode="Q" d="M383 596q-110 0 -160 -131q-35 -93 -35 -194q0 -76 27 -121q37 -60 112 -60q37 0 66 13.5t47.5 38.5t29.5 45.5t20 47.5q32 93 32 187q0 72 -30 118q-36 56 -109 56zM553 -62l-9 -92q-32 -7 -69 -7q-87 0 -124 40q-33 35 -33 93q0 12 1 18h-9q-115 0 -187 80 q-69 78 -69 212q0 125 49 229q89 185 291 185q95 0 158 -48q104 -79 104 -243q0 -81 -24 -160.5t-66 -135.5q-68 -90 -169 -111q0 -30 13 -46q17 -21 63 -21q45 0 80 7z"/>
<glyph glyph-name="R" horiz-adv-x="650" unicode="R" d="M262 586l-34 -207h147q77 0 113 29t36 83q0 43 -28 68q-31 27 -101 27h-133zM152 686h268q119 0 176 -50q58 -50 58 -135q0 -89 -60 -145q-41 -38 -96 -52l90 -304h-130l-79 283h-166l-47 -283h-126z"/>
<glyph glyph-name="S" horiz-adv-x="600" unicode="S" d="M588 535l-104 -35q-9 33 -36 57q-42 39 -116 39q-49 0 -82 -22q-36 -25 -36 -65q0 -51 65 -79q27 -12 114 -33q23 -6 40 -11t45 -19.5t46 -33t32 -50t14 -71.5q0 -102 -85 -168q-70 -54 -195 -54q-114 0 -182 45q-77 52 -100 143l116 31q15 -48 52 -79q47 -40 117 -40 q69 0 107 33q36 32 36 75q0 27 -12 43.5t-39 28.5q-17 8 -103 30q-38 10 -66.5 22t-61 33.5t-50.5 57t-18 81.5q0 43 19 84t57 70q62 48 179 48q109 0 175 -53q54 -44 72 -108z"/>
<glyph glyph-name="T" horiz-adv-x="510" unicode="T" d="M89 686h479l-17 -102h-176l-96 -584h-126l96 584h-177z"/>
<glyph glyph-name="U" horiz-adv-x="654" unicode="U" d="M146 686h126l-60 -367q-12 -78 -12 -106q0 -58 28 -90q30 -33 92 -33q75 0 117 45q36 39 51 134l68 417h102l-67 -412q-6 -40 -12 -66t-19 -62.5t-35 -64.5t-53 -48q-64 -43 -172 -43q-89 0 -146 35q-84 51 -84 161q0 38 8 84z"/>
<glyph glyph-name="V" horiz-adv-x="570" unicode="V" d="M66 686h134l85 -524l253 524h114l-337 -686h-128z"/>
<glyph glyph-name="W" horiz-adv-x="860" unicode="W" d="M76 686h122l46 -503h2l210 503h100l57 -503h2l197 503h110l-281 -686h-118l-53 483h-2l-200 -483h-120z"/>
<glyph glyph-name="X" horiz-adv-x="574" unicode="X" d="M88 686h144l98 -231l174 231h120l-245 -318l163 -368h-144l-116 267l-204 -267h-122l279 357z"/>
<glyph glyph-name="Y" horiz-adv-x="550" unicode="Y" d="M58 686h144l113 -286l209 286h114l-288 -397l-47 -289h-126l47 289z"/>
<glyph glyph-name="Z" horiz-adv-x="544" unicode="Z" d="M105 686h483l-12 -82l-431 -502h362l-17 -102h-512l14 91l427 493h-330z"/>
<glyph glyph-name="bracketleft" horiz-adv-x="340" unicode="[" d="M170 686h198l-10 -64h-103l-120 -726h103l-10 -64h-198z"/>
<glyph glyph-name="backslash" horiz-adv-x="575" unicode="\" d="M95 686h89l298 -686h-89z"/>
<glyph glyph-name="bracketright" horiz-adv-x="340" unicode="]" d="M120 686h198l-140 -854h-198l10 64h103l120 726h-103z"/>
<glyph glyph-name="asciicircum" horiz-adv-x="492" unicode="^" d="M256 552l-106 -294h-90l173 428h46l173 -428h-90z"/>
<glyph glyph-name="underscore" horiz-adv-x="500" unicode="_" d="M500 -65v-62h-500v62h500z"/>
<glyph glyph-name="grave" horiz-adv-x="401" unicode="`" d="M173 723l194 -112l-30 -50l-210 86z"/>
<glyph glyph-name="a" horiz-adv-x="550" unicode="a" d="M368 246q-18 2 -53 2q-93 0 -134 -25q-45 -27 -45 -76q0 -34 21 -53.5t54 -19.5q73 0 119 73q28 42 38 99zM169 365l-96 33q18 41 53 70q63 52 172 52q99 0 149 -37q55 -42 55 -120q0 -31 -20 -142q-4 -22 -10 -56t-8.5 -47.5t-5.5 -33.5t-4 -33.5t-1 -28.5 q0 -3 0.5 -10.5t0.5 -11.5h-114q0 3 -0.5 10.5t-0.5 12.5q0 34 9 70h-2q-24 -38 -52 -60q-52 -43 -125 -43q-74 0 -113.5 45.5t-39.5 103.5q0 80 67 128q73 53 245 53q17 0 51 -2q7 30 7 47q0 37 -24 57q-22 18 -70 18t-84 -27q-26 -20 -39 -48z"/>
<glyph glyph-name="b" horiz-adv-x="582" unicode="b" d="M335 436q-69 0 -112 -74t-43 -175q0 -57 29 -85t68 -28q63 0 106 82q41 78 41 172q0 54 -25 81t-64 27zM139 686h116l-41 -250h2q21 30 58 54q46 30 101 30q12 0 25.5 -1.5t42 -12t49.5 -28.5t37.5 -56t16.5 -90q0 -63 -22 -134.5t-58 -119.5q-66 -88 -175 -88 q-110 0 -162 98l-49 -88h-54z"/>
<glyph glyph-name="c" horiz-adv-x="506" unicode="c" d="M494 335l-107 -18v7q0 40 -14 68q-21 44 -73 44q-79 0 -116 -100q-26 -69 -26 -141q0 -62 28 -91.5t68 -29.5q36 0 67.5 27t47.5 83l94 -32q-26 -63 -67 -103q-59 -59 -154 -59t-150.5 60t-55.5 165q0 117 61 202q76 103 200 103q84 0 135 -47q59 -52 62 -138z"/>
<glyph glyph-name="d" horiz-adv-x="576" unicode="d" d="M304 436q-33 0 -66 -23.5t-53 -72.5q-27 -66 -27 -148q0 -59 24 -90q23 -28 62 -28q37 0 68.5 24t50.5 68q13 31 23 78.5t10 78.5q0 58 -27.5 85.5t-64.5 27.5zM458 686h116l-113 -686h-108l15 89h-2q-20 -34 -49 -58q-50 -41 -111 -41q-75 0 -121 51q-49 54 -49 155 q0 91 36 172q27 60 79 106t132 46q96 0 131 -82h3z"/>
<glyph glyph-name="e" horiz-adv-x="562" unicode="e" d="M170 311h240q1 6 1 17q0 47 -22 76q-28 36 -81 36q-51 0 -89 -34q-40 -37 -49 -95zM522 235h-364q-2 -20 -2 -31q0 -52 21 -84q30 -46 96 -46q53 0 86 32q22 21 39 56l101 -32q-30 -58 -81 -94q-66 -46 -155 -46q-107 0 -169 68q-58 64 -58 165q0 69 24 128t64 98 q73 71 184 71q97 0 153 -51q65 -61 65 -179q0 -31 -4 -55z"/>
<glyph glyph-name="f" horiz-adv-x="350" unicode="f" d="M436 691l-13 -82q-22 4 -50 4q-55 0 -81 -24q-27 -24 -35 -79h127l-14 -86h-127l-69 -424h-116l69 424h-85l14 86h85l4 26q8 54 52 105q55 56 166 56q43 0 73 -6z"/>
<glyph glyph-name="g" horiz-adv-x="540" unicode="g" d="M134 15q-53 -20 -53 -60q0 -30 37 -48q46 -20 143 -20q53 0 81 9q51 16 51 57q0 18 -9.5 29.5t-28.5 16t-32 5.5t-36 1h-19q-61 0 -134 10zM298 446q-46 0 -76 -30t-30 -75q0 -42 22 -62q25 -24 70 -24q48 0 77 31q28 29 28 80q0 33 -22 55q-27 25 -69 25zM570 630 l-6 -87q-20 5 -40 5q-33 0 -54 -13q-26 -17 -36 -47q34 -18 52.5 -51t18.5 -72q0 -73 -50 -124q-60 -60 -164 -60q-48 0 -93 17q-29 -5 -46 -20.5t-17 -32.5q0 -35 45 -35l81 -2q6 0 25.5 -0.5t26.5 -1t24.5 -1t26 -2t23 -4t23.5 -6t20.5 -8t20 -11t16.5 -14.5 q32 -34 32 -84q0 -72 -60 -117q-61 -46 -211 -46q-94 0 -144 14q-34 9 -57.5 24t-33.5 31.5t-14 29t-4 25.5q0 38 27 67q25 27 67 39q-20 8 -32 28.5t-12 43.5q0 43 41 78q30 24 70 37q-60 38 -60 110q0 82 59 131q58 49 158 49q47 0 86 -11q12 52 38 81q37 43 108 43 q6 0 45 -3z"/>
<glyph glyph-name="h" horiz-adv-x="580" unicode="h" d="M138 686h116l-41 -258h2q16 24 39 45q53 47 124 47q60 0 100 -32q46 -38 46 -111q0 -9 -7 -65l-52 -312h-116l52 309q4 21 4 46q0 36 -16 54q-20 23 -56 23q-62 0 -109 -72q-30 -47 -38 -98l-44 -262h-116z"/>
<glyph glyph-name="i" horiz-adv-x="260" unicode="i" d="M137 688h120l-17 -104h-120zM110 510h116l-84 -510h-116z"/>
<glyph glyph-name="j" horiz-adv-x="260" unicode="j" d="M137 688h120l-17 -104h-120zM110 510h116l-82 -495q-17 -102 -65 -147q-47 -43 -129 -43q-34 0 -79 9l15 90q26 -8 50 -8q42 0 64 26q21 24 28 70z"/>
<glyph glyph-name="k" horiz-adv-x="544" unicode="k" d="M138 686h116l-67 -415l244 239h117l-184 -178l123 -332h-125l-89 254l-106 -103l-25 -151h-116z"/>
<glyph glyph-name="l" horiz-adv-x="256" unicode="l" d="M138 686h116l-112 -686h-116z"/>
<glyph glyph-name="m" horiz-adv-x="848" unicode="m" d="M110 510h108l-15 -82h2q17 30 43 53q45 39 108 39q60 0 94 -34q28 -28 37 -69h2q25 41 55 64q49 39 108 39q60 0 97 -35q43 -40 43 -111q0 -16 -9 -74l-49 -300h-114l50 301q5 30 5 54q0 41 -20 61q-16 16 -43 16q-30 0 -57 -21q-57 -45 -75 -150l-43 -261h-114l51 302 q6 36 6 54q0 40 -19 59q-17 17 -44 17q-36 0 -71 -35q-47 -47 -63 -138l-43 -259h-114z"/>
<glyph glyph-name="n" horiz-adv-x="582" unicode="n" d="M110 510h108l-17 -96h2q17 30 41 53q54 53 132 53q65 0 106 -38q44 -42 44 -108q0 -22 -9 -78l-49 -296h-116l50 302q6 38 6 50q0 37 -19 58q-19 22 -54 22q-66 0 -108 -64q-32 -48 -42 -110l-43 -258h-116z"/>
<glyph glyph-name="o" horiz-adv-x="554" unicode="o" d="M303 436q-57 0 -96 -52q-49 -65 -49 -182q0 -60 23 -92q26 -36 73 -36q74 0 112 88q30 69 30 148q0 60 -25 93t-68 33zM302 520q99 0 155 -59q61 -64 61 -168q0 -125 -78 -215q-77 -88 -193 -88q-91 0 -150 59q-61 62 -61 169q0 142 87 229q72 73 179 73z"/>
<glyph glyph-name="p" horiz-adv-x="566" unicode="p" d="M322 436q-69 0 -114 -79q-41 -72 -41 -164q0 -62 28 -90.5t66 -28.5q46 0 82 45q29 37 47 100t18 110q0 49 -23.5 78t-62.5 29zM101 510h108l-15 -94h2q17 34 46 59q52 45 119 45q77 0 123 -51.5t46 -137.5q0 -65 -20 -134.5t-52 -114.5q-66 -92 -170 -92q-50 0 -87.5 21 t-53.5 60h-2l-39 -235h-116z"/>
<glyph glyph-name="q" horiz-adv-x="574" unicode="q" d="M302 436q-35 0 -65.5 -24t-50.5 -69q-28 -63 -28 -149q0 -38 9 -63.5t24.5 -37t28.5 -15.5t27 -4q31 0 62.5 22.5t53.5 75.5q31 74 31 145q0 61 -27.5 90t-64.5 29zM486 510h58l-111 -674h-116l38 233h-2q-26 -38 -66 -58.5t-83 -20.5q-69 0 -118.5 50t-49.5 158 q0 113 48 196q72 126 208 126q107 0 151 -88z"/>
<glyph glyph-name="r" horiz-adv-x="378" unicode="r" d="M110 510h108l-20 -119h2q19 42 53 76q53 53 125 53q16 0 24 -1l-14 -112q-7 1 -21 1q-65 0 -110 -39q-62 -55 -82 -171l-33 -198h-116z"/>
<glyph glyph-name="s" horiz-adv-x="500" unicode="s" d="M470 397l-96 -29q-6 25 -24 43q-29 29 -81 29q-51 0 -75 -20t-24 -44q0 -33 40 -49q19 -8 59 -14.5t60 -11.5q66 -15 98 -51q33 -36 33 -88q0 -86 -73 -134q-56 -38 -162 -38q-107 0 -162 42q-50 38 -63 103l102 23q11 -47 49 -70q27 -18 74 -18t77 15q38 19 38 57 q0 26 -19 41q-14 11 -91 25q-84 16 -124 46q-51 39 -51 105q0 87 82 132q53 29 135 29q71 0 117 -24q63 -32 81 -99z"/>
<glyph glyph-name="t" horiz-adv-x="326" unicode="t" d="M152 651l109 10l-25 -151h112l-14 -86h-112l-37 -227q-7 -47 -7 -57q0 -56 58 -56q33 0 61 5l-11 -89q-42 -7 -89 -7q-59 0 -92 23q-44 32 -44 104q0 21 8 77l37 227h-74l14 86h78z"/>
<glyph glyph-name="u" horiz-adv-x="562" unicode="u" d="M100 510h116l-43 -261q-11 -68 -11 -101q0 -36 17 -53t44 -17q51 0 92 49q47 56 62 145l39 238h116l-84 -510h-108l16 105h-2q-31 -58 -76 -87q-43 -28 -100 -28q-53 0 -89 29q-45 38 -45 119q0 27 7 74z"/>
<glyph glyph-name="v" horiz-adv-x="468" unicode="v" d="M40 510h126l65 -367h2l181 367h94l-260 -510h-104z"/>
<glyph glyph-name="w" horiz-adv-x="682" unicode="w" d="M40 510h120l39 -338h2l144 338h92l42 -337h2l149 337h92l-234 -510h-90l-42 344h-2l-148 -344h-90z"/>
<glyph glyph-name="x" horiz-adv-x="462" unicode="x" d="M48 510h136l70 -158l122 158h106l-185 -230l133 -280h-136l-86 192l-152 -192h-106l216 266z"/>
<glyph glyph-name="y" horiz-adv-x="460" unicode="y" d="M40 510h126l62 -352l176 352h96l-286 -553q-34 -65 -72 -96q-47 -38 -119 -38q-34 0 -73 9l15 89q30 -8 59 -8q41 0 65 17q32 23 47 66l6 17z"/>
<glyph glyph-name="z" horiz-adv-x="440" unicode="z" d="M82 510h376l-9 -66l-316 -358h262l-14 -86h-399l12 78l307 346h-233z"/>
<glyph glyph-name="braceleft" horiz-adv-x="480" unicode="{" d="M460 693l-11 -70h-33q-35 0 -48 -13q-12 -12 -18 -50l-27 -160q-8 -55 -39 -88q-25 -28 -72 -46v-2q31 -11 51 -36q19 -25 19 -62q0 -10 -5 -47l-25 -159q-2 -12 -2 -18q0 -20 10 -29q11 -11 36 -11h34l-11 -70h-60q-57 0 -84 27q-24 22 -24 64q0 15 5 52l23 144 q5 29 5 42q0 26 -14 46q-21 24 -49 24h-11l11 68h9q34 0 59 21q29 25 38 87l26 161q11 72 57 103q33 22 88 22h62z"/>
<glyph glyph-name="bar" horiz-adv-x="479" unicode="|" d="M279 686v-686h-90v686h90z"/>
<glyph glyph-name="braceright" horiz-adv-x="480" unicode="}" d="M20 -168l11 70h33q35 0 48 13q12 12 18 50l27 160q8 55 39 88q25 28 72 46v2q-31 11 -51 36q-19 25 -19 62q0 9 5 47l25 159q2 12 2 18q0 20 -10 29q-11 11 -36 11h-34l11 70h60q57 0 84 -27q24 -22 24 -64q0 -14 -5 -52l-23 -144q-5 -29 -5 -42q0 -26 14 -46 q21 -24 49 -24h11l-11 -68h-9q-34 0 -59 -21q-29 -25 -38 -87l-26 -161q-11 -72 -57 -103q-33 -22 -88 -22h-62z"/>
<glyph glyph-name="asciitilde" horiz-adv-x="714" unicode="~" d="M134 242l-60 34q32 60 66 91q44 39 106 39q32 0 78 -16q36 -12 54 -19l56 -21q32 -12 66 -12q58 0 100 62l60 -34q-29 -50 -55 -76q-48 -48 -120 -48q-29 0 -59 8q-23 6 -68 24l-59 23q-34 14 -66 14q-53 0 -99 -69z"/>
<glyph glyph-name="currency" horiz-adv-x="524" unicode="¤" d="M262 240q42 0 72 30t30 72t-30 72t-72 30t-72 -30t-30 -72t30 -72t72 -30zM450 342q0 -52 -29 -96l53 -53l-60 -60l-53 53q-40 -32 -99 -32t-99 32l-53 -53l-60 60l53 53q-29 44 -29 96t29 96l-53 53l60 60l53 -53q40 32 99 32t99 -32l53 53l60 -60l-53 -53 q29 -44 29 -96z"/>
<glyph glyph-name="brokenbar" horiz-adv-x="479" unicode="¦" d="M279 686v-275h-90v275h90zM279 275v-275h-90v275h90z"/>
<glyph glyph-name="section" horiz-adv-x="582" unicode="§" d="M321 347l-76 28q-31 -11 -51 -33q-26 -28 -26 -58q0 -27 23 -47q20 -17 73 -34l76 -25q30 16 50 39q22 26 22 52q0 33 -34 53q-19 11 -57 25zM544 566l-95 -17q-21 69 -117 69q-54 0 -79 -23.5t-25 -54.5q0 -46 68 -70l50 -17q107 -36 137 -62q36 -32 36 -83 q0 -42 -22 -79q-27 -46 -80 -81q70 -33 70 -115q0 -83 -68 -144q-75 -68 -200 -68q-187 0 -221 149l110 17q9 -29 27 -48.5t41 -26.5t35 -9t24 -2q64 0 101 29.5t37 70.5q0 31 -28 50q-21 16 -71 30l-58 18q-92 29 -122 60q-32 32 -32 82q0 45 22 84q31 55 86 85 q-54 35 -54 103q0 75 56 126q63 57 179 57q165 0 193 -130z"/>
<glyph glyph-name="copyright" horiz-adv-x="740" unicode="©" d="M466 282l73 -24q-6 -21 -25 -46.5t-36 -40.5q-48 -40 -111 -40q-70 0 -115 45q-49 49 -49 135q0 105 52 175q58 78 154 78q79 0 122 -54q31 -40 35 -97l-81 -16q-2 42 -25 68q-22 25 -58 25q-30 0 -51 -21q-26 -26 -40.5 -77t-14.5 -90q0 -51 19 -75q22 -28 61 -28 q40 0 70 43q8 11 12.5 23.5t7.5 16.5zM386 639q-56 0 -110.5 -23t-94.5 -63q-85 -85 -85 -210t85 -210q40 -40 94.5 -63t110.5 -23t110.5 23t94.5 63q85 85 85 210t-85 210q-40 40 -94.5 63t-110.5 23zM386 -10q-68 0 -133.5 27.5t-112.5 75.5q-48 48 -76 115t-28 135 t28 135t76 115q47 48 112.5 75.5t133.5 27.5t133.5 -27.5t112.5 -75.5q48 -48 76 -115t28 -135t-28 -135t-76 -115q-47 -48 -112.5 -75.5t-133.5 -27.5z"/>
<glyph glyph-name="guillemotleft" horiz-adv-x="368" unicode="«" d="M270 256l30 -144h-53l-65 144l110 144h52zM128 256l30 -144h-53l-65 144l110 144h52z"/>
<glyph glyph-name="logicalnot" horiz-adv-x="644" unicode="¬" d="M604 418v-288h-93v195h-431v93h524z"/>
<glyph glyph-name="registered" horiz-adv-x="743" unicode="®" d="M328 370h88q31 0 48 16t17 43q0 26 -16 40q-15 13 -49 13h-70zM516 140h-82l-38 164h-80l-27 -164h-77l68 407h146q53 0 80 -14q56 -30 56 -100q0 -44 -26 -78q-23 -28 -64 -42zM387 639q-56 0 -110.5 -23t-94.5 -63q-85 -85 -85 -210t85 -210q40 -40 94.5 -63t110.5 -23 t110.5 23t94.5 63q85 85 85 210t-85 210q-40 40 -94.5 63t-110.5 23zM387 -10q-68 0 -133.5 27.5t-112.5 75.5q-48 48 -76 115t-28 135t28 135t76 115q47 48 112.5 75.5t133.5 27.5t133.5 -27.5t112.5 -75.5q48 -48 76 -115t28 -135t-28 -135t-76 -115q-47 -48 -112.5 -75.5 t-133.5 -27.5z"/>
<glyph glyph-name="degree" horiz-adv-x="440" unicode="°" d="M180 546q0 -33 23.5 -56.5t56.5 -23.5t56.5 23.5t23.5 56.5t-23.5 56.5t-56.5 23.5t-56.5 -23.5t-23.5 -56.5zM110 546q0 62 44 106t106 44t106 -44t44 -106t-44 -106t-106 -44t-106 44t-44 106z"/>
<glyph glyph-name="plusminus" horiz-adv-x="645" unicode="±" d="M84 0v93h516v-93h-516zM296 651h93v-212h212v-93h-212v-212h-93v212h-212v93h212v212z"/>
<glyph glyph-name="mu" horiz-adv-x="574" unicode="µ" d="M142 510h116l-50 -311q-5 -30 -5 -46q0 -37 20 -53.5t47 -16.5q51 0 93 46t53 111l44 270h116l-84 -510h-112l16 98h-2q-23 -38 -67 -68t-106 -30q-24 0 -45 8l-28 -172h-116z"/>
<glyph glyph-name="mu" horiz-adv-x="574" unicode="μ" d="M142 510h116l-50 -311q-5 -30 -5 -46q0 -37 20 -53.5t47 -16.5q51 0 93 46t53 111l44 270h116l-84 -510h-112l16 98h-2q-23 -38 -67 -68t-106 -30q-24 0 -45 8l-28 -172h-116z"/>
<glyph glyph-name="paragraph" horiz-adv-x="567" unicode="¶" d="M639 686l-11 -70h-61l-130 -795h-73l130 795h-79l-130 -795h-73l66 406q-60 4 -107 44q-62 55 -62 151q0 130 84 200q76 64 207 64h239z"/>
<glyph glyph-name="guillemotright" horiz-adv-x="368" unicode="»" d="M250 256l-30 144h53l65 -144l-110 -144h-52zM108 256l-30 144h53l65 -144l-110 -144h-52z"/>
<glyph glyph-name="afii10023" horiz-adv-x="570" unicode="Ё" d="M447 844h110l-17 -108h-110zM247 844h110l-17 -108h-110zM152 686h458l-17 -102h-332l-29 -180h264l-16 -96h-264l-33 -206h340l-17 -102h-466z"/>
<glyph glyph-name="afii10051" horiz-adv-x="712" unicode="Ђ" d="M89 686h479l-17 -102h-176l-32 -192q63 21 136 21q97 0 151 -47q56 -49 56 -136q0 -106 -65 -174q-63 -66 -183 -66q-45 0 -99 13l34 95q24 -8 55 -8q57 0 91 26q41 32 41 94q0 48 -27 74q-30 29 -88 29q-61 0 -118 -22l-48 -291h-126l96 584h-177z"/>
<glyph glyph-name="afii10052" horiz-adv-x="510" unicode="Ѓ" d="M515 889l32 -76l-237 -85l-23 49zM152 686h428l-17 -102h-301l-96 -584h-126z"/>
<glyph glyph-name="afii10053" horiz-adv-x="638" unicode="Є" d="M640 489l-122 -22q-5 49 -30 81q-37 48 -98 48q-73 0 -123 -58q-46 -55 -58 -135h222l-17 -98h-224q-4 -23 -4 -51q0 -78 33 -121t94 -43q67 0 117 50q30 30 48 70l117 -23q-32 -83 -103 -136q-82 -61 -192 -61q-125 0 -189 83q-57 74 -57 194q0 92 30.5 191.5 t102.5 162.5q86 75 215 75q118 0 180 -68q49 -53 58 -139z"/>
<glyph glyph-name="afii10054" horiz-adv-x="600" unicode="Ѕ" d="M588 535l-104 -35q-9 33 -36 57q-42 39 -116 39q-49 0 -82 -22q-36 -25 -36 -65q0 -51 65 -79q27 -12 114 -33q23 -6 40 -11t45 -19.5t46 -33t32 -50t14 -71.5q0 -102 -85 -168q-70 -54 -195 -54q-114 0 -182 45q-77 52 -100 143l116 31q15 -48 52 -79q47 -40 117 -40 q69 0 107 33q36 32 36 75q0 27 -12 43.5t-39 28.5q-17 8 -103 30q-38 10 -66.5 22t-61 33.5t-50.5 57t-18 81.5q0 43 19 84t57 70q62 48 179 48q109 0 175 -53q54 -44 72 -108z"/>
<glyph glyph-name="afii10055" horiz-adv-x="282" unicode="І" d="M152 686h126l-112 -686h-126z"/>
<glyph glyph-name="afii10056" horiz-adv-x="282" unicode="Ї" d="M270 839h90l-16 -98h-90zM120 839h90l-16 -98h-90zM152 686h126l-112 -686h-126z"/>
<glyph glyph-name="afii10057" horiz-adv-x="380" unicode="Ј" d="M258 686h126l-73 -442q-21 -133 -67 -185q-62 -69 -188 -69q-50 0 -104 10l17 104q34 -10 73 -10q66 0 100 36q30 31 43 114z"/>
<glyph glyph-name="afii10058" horiz-adv-x="966" unicode="Љ" d="M574 305l-34 -205h126q66 0 100 26q45 34 45 98q0 42 -29 63q-26 18 -82 18h-126zM590 405h145q99 0 150 -42q55 -46 55 -132q0 -115 -81 -180q-63 -51 -173 -51h-288l95 584h-178l-8 -43q-30 -165 -64 -279q-26 -87 -58.5 -142t-85.5 -89t-112 -34q-13 0 -19 1l17 107 q44 1 77 31q46 39 77 139q32 100 80 366l8 45h409z"/>
<glyph glyph-name="afii10059" horiz-adv-x="1002" unicode="Њ" d="M610 305l-34 -205h126q66 0 100 26q45 34 45 98q0 42 -29 63q-26 18 -82 18h-126zM152 686h126l-45 -276h268l45 276h126l-46 -281h145q99 0 150 -42q55 -46 55 -132q0 -115 -81 -180q-63 -51 -173 -51h-288l51 308h-268l-51 -308h-126z"/>
<glyph glyph-name="afii10060" horiz-adv-x="702" unicode="Ћ" d="M89 686h480l-17 -102h-188l-31 -193q72 22 153 22q110 0 156 -54q34 -41 34 -105q0 -26 -5 -59l-32 -195h-126l29 176q5 27 5 46q0 43 -27 66q-29 25 -83 25q-58 0 -120 -22l-49 -291h-126l96 584h-166z"/>
<glyph glyph-name="afii10061" horiz-adv-x="626" unicode="Ќ" d="M565 889l32 -76l-237 -85l-23 49zM152 686h126l-45 -282h61q60 0 93 39q17 20 58 101q18 35 27.5 52t27.5 40t37 35q33 21 85 21q19 0 44 -5l-15 -90q-12 2 -19 2q-21 0 -35 -9t-27 -35q-6 -12 -16.5 -35.5t-21 -43.5t-22.5 -40q-37 -58 -89 -69v-3q57 -12 83 -67 q16 -32 29 -117q10 -61 19 -74q11 -16 37 -16q11 0 16 1l-16 -91q-24 -6 -51 -6q-64 0 -90 43q-18 30 -32 111q-16 91 -23 107q-7 19 -18 30.5t-26 16t-26 5.5t-29 1h-77l-51 -308h-126z"/>
<glyph glyph-name="afii10062" horiz-adv-x="560" unicode="Ў" d="M206 857h100v-6q0 -20 15 -35q19 -19 52 -19q39 0 61 19q16 15 23 41h101q-13 -59 -62 -93q-53 -37 -130 -37q-80 0 -122 38q-39 37 -38 92zM64 686h142l108 -367h3l205 367h120l-287 -500q-61 -105 -107 -145q-58 -50 -138 -50q-37 0 -76 9l16 100q25 -8 56 -8 q47 0 77 26q28 23 46 63z"/>
<glyph glyph-name="afii10145" horiz-adv-x="670" unicode="Џ" d="M152 686h126l-95 -584h262l95 584h126l-112 -686h-199l-24 -147h-116l24 147h-199z"/>
<glyph glyph-name="afii10017" horiz-adv-x="586" unicode="А" d="M204 274h175l-43 284zM297 686h140l113 -686h-134l-28 178h-224l-84 -178h-110z"/>
<glyph glyph-name="afii10018" horiz-adv-x="626" unicode="Б" d="M216 305l-33 -205h143q69 0 103 27q41 34 41 92q0 45 -30 68q-24 18 -73 18h-8h-143zM152 686h458l-17 -102h-331l-29 -179h163q105 0 151 -40q53 -46 53 -130q0 -48 -19 -97.5t-54 -81.5q-61 -56 -186 -56h-301z"/>
<glyph glyph-name="afii10019" horiz-adv-x="644" unicode="В" d="M216 306l-34 -206h149q82 0 117 37q29 32 29 75q0 48 -36 73q-30 21 -90 21h-135zM261 586l-29 -184h134q76 0 109 30q31 28 31 72q0 41 -30 62q-29 20 -93 20h-122zM152 686h255h8q94 0 144 -29q75 -44 75 -135q0 -66 -42 -111q-35 -38 -94 -55v-2q44 -12 69 -39 q40 -41 40 -110q0 -85 -58 -143q-62 -62 -187 -62h-322z"/>
<glyph glyph-name="afii10020" horiz-adv-x="510" unicode="Г" d="M152 686h428l-17 -102h-301l-96 -584h-126z"/>
<glyph glyph-name="afii10021" horiz-adv-x="670" unicode="Д" d="M509 584h-180l-10 -50q-25 -123 -69 -237q-39 -101 -101 -195h281zM241 686h409l-96 -584h72l-41 -250h-116l24 148h-413l-24 -148h-116l41 250h48q73 110 123 237q45 116 77 282z"/>
<glyph glyph-name="afii10022" horiz-adv-x="570" unicode="Е" d="M152 686h458l-17 -102h-332l-29 -180h264l-16 -96h-264l-33 -206h340l-17 -102h-466z"/>
<glyph glyph-name="afii10024" horiz-adv-x="884" unicode="Ж" d="M460 686h120l-46 -282h33q43 0 68.5 27t62.5 96q50 93 58 105q22 32 49.5 46t72.5 14q25 0 46 -6l-15 -90q-3 1 -10 1q-10 0 -19.5 -2.5t-16 -5t-14 -10.5t-11.5 -12t-10.5 -16.5t-9 -17.5t-10 -20.5t-10.5 -21.5q-31 -66 -62 -93q-24 -22 -58 -29v-3q46 -14 68 -38 q11 -11 19 -25t14 -36t8 -31.5t6.5 -41t5.5 -36.5q6 -40 20 -54.5t39 -14.5q8 0 12 1l-15 -90q-18 -6 -42 -6q-40 0 -65 9.5t-43 41.5q-16 29 -36 162q-9 58 -31 79q-23 22 -76 22h-7h-37l-51 -308h-120l51 308h-22h-18q-52 0 -81 -21t-51 -70q-11 -24 -24.5 -58t-25.5 -57 q-25 -49 -62 -78.5t-100 -29.5q-24 0 -44 6l15 90q4 -1 11 -1q22 0 40 20q17 17 44 75q3 5 14 30t16 34l15 27t21 30t24 23q38 32 94 38v3q-27 8 -47 30q-23 26 -38 90q-2 10 -5.5 24t-5 20.5t-4 15.5t-4.5 14t-4.5 10t-5.5 8q-13 16 -38 16q-11 0 -16 -1l15 90q17 6 42 6 q17 0 27.5 -1.5t25.5 -6.5t26 -17.5t20 -32.5q4 -9 27 -101q15 -63 30 -90q13 -22 29 -30.5t45 -8.5h31z"/>
<glyph glyph-name="afii10025" horiz-adv-x="600" unicode="З" d="M186 483l-107 22q10 42 36.5 79.5t58.5 60.5q72 50 190 50q88 0 141 -31q79 -46 79 -136q0 -75 -53 -124q-29 -27 -79 -46v-2q46 -11 75 -44q35 -40 35 -98q0 -54 -26.5 -101.5t-74.5 -77.5q-71 -45 -194 -45q-58 0 -103 12.5t-85 50.5q-54 52 -67 126l111 23 q9 -36 38 -67q44 -45 117 -45q76 0 117 37q37 32 37 86q0 44 -30 70q-29 24 -99 24h-80l15 96h86q63 0 100 29q38 30 38 78q0 41 -28 63t-82 22q-63 0 -108 -33q-41 -30 -58 -79z"/>
<glyph glyph-name="afii10026" horiz-adv-x="682" unicode="И" d="M152 686h125l-66 -407q-3 -19 -14 -62h2q13 26 29 45l318 379l6 45h126l-112 -686h-126l68 415q8 43 13 61h-2q-13 -22 -30 -43l-313 -376l-10 -57h-126z"/>
<glyph glyph-name="afii10027" horiz-adv-x="682" unicode="Й" d="M251 857h100v-6q0 -20 15 -35q19 -19 52 -19q39 0 61 19q16 15 23 41h101q-13 -59 -62 -93q-53 -37 -128 -37q-84 0 -124 38q-39 37 -38 92zM152 686h125l-66 -407q-3 -19 -14 -62h2q13 26 29 45l318 379l6 45h126l-112 -686h-126l68 415q8 43 13 61h-2q-13 -22 -30 -43 l-313 -376l-10 -57h-126z"/>
<glyph glyph-name="afii10028" horiz-adv-x="626" unicode="К" d="M152 686h126l-45 -282h61q60 0 93 39q17 20 58 101q18 35 27.5 52t27.5 40t37 35q33 21 85 21q19 0 44 -5l-15 -90q-12 2 -19 2q-21 0 -35 -9t-27 -35q-6 -12 -16.5 -35.5t-21 -43.5t-22.5 -40q-37 -58 -89 -69v-3q57 -12 83 -67q16 -32 29 -117q10 -61 19 -74 q11 -16 37 -16q11 0 16 1l-16 -91q-24 -6 -51 -6q-64 0 -90 43q-18 30 -32 111q-16 91 -23 107q-7 19 -18 30.5t-26 16t-26 5.5t-29 1h-77l-51 -308h-126z"/>
<glyph glyph-name="afii10029" horiz-adv-x="640" unicode="Л" d="M227 686h409l-112 -686h-126l95 584h-178l-8 -43q-30 -165 -64 -279q-26 -87 -58.5 -142t-85.5 -89t-112 -34q-13 0 -19 1l17 107q44 1 77 31q46 39 77 139q32 100 80 366z"/>
<glyph glyph-name="afii10030" horiz-adv-x="852" unicode="М" d="M152 686h168l94 -489h2l248 489h184l-112 -686h-122l92 564h-2l-283 -564h-84l-103 563h-2l-90 -563h-102z"/>
<glyph glyph-name="afii10031" horiz-adv-x="676" unicode="Н" d="M152 686h126l-45 -276h268l45 276h126l-112 -686h-126l51 308h-268l-51 -308h-126z"/>
<glyph glyph-name="afii10032" horiz-adv-x="680" unicode="О" d="M383 596q-110 0 -160 -131q-35 -93 -35 -194q0 -76 27 -121q37 -60 112 -60q37 0 66 13.5t47.5 38.5t29.5 45.5t20 47.5q32 93 32 187q0 72 -30 118q-36 56 -109 56zM394 696q95 0 158 -48q104 -80 104 -243q0 -80 -24 -161t-66 -135q-91 -119 -249 -119q-123 0 -194 80 q-69 78 -69 212q0 125 49 229q89 185 291 185z"/>
<glyph glyph-name="afii10033" horiz-adv-x="670" unicode="П" d="M152 686h514l-112 -686h-126l95 584h-261l-96 -584h-126z"/>
<glyph glyph-name="afii10034" horiz-adv-x="620" unicode="Р" d="M262 586l-36 -219h131q75 0 113 40q30 33 30 85q0 42 -21 65q-26 29 -99 29h-118zM152 686h239q128 0 184 -48q55 -48 55 -132q0 -55 -22.5 -105t-62.5 -81q-69 -53 -212 -53h-123l-44 -267h-126z"/>
<glyph glyph-name="afii10035" horiz-adv-x="630" unicode="С" d="M632 457l-114 -18q-2 62 -30 104q-35 53 -102 53q-86 0 -138 -91q-27 -47 -43.5 -116.5t-16.5 -129.5q0 -76 32 -119q38 -50 102 -50t108 48q35 39 52 97l111 -26q-25 -78 -76 -132q-81 -87 -205 -87q-115 0 -186 81q-72 82 -72 217q0 76 25 156.5t71 136.5 q92 115 237 115q117 0 183 -72q60 -68 62 -167z"/>
<glyph glyph-name="afii10036" horiz-adv-x="510" unicode="Т" d="M89 686h479l-17 -102h-176l-96 -584h-126l96 584h-177z"/>
<glyph glyph-name="afii10037" horiz-adv-x="560" unicode="У" d="M64 686h142l108 -367h3l205 367h120l-287 -500q-61 -105 -107 -145q-58 -50 -138 -50q-37 0 -76 9l16 100q25 -8 56 -8q47 0 77 26q28 23 46 63z"/>
<glyph glyph-name="afii10038" horiz-adv-x="800" unicode="Ф" d="M501 524l-56 -342q75 0 128 35q81 53 81 164q0 79 -48 115q-35 26 -105 28zM329 182l56 342q-75 0 -128 -35q-81 -53 -81 -164q0 -79 48 -115q35 -26 105 -28zM410 705h124l-14 -87h7q75 0 135 -29q114 -57 114 -203q0 -91 -45.5 -160.5t-124.5 -104.5q-74 -33 -172 -33 l-16 -96h-124l16 96h-7q-75 0 -135 29q-114 57 -114 203q0 91 45.5 160.5t124.5 104.5q74 33 172 33z"/>
<glyph glyph-name="afii10039" horiz-adv-x="574" unicode="Х" d="M88 686h144l98 -231l174 231h120l-245 -318l163 -368h-144l-116 267l-204 -267h-122l279 357z"/>
<glyph glyph-name="afii10040" horiz-adv-x="686" unicode="Ц" d="M152 686h126l-96 -584h262l96 584h126l-96 -584h72l-41 -250h-116l24 148h-469z"/>
<glyph glyph-name="afii10041" horiz-adv-x="622" unicode="Ч" d="M111 686h124l-31 -192q-3 -18 -3 -37q0 -40 27 -57q24 -14 78 -14t138 10l48 290h126l-112 -686h-126l48 294q-78 -10 -147 -10t-111 13q-96 29 -96 134q0 19 6 63z"/>
<glyph glyph-name="afii10042" horiz-adv-x="924" unicode="Ш" d="M152 686h124l-96 -584h198l96 584h124l-96 -584h198l96 584h124l-113 -686h-767z"/>
<glyph glyph-name="afii10043" horiz-adv-x="950" unicode="Щ" d="M152 686h124l-96 -584h198l96 584h124l-96 -584h198l96 584h124l-96 -584h72l-41 -250h-116l24 148h-723z"/>
<glyph glyph-name="afii10044" horiz-adv-x="700" unicode="Ъ" d="M308 305l-34 -205h126q66 0 100 26q45 34 45 98q0 42 -29 63q-26 18 -82 18h-126zM59 686h311l-46 -281h145q99 0 150 -42q55 -46 55 -132q0 -115 -81 -180q-63 -51 -173 -51h-288l96 584h-186z"/>
<glyph glyph-name="afii10045" horiz-adv-x="850" unicode="Ы" d="M720 686h126l-112 -686h-126zM216 305l-34 -205h126q66 0 100 26q45 34 45 98q0 42 -29 63q-26 18 -82 18h-126zM152 686h126l-46 -281h145q99 0 150 -42q55 -46 55 -132q0 -115 -81 -180q-63 -51 -173 -51h-288z"/>
<glyph glyph-name="afii10046" horiz-adv-x="608" unicode="Ь" d="M216 305l-34 -205h126q66 0 100 26q45 34 45 98q0 42 -29 63q-26 18 -82 18h-126zM152 686h126l-46 -281h145q99 0 150 -42q55 -46 55 -132q0 -115 -81 -180q-63 -51 -173 -51h-288z"/>
<glyph glyph-name="afii10047" horiz-adv-x="620" unicode="Э" d="M177 469l-114 20q29 90 86 137q78 70 204 70q134 0 195 -88q48 -69 48 -180q0 -68 -19 -147.5t-53 -140.5q-85 -150 -270 -150q-108 0 -169 57t-67 149l116 17q4 -42 26 -73q38 -50 108 -50q80 0 131 73q39 56 52 142h-224l15 96h220q3 21 3 43q0 69 -25 105 q-32 47 -102 47q-61 0 -106 -41q-38 -35 -55 -86z"/>
<glyph glyph-name="afii10048" horiz-adv-x="934" unicode="Ю" d="M635 596q-70 0 -118 -60q-38 -47 -56.5 -121.5t-18.5 -143.5q0 -77 33.5 -129t103.5 -52q116 0 165 145q32 94 32 185q0 76 -30 120q-37 56 -111 56zM232 405h102q23 124 99 202q87 89 224 89q92 0 152 -48q101 -79 101 -246q0 -80 -22.5 -159t-64.5 -134 q-89 -119 -244 -119q-153 0 -221 123q-39 71 -39 168q0 20 1 30h-103l-51 -311h-126l112 686h126z"/>
<glyph glyph-name="afii10049" horiz-adv-x="634" unicode="Я" d="M487 586h-130q-64 0 -96 -23q-42 -30 -42 -90q0 -43 25 -65q26 -23 96 -23h114zM630 686l-112 -686h-126l46 285h-108l-198 -285h-152l226 305q-36 9 -61 29q-56 44 -56 132q0 109 78 170q40 32 86 41t108 9h269z"/>
<glyph glyph-name="afii10065" horiz-adv-x="550" unicode="а" d="M368 246q-18 2 -53 2q-93 0 -134 -25q-45 -27 -45 -76q0 -34 21 -53.5t54 -19.5q73 0 119 73q28 42 38 99zM169 365l-96 33q18 41 53 70q63 52 172 52q99 0 149 -37q55 -42 55 -120q0 -31 -20 -142q-4 -22 -10 -56t-8.5 -47.5t-5.5 -33.5t-4 -33.5t-1 -28.5 q0 -3 0.5 -10.5t0.5 -11.5h-114q0 3 -0.5 10.5t-0.5 12.5q0 34 9 70h-2q-24 -38 -52 -60q-52 -43 -125 -43q-74 0 -113.5 45.5t-39.5 103.5q0 80 67 128q73 53 245 53q17 0 51 -2q7 30 7 47q0 37 -24 57q-22 18 -70 18t-84 -27q-26 -20 -39 -48z"/>
<glyph glyph-name="afii10066" horiz-adv-x="554" unicode="б" d="M305 406q-56 0 -92 -47q-53 -67 -53 -167q0 -55 21 -83q26 -35 71 -35q73 0 113 78q33 65 33 146q0 14 -2.5 28t-10.5 34.5t-28.5 33t-51.5 12.5zM572 698l-16 -93q-28 -16 -78 -27q-54 -12 -90.5 -17t-66.5 -12q-68 -16 -106 -45q-58 -43 -73 -111h4q58 94 180 94 q78 0 127 -41q65 -54 65 -158q0 -118 -63 -203q-70 -95 -194 -95q-110 0 -169 68q-52 59 -52 174q0 125 50 239q45 102 131 147q54 27 210 50q89 12 141 30z"/>
<glyph glyph-name="afii10067" horiz-adv-x="544" unicode="в" d="M178 226l-24 -152h121q45 0 67 16q33 22 33 67q0 35 -23 53q-22 16 -60 16h-114zM212 436l-23 -136h96q51 0 77 20q28 23 28 58q0 26 -16.5 42t-48.5 16h-113zM110 510h237q80 0 117 -27q44 -31 44 -90q0 -56 -43 -94q-23 -20 -54 -30q43 -14 63 -38q25 -29 25 -77 q0 -46 -30 -87q-32 -42 -77 -54.5t-102 -12.5h-264z"/>
<glyph glyph-name="afii10068" horiz-adv-x="420" unicode="г" d="M110 510h344l-14 -86h-228l-70 -424h-116z"/>
<glyph glyph-name="afii10069" horiz-adv-x="530" unicode="д" d="M366 424h-130l-4 -22q-20 -110 -49 -188q-21 -57 -62 -128h189zM156 510h338l-70 -424h56l-36 -222h-106l22 136h-300l-22 -136h-106l36 222h42q61 78 95 186q31 99 45 197z"/>
<glyph glyph-name="afii10070" horiz-adv-x="562" unicode="е" d="M170 311h240q1 6 1 17q0 47 -22 76q-28 36 -81 36q-51 0 -89 -34q-40 -37 -49 -95zM522 235h-364q-2 -20 -2 -31q0 -52 21 -84q30 -46 96 -46q53 0 86 32q22 21 39 56l101 -32q-30 -58 -81 -94q-66 -46 -155 -46q-107 0 -169 68q-58 64 -58 165q0 69 24 128t64 98 q73 71 184 71q97 0 153 -51q65 -61 65 -179q0 -31 -4 -55z"/>
<glyph glyph-name="afii10072" horiz-adv-x="720" unicode="ж" d="M352 510h108l-34 -204h30q54 0 83 56q6 11 23 47t29 53q21 31 45 41t60 10q26 0 42 -4l-13 -78q-5 1 -14 1q-15 0 -24.5 -6t-13 -11.5t-9.5 -18.5q-28 -61 -42 -81q-26 -39 -70 -41q17 -5 31 -14q23 -17 37 -48q9 -22 20 -79q5 -22 12 -33.5t12.5 -13.5t15.5 -2h4h12 l-13 -82q-24 -6 -50 -6q-46 0 -70 32q-17 23 -30 97q-10 65 -30 83q-18 16 -54 16h-36l-37 -224h-108l37 224h-34q-52 0 -81 -40q-15 -21 -33 -64t-27 -58q-18 -31 -42.5 -48.5t-73.5 -17.5q-28 0 -54 6l13 82q5 -1 14 -1q20 0 31 12t26 42q31 64 50 87q35 42 84 48 q-20 7 -32 21q-15 16 -28 65q-15 58 -23 65q-11 9 -23 9q-10 0 -15 -1l13 78q19 4 39 4q49 0 69 -19q22 -20 30 -80q9 -67 23 -85q18 -23 56 -23h31z"/>
<glyph glyph-name="afii10073" horiz-adv-x="510" unicode="з" d="M139 357l-97 18q16 64 81 106q62 39 161 39q73 0 116 -20q74 -34 74 -112q0 -50 -32 -85q-29 -31 -67 -38l-1 -2q81 -18 81 -104q0 -87 -75 -133q-58 -36 -160 -36q-80 0 -123 21q-37 17 -64 52.5t-31 81.5l99 19q4 -34 22 -56q29 -36 95 -36q51 0 82 24q31 25 31 63 q0 32 -19 49q-21 19 -75 19h-61l12 74h67q46 0 65 12q34 19 34 60q0 26 -18.5 46.5t-66.5 20.5q-52 0 -89 -27q-30 -22 -41 -56z"/>
<glyph glyph-name="afii10074" horiz-adv-x="566" unicode="и" d="M110 510h116l-44 -266q-5 -28 -16 -60h2q25 35 31 41l214 244l7 41h116l-84 -510h-116l45 274q6 30 12 54h-2q-12 -19 -32 -42l-209 -240l-8 -46h-116z"/>
<glyph glyph-name="afii10075" horiz-adv-x="566" unicode="й" d="M184 688h89q0 -23 11 -39q15 -19 47 -19q26 0 45 19q16 17 20 39h92q-12 -56 -58 -89q-44 -31 -110 -31q-68 0 -102 33q-34 32 -34 87zM110 510h116l-44 -266q-5 -28 -16 -60h2q25 35 31 41l214 244l7 41h116l-84 -510h-116l45 274q6 30 12 54h-2q-12 -19 -32 -42 l-209 -240l-8 -46h-116z"/>
<glyph glyph-name="afii10076" horiz-adv-x="510" unicode="к" d="M110 510h116l-34 -204h45q35 0 53.5 13.5t33.5 39.5q11 18 22.5 42.5t21.5 43.5q22 39 47 53.5t65 14.5q25 0 48 -5l-13 -76q-4 1 -13 1q-21 0 -32 -10.5t-23 -37.5q-20 -47 -37 -70q-25 -33 -63 -42q26 -9 46 -35q21 -27 36 -111q4 -20 12 -30.5t15.5 -12.5t19.5 -2 q11 0 16 1l-14 -81q-33 -6 -52 -6q-28 0 -47.5 8.5t-30.5 26t-16 32.5t-10 38q-13 64 -21 82t-22 27.5t-26 11t-33 1.5h-42l-36 -223h-116z"/>
<glyph glyph-name="afii10077" horiz-adv-x="530" unicode="л" d="M157 510h343l-84 -510h-116l70 425h-128l-10 -50q-25 -130 -47 -199q-31 -95 -78 -136q-47 -42 -118 -42q-9 0 -29 2l15 92q47 0 82 39q38 43 70 206q7 32 21 118z"/>
<glyph glyph-name="afii10078" horiz-adv-x="708" unicode="м" d="M110 510h152l75 -348h2l183 348h156l-84 -510h-110l69 408h-2l-211 -408h-66l-87 407h-2l-67 -407h-92z"/>
<glyph glyph-name="afii10079" horiz-adv-x="566" unicode="н" d="M110 510h116l-33 -201h194l33 201h116l-84 -510h-116l36 223h-194l-36 -223h-116z"/>
<glyph glyph-name="afii10080" horiz-adv-x="554" unicode="о" d="M303 436q-57 0 -96 -52q-49 -65 -49 -182q0 -60 23 -92q26 -36 73 -36q74 0 112 88q30 69 30 148q0 60 -25 93t-68 33zM302 520q99 0 155 -59q61 -64 61 -168q0 -125 -78 -215q-77 -88 -193 -88q-91 0 -150 59q-61 62 -61 169q0 142 87 229q72 73 179 73z"/>
<glyph glyph-name="afii10081" horiz-adv-x="566" unicode="п" d="M110 510h426l-84 -510h-116l70 426h-194l-70 -426h-116z"/>
<glyph glyph-name="afii10082" horiz-adv-x="566" unicode="р" d="M322 436q-69 0 -114 -79q-41 -72 -41 -164q0 -62 28 -90.5t66 -28.5q46 0 82 45q29 37 47 100t18 110q0 49 -23.5 78t-62.5 29zM101 510h108l-15 -94h2q17 34 46 59q52 45 119 45q77 0 123 -51.5t46 -137.5q0 -65 -20 -134.5t-52 -114.5q-66 -92 -170 -92q-50 0 -87.5 21 t-53.5 60h-2l-39 -235h-116z"/>
<glyph glyph-name="afii10083" horiz-adv-x="506" unicode="с" d="M494 335l-107 -18v7q0 40 -14 68q-21 44 -73 44q-79 0 -116 -100q-26 -69 -26 -141q0 -62 28 -91.5t68 -29.5q36 0 67.5 27t47.5 83l94 -32q-26 -63 -67 -103q-59 -59 -154 -59t-150.5 60t-55.5 165q0 117 61 202q76 103 200 103q84 0 135 -47q59 -52 62 -138z"/>
<glyph glyph-name="afii10084" horiz-adv-x="434" unicode="т" d="M36 510h430l-14 -84h-157l-70 -426h-116l70 426h-157z"/>
<glyph glyph-name="afii10085" horiz-adv-x="460" unicode="у" d="M40 510h126l62 -352l176 352h96l-286 -553q-34 -65 -72 -96q-47 -38 -119 -38q-34 0 -73 9l15 89q30 -8 59 -8q41 0 65 17q32 23 47 66l6 17z"/>
<glyph glyph-name="afii10086" horiz-adv-x="724" unicode="ф" d="M441 428l-57 -344h10q72 0 120 48q57 55 57 161q0 83 -49 115q-29 20 -75 20h-6zM284 84l57 344h-10q-72 0 -120 -48q-57 -55 -57 -161q0 -83 49 -115q29 -20 75 -20h6zM375 686h116l-29 -176h5q88 0 147 -44q74 -57 74 -171q0 -155 -109 -237q-76 -58 -194 -58h-7 l-27 -164h-116l27 164h-5q-88 0 -147 44q-74 57 -74 171q0 155 109 237q76 58 194 58h7z"/>
<glyph glyph-name="afii10087" horiz-adv-x="462" unicode="х" d="M48 510h136l70 -158l122 158h106l-185 -230l133 -280h-136l-86 192l-152 -192h-106l216 266z"/>
<glyph glyph-name="afii10088" horiz-adv-x="580" unicode="ц" d="M110 510h116l-70 -424h202l70 424h116l-70 -424h60l-36 -222h-106l22 136h-388z"/>
<glyph glyph-name="afii10089" horiz-adv-x="500" unicode="ч" d="M68 510h116l-21 -128q-4 -28 -4 -40q0 -29 15 -41q17 -15 65 -15q43 0 79 6l36 218h116l-84 -510h-116l34 208q-52 -6 -110 -6q-88 0 -122 37q-30 32 -30 93q0 22 5 50z"/>
<glyph glyph-name="afii10090" horiz-adv-x="778" unicode="ш" d="M110 510h114l-70 -424h149l70 424h114l-70 -424h147l70 424h114l-84 -510h-638z"/>
<glyph glyph-name="afii10091" horiz-adv-x="784" unicode="щ" d="M110 510h114l-70 -424h149l70 424h114l-70 -424h147l70 424h114l-70 -424h60l-36 -222h-106l22 136h-592z"/>
<glyph glyph-name="afii10092" horiz-adv-x="580" unicode="ъ" d="M254 243l-26 -159h91q51 0 76 24q27 27 27 69q0 37 -25 54q-17 12 -55 12h-88zM32 510h266l-32 -193h110q82 0 121 -29q47 -34 47 -105q0 -43 -18 -83.5t-52 -65.5q-45 -34 -133 -34h-243l70 426h-150z"/>
<glyph glyph-name="afii10093" horiz-adv-x="720" unicode="ы" d="M574 510h116l-84 -510h-116zM182 243l-26 -159h91q51 0 76 24q27 27 27 69q0 37 -25 54q-17 12 -55 12h-88zM110 510h116l-32 -193h110q82 0 121 -29q47 -34 47 -105q0 -43 -18 -83.5t-52 -65.5q-45 -34 -133 -34h-243z"/>
<glyph glyph-name="afii10094" horiz-adv-x="508" unicode="ь" d="M182 243l-26 -159h91q51 0 76 24q27 27 27 69q0 37 -25 54q-17 12 -55 12h-88zM110 510h116l-32 -193h110q82 0 121 -29q47 -34 47 -105q0 -43 -18 -83.5t-52 -65.5q-45 -34 -133 -34h-243z"/>
<glyph glyph-name="afii10095" horiz-adv-x="508" unicode="э" d="M141 349l-101 19q22 60 66 96q66 56 173 56q89 0 136 -44q57 -52 57 -155q0 -73 -26.5 -148t-75.5 -121q-66 -62 -167 -62q-88 0 -140 42q-56 46 -61 115l104 17q3 -31 22 -56q26 -34 74 -34q49 0 82 33q44 42 53 122h-168l12 74h167q2 20 2 30q0 53 -22 78t-64 25 q-49 0 -84 -31q-26 -24 -39 -56z"/>
<glyph glyph-name="afii10096" horiz-adv-x="760" unicode="ю" d="M512 436q-59 0 -97 -50q-24 -32 -37 -86.5t-13 -99.5q0 -62 27 -94t69 -32q77 0 113 91q28 73 28 149q0 40 -9.5 66.5t-26 37.5t-28.5 14.5t-26 3.5zM193 309h73q17 84 71 139q70 72 180 72q99 0 152 -60q55 -61 55 -167q0 -129 -73 -215q-75 -88 -192 -88 q-130 0 -182 111q-24 51 -24 122h-74l-37 -223h-116l84 510h116z"/>
<glyph glyph-name="afii10097" horiz-adv-x="520" unicode="я" d="M361 430h-88q-49 0 -76 -19q-34 -24 -34 -70q0 -32 21 -49q22 -18 75 -18h76zM490 510l-84 -510h-116l33 200h-71l-132 -200h-128l150 211q-33 6 -57 27q-44 38 -44 102q0 70 48 116q56 54 177 54h224z"/>
<glyph glyph-name="afii10071" horiz-adv-x="562" unicode="ё" d="M376 702h110l-18 -108h-110zM176 702h110l-18 -108h-110zM170 311h240q1 6 1 17q0 47 -22 76q-28 36 -81 36q-51 0 -89 -34q-40 -37 -49 -95zM522 235h-364q-2 -20 -2 -31q0 -52 21 -84q30 -46 96 -46q53 0 86 32q22 21 39 56l101 -32q-30 -58 -81 -94q-66 -46 -155 -46 q-107 0 -169 68q-58 64 -58 165q0 69 24 128t64 98q73 71 184 71q97 0 153 -51q65 -61 65 -179q0 -31 -4 -55z"/>
<glyph glyph-name="afii10099" horiz-adv-x="576" unicode="ђ" d="M138 686h116l-11 -68h175l-12 -72h-174l-23 -145h2q16 24 39 45q53 47 124 47q60 0 100 -32q46 -38 46 -111q0 -18 -7 -65l-46 -270q-6 -39 -11.5 -60.5t-22.5 -52.5t-44 -49q-42 -28 -110 -28q-39 0 -85 10l13 86q40 -8 52 -8q47 0 68 26q14 18 24 73l46 270q4 21 4 46 q0 36 -16 54q-20 23 -56 23q-60 0 -109 -72q-29 -45 -38 -98l-40 -235h-116l89 546h-77l12 72h77z"/>
<glyph glyph-name="afii10100" horiz-adv-x="420" unicode="ѓ" d="M422 723l32 -76l-237 -86l-23 50zM110 510h344l-14 -86h-228l-70 -424h-116z"/>
<glyph glyph-name="afii10101" horiz-adv-x="518" unicode="є" d="M506 370l-105 -19q-3 31 -23 54q-27 31 -71 31q-47 0 -80 -28q-47 -40 -54 -105h164l-11 -75h-164q-4 -20 -4 -46q0 -54 18 -78q20 -30 65 -30q53 0 88 35q23 21 36 54l102 -17q-24 -62 -70 -101q-64 -55 -166 -55q-83 0 -134 46q-61 55 -61 164q0 152 81 241 q72 79 188 79q88 0 140 -42t61 -108z"/>
<glyph glyph-name="afii10102" horiz-adv-x="500" unicode="ѕ" d="M470 397l-96 -29q-6 25 -24 43q-29 29 -81 29q-51 0 -75 -20t-24 -44q0 -33 40 -49q19 -8 59 -14.5t60 -11.5q66 -15 98 -51q33 -36 33 -88q0 -86 -73 -134q-56 -38 -162 -38q-107 0 -162 42q-50 38 -63 103l102 23q11 -47 49 -70q27 -18 74 -18t77 15q38 19 38 57 q0 26 -19 41q-14 11 -91 25q-84 16 -124 46q-51 39 -51 105q0 87 82 132q53 29 135 29q71 0 117 -24q63 -32 81 -99z"/>
<glyph glyph-name="afii10103" horiz-adv-x="260" unicode="і" d="M137 688h120l-17 -104h-120zM110 510h116l-84 -510h-116z"/>
<glyph glyph-name="afii10104" horiz-adv-x="260" unicode="ї" d="M218 688h90l-16 -98h-90zM78 688h90l-16 -98h-90zM110 510h116l-84 -510h-116z"/>
<glyph glyph-name="afii10105" horiz-adv-x="260" unicode="ј" d="M137 688h120l-17 -104h-120zM110 510h116l-82 -495q-17 -102 -65 -147q-47 -43 -129 -43q-34 0 -79 9l15 90q26 -8 50 -8q42 0 64 26q21 24 28 70z"/>
<glyph glyph-name="afii10106" horiz-adv-x="782" unicode="љ" d="M456 243l-26 -159h91q51 0 76 24q27 27 27 69q0 37 -25 54q-17 12 -55 12h-88zM157 510h343l-32 -193h110q82 0 121 -29q47 -34 47 -105q0 -43 -18 -83.5t-52 -65.5q-45 -34 -133 -34h-243l70 425h-128l-10 -50q-25 -130 -47 -199q-31 -95 -78 -136q-47 -42 -118 -42 q-9 0 -29 2l15 92q47 0 82 39q38 43 70 206q7 32 21 118z"/>
<glyph glyph-name="afii10107" horiz-adv-x="818" unicode="њ" d="M492 243l-26 -159h91q51 0 76 24q27 27 27 69q0 37 -25 54q-17 12 -55 12h-88zM110 510h116l-33 -201h194l33 201h116l-32 -193h110q82 0 121 -29q47 -34 47 -105q0 -43 -18 -83.5t-52 -65.5q-45 -34 -133 -34h-243l36 223h-194l-36 -223h-116z"/>
<glyph glyph-name="afii10108" horiz-adv-x="576" unicode="ћ" d="M138 686h116l-11 -68h175l-12 -72h-174l-23 -145h2q16 24 39 45q53 47 124 47q60 0 100 -32q46 -38 46 -111q0 -18 -7 -65l-48 -285h-116l48 282q4 21 4 46q0 36 -16 54q-20 23 -56 23q-60 0 -109 -72q-29 -45 -38 -98l-40 -235h-116l89 546h-77l12 72h77z"/>
<glyph glyph-name="afii10109" horiz-adv-x="510" unicode="ќ" d="M493 723l32 -76l-237 -86l-23 50zM110 510h116l-34 -204h45q35 0 53.5 13.5t33.5 39.5q11 18 22.5 42.5t21.5 43.5q22 39 47 53.5t65 14.5q25 0 48 -5l-13 -76q-4 1 -13 1q-21 0 -32 -10.5t-23 -37.5q-20 -47 -37 -70q-25 -33 -63 -42q26 -9 46 -35q21 -27 36 -111 q4 -20 12 -30.5t15.5 -12.5t19.5 -2q11 0 16 1l-14 -81q-33 -6 -52 -6q-28 0 -47.5 8.5t-30.5 26t-16 32.5t-10 38q-13 64 -21 82t-22 27.5t-26 11t-33 1.5h-42l-36 -223h-116z"/>
<glyph glyph-name="afii10110" horiz-adv-x="460" unicode="ў" d="M140 688h89q0 -23 11 -39q15 -19 47 -19q26 0 45 19q16 17 20 39h92q-12 -56 -58 -89q-44 -31 -110 -31q-68 0 -102 33q-34 32 -34 87zM40 510h126l62 -352l176 352h96l-286 -553q-34 -65 -72 -96q-47 -38 -119 -38q-34 0 -73 9l15 89q30 -8 59 -8q41 0 65 17 q32 23 47 66l6 17z"/>
<glyph glyph-name="afii10193" horiz-adv-x="574" unicode="џ" d="M110 510h116l-71 -424h204l69 424h116l-84 -510h-164l-23 -138h-106l23 138h-164z"/>
<glyph glyph-name="afii10050" horiz-adv-x="510" unicode="Ґ" d="M152 686h319l16 96h107l-31 -196h-301l-96 -586h-126z"/>
<glyph glyph-name="afii10098" horiz-adv-x="420" unicode="ґ" d="M110 510h259l13 76h84l-26 -162h-228l-70 -424h-116z"/>
<glyph glyph-name="endash" horiz-adv-x="640" unicode="–" d="M586 305l-14 -84h-502l14 84h502z"/>
<glyph glyph-name="emdash" horiz-adv-x="1040" unicode="—" d="M986 305l-14 -84h-902l14 84h902z"/>
<glyph glyph-name="quoteleft" horiz-adv-x="275" unicode="‘" d="M106 440l18 109l104 137h51l-82 -126h52l-20 -120h-123z"/>
<glyph glyph-name="quotesinglbase" horiz-adv-x="275" unicode="‚" d="M177 120l-18 -109l-104 -137h-51l82 126h-52l20 120h123z"/>
<glyph glyph-name="quotedblleft" horiz-adv-x="444" unicode="“" d="M106 440l18 109l104 137h51l-82 -126h52l-20 -120h-123zM275 440l18 109l104 137h51l-82 -126h52l-20 -120h-123z"/>
<glyph glyph-name="quotedblright" horiz-adv-x="444" unicode="”" d="M438 686l-18 -109l-104 -137h-51l82 126h-52l20 120h123zM269 686l-18 -109l-104 -137h-51l82 126h-52l20 120h123z"/>
<glyph glyph-name="dagger" horiz-adv-x="572" unicode="†" d="M361 674l66 12l-74 -208l219 38l-20 -56l1 -56l-207 29q8 -15 36 -49q-34 -77 -69 -221q-37 -152 -58 -281l-8 -50h-48l9 50q14 74 27 202t13 199q0 20 -3 101q3 2 53 49l-218 -29l20 56l-2 56l207 -38l-7 208z"/>
<glyph glyph-name="daggerdbl" horiz-adv-x="594" unicode="‡" d="M382 671l61 15l-64 -183l219 39l-19 -57l1 -58l-207 33l13 -55l-32 -60l218 38l-20 -57l2 -57l-208 32q14 -23 37 -44q-26 -66 -52 -157q-38 -135 -56 -234l-6 -34h-48l4 34q23 184 23 317q0 39 -3 74q25 17 51 44l-217 -32l19 57l-1 57l206 -38l-12 60l31 55l-217 -33 l20 58l-2 57l206 -39l-4 183z"/>
<glyph glyph-name="ellipsis" horiz-adv-x="1032" unicode="…" d="M912 136l-22 -136h-138l22 136h138zM568 136l-22 -136h-138l22 136h138zM224 136l-22 -136h-138l22 136h138z"/>
<glyph glyph-name="perthousand" horiz-adv-x="1192" unicode="‰" d="M961 288q-49 0 -73 -61q-18 -46 -18 -99q0 -38 16.5 -54t37.5 -16q46 0 69 62q17 45 17 104q0 64 -49 64zM967 352q51 0 86 -32.5t35 -101.5q0 -47 -15.5 -93t-40.5 -76q-46 -55 -114 -55q-56 0 -91 35.5t-35 104.5q0 100 56 163q49 55 119 55zM625 288q-49 0 -73 -61 q-18 -46 -18 -99q0 -38 16.5 -54t37.5 -16q46 0 69 62q17 45 17 104q0 64 -49 64zM631 352q51 0 86 -32.5t35 -101.5q0 -47 -15.5 -93t-40.5 -76q-46 -55 -114 -55q-56 0 -91 35.5t-35 104.5q0 100 56 163q49 55 119 55zM313 629q-49 0 -73 -61q-18 -46 -18 -99 q0 -38 16.5 -54t37.5 -16q46 0 69 62q17 45 17 104q0 64 -49 64zM319 693q51 0 86 -32.5t35 -101.5q0 -47 -15.5 -93t-40.5 -76q-46 -55 -114 -55q-56 0 -91 35.5t-35 104.5q0 100 56 163q49 55 119 55zM658 686h80l-500 -686h-80z"/>
<glyph glyph-name="guilsinglleft" horiz-adv-x="226" unicode="‹" d="M128 256l30 -144h-53l-65 144l110 144h52z"/>
<glyph glyph-name="guilsinglright" horiz-adv-x="226" unicode="›" d="M108 256l-30 144h53l65 -144l-110 -144h-52z"/>
<glyph glyph-name="Euro" d="M636 654l-18 -112q-49 53 -156 53q-78 0 -130 -35.5t-75 -98.5h310l-47 -85h-291q-1 -4 -3 -13.5t-3 -14.5q-1 -7 -2.5 -19t-1.5 -14h267l-47 -85h-220q2 -66 43 -102.5t118 -36.5q102 0 173 53l-18 -112q-63 -41 -185 -41q-116 0 -179.5 59.5t-65.5 179.5h-85l47 85h43 l4 32q2 15 6 29h-76l46 85h53q40 108 120 172t203 64q57 0 102.5 -13.5t67.5 -29.5z" unicode="€"/>
<glyph glyph-name="trademark" horiz-adv-x="807" unicode="™" d="M772 287h-88l55 326l-162 -326h-50l-58 324l-54 -324h-71l67 399h127l45 -250l120 250h136zM364 617h-109l-55 -330h-90l55 330h-108l11 69h307z"/>
</font>
</defs>
</svg>
