<?xml version="1.0" encoding="UTF-8" standalone="no"?>
<!DOCTYPE svg  PUBLIC '-//W3C//DTD SVG 1.1//EN'  'http://www.w3.org/Graphics/SVG/1.1/DTD/svg11.dtd'>
<svg xmlns="http://www.w3.org/2000/svg">
<defs>
<font id="FranklinGothicBookC-Regular" horiz-adv-x="600">
<font-face underline-position="-50" font-weight="400" descent="-200" panose-1="0 0 5 0 0 0 0 0 0 0" units-per-em="1000" unicode-range="U+0020-2122" bbox="-64 -192 1041 899" x-height="510" underline-thickness="50" font-family="FranklinGothicBookC" ascent="800" cap-height="686"/>
<missing-glyph horiz-adv-x="1000"/>
<glyph glyph-name=".notdef" horiz-adv-x="1000"/>
<glyph glyph-name=".null" horiz-adv-x="0"/>
<glyph glyph-name="nonmarkingreturn" horiz-adv-x="333"/>
<glyph glyph-name="space" horiz-adv-x="233" unicode=" "/>
<glyph glyph-name="space" horiz-adv-x="233" unicode=" "/>
<glyph glyph-name="exclam" horiz-adv-x="300" unicode="!" d="M205 686l-36 -515h-46l-36 515h118zM199 107v-107h-106v107h106z"/>
<glyph glyph-name="quotedbl" horiz-adv-x="361" unicode='&quot;' d="M213 686h94l-27 -246h-40zM54 686h94l-27 -246h-40z"/>
<glyph glyph-name="numbersign" d="M354 270l29 159h-132l-29 -159h132zM370 0h-68l40 207h-132l-40 -207h-68l40 207h-106v63h118l29 159h-110v63h123l36 194h68l-36 -194h132l36 194h68l-36 -194h100v-63h-113l-29 -159h109v-63h-121z" unicode="#"/>
<glyph glyph-name="dollar" horiz-adv-x="583" unicode="$" d="M274 402v206q-51 -1 -82.5 -31t-31.5 -70q0 -41 31.5 -71t82.5 -34zM335 310v-223h2q56 0 92 32t36 76q0 54 -41.5 82t-88.5 33zM335 757v-83q64 -2 117 -35.5t77 -96.5l-68 -23q-13 42 -48 64.5t-78 24.5v-215q210 -35 210 -188q0 -70 -53.5 -122.5t-155.5 -61.5v-96 h-62v96q-74 5 -132 45.5t-83 112.5l68 26q17 -51 55.5 -83.5t91.5 -34.5v237q-86 19 -137 57.5t-51 113.5q0 72 51.5 123.5t136.5 55.5v83h61z"/>
<glyph glyph-name="percent" horiz-adv-x="726" unicode="%" d="M469 170q0 -128 78 -128t78 128t-78 128t-78 -128zM407 170q0 79 36.5 129.5t103.5 50.5t103.5 -50.5t36.5 -129.5t-36.5 -129.5t-103.5 -50.5t-103.5 50.5t-36.5 129.5zM607 686l-415 -686h-73l415 686h73zM257 516q0 128 -78 128t-78 -128t78 -128t78 128zM39 516 q0 79 36.5 129.5t103.5 50.5t103.5 -50.5t36.5 -129.5t-36.5 -129.5t-103.5 -50.5t-103.5 50.5t-36.5 129.5z"/>
<glyph glyph-name="ampersand" horiz-adv-x="691" unicode="&amp;" d="M294 424l20 11q4 2 19.5 10t22 12t17 12.5t17.5 18.5q18 25 18 56q0 35 -26 56.5t-67 21.5q-36 0 -58.5 -20t-22.5 -53q0 -10 2.5 -20t5 -17.5t8.5 -18.5t9 -16t11.5 -17t10.5 -16zM416 110l-160 233q-31 -8 -61 -30q-57 -42 -57 -110q0 -57 40 -98t112 -41t126 46z M566 375l74 -15q-34 -151 -124 -249q19 -25 35.5 -32t44.5 -7t56 5v-72q-75 -7 -76 -7q-14 0 -26 2.5t-19.5 5t-17.5 9t-13 9t-13 12t-12 11.5l-12 11q-78 -68 -186 -68q-109 0 -170 61t-61 141q0 21 5.5 43t21 54t53 61t93.5 48l-14 20q-57 83 -57 133q0 58 42 101.5 t123 43.5q89 0 135 -42.5t46 -102.5q0 -120 -168 -178l141 -211q75 83 99 213z"/>
<glyph glyph-name="quotesingle" horiz-adv-x="300" unicode="&apos;" d="M103 686h94l-27 -246h-40z"/>
<glyph glyph-name="parenleft" horiz-adv-x="278" unicode="(" d="M190 686h52q-126 -193 -126 -423q0 -237 127 -434h-52q-149 183 -149 430q0 103 35.5 214.5t112.5 212.5z"/>
<glyph glyph-name="parenright" horiz-adv-x="278" unicode=")" d="M36 686h52q77 -101 112.5 -212.5t35.5 -214.5q0 -247 -149 -430h-52q127 197 127 434q0 230 -126 423z"/>
<glyph glyph-name="asterisk" horiz-adv-x="546" unicode="*" d="M244 686h58l-7 -172l147 92l31 -51l-153 -80l153 -80l-31 -51l-147 92l7 -171h-58l7 171l-147 -92l-31 51l153 80l-153 80l31 51l147 -92z"/>
<glyph glyph-name="plus" horiz-adv-x="643" unicode="+" d="M289 547h65v-226h226v-65h-226v-226h-65v226h-226v65h226v226z"/>
<glyph glyph-name="comma" horiz-adv-x="258" unicode="," d="M184 99v-86l-80 -134h-38l59 121h-41v99h100z"/>
<glyph glyph-name="hyphen" horiz-adv-x="313" unicode="-" d="M263 288v-62h-213v62h213z"/>
<glyph glyph-name="hyphen" horiz-adv-x="313" unicode="­" d="M263 288v-62h-213v62h213z"/>
<glyph glyph-name="period" horiz-adv-x="259" unicode="." d="M74 113h111v-113h-111v113z"/>
<glyph glyph-name="slash" horiz-adv-x="521" unicode="/" d="M503 686l-414 -857h-68l414 857h68z"/>
<glyph glyph-name="zero" horiz-adv-x="596" unicode="0" d="M298 626q-67 0 -115 -60q-56 -71 -56 -220q0 -127 41 -203q43 -83 130 -83t130 83q41 76 41 203q0 149 -56 220q-48 60 -115 60zM298 -10q-126 0 -196 115q-10 15 -21 38t-25.5 80t-14.5 117q0 142 59 237q74 119 198 119t198 -119q59 -95 59 -237q0 -60 -14.5 -117 t-25.5 -80t-21 -38q-70 -115 -196 -115z"/>
<glyph glyph-name="one" d="M367 686v-612h189v-74h-480v74h205v508q-86 -90 -189 -146v85q133 66 210 165h65z" unicode="1"/>
<glyph glyph-name="two" d="M138 471l-80 24q12 63 50 112q69 89 198 89q98 0 161 -48q77 -58 77 -157q0 -128 -150 -243l-227 -174h378v-74h-487v71l277 218q123 96 123 197q0 62 -48 101q-43 35 -108 35q-85 0 -134 -68q-26 -37 -30 -83z" unicode="2"/>
<glyph glyph-name="three" d="M142 518l-80 22q31 74 97 117q62 39 147 39q86 0 147 -40q78 -52 78 -144q0 -57 -37.5 -98t-94.5 -54q74 -9 116.5 -57t42.5 -111q0 -92 -78 -150q-69 -52 -186 -52q-77 0 -150 39q-74 43 -104 127l80 27q14 -55 61 -87q50 -34 118 -34q81 0 125 31q48 34 48 96 q0 66 -60 102q-49 29 -137 29h-66v70h66q75 0 110 18q62 34 62 95q0 57 -45 90q-41 29 -100 29q-56 0 -98 -29q-40 -28 -62 -75z" unicode="3"/>
<glyph glyph-name="four" d="M372 230v389l-251 -389h251zM458 686v-456h112v-70h-112v-160h-86v160h-338v57l314 469h110z" unicode="4"/>
<glyph glyph-name="five" d="M507 686l-7 -74h-337l-15 -221q73 74 165 74q95 0 161 -58q78 -67 78 -175q0 -100 -70 -169q-75 -73 -194 -73q-101 0 -175 65q-45 41 -65 97l74 25q10 -32 39 -61q52 -52 131 -52q87 0 134 57q40 49 40 107q0 73 -48 118q-47 45 -113 45q-45 0 -88 -22.5t-71 -65.5 l-68 14l23 369h406z" unicode="5"/>
<glyph glyph-name="six" d="M149 211q0 -68 50 -110q45 -37 113 -37t115 44.5t47 110.5q0 65 -44.5 110t-109.5 45q-69 0 -120 -47.5t-51 -115.5zM541 544l-72 -21q-40 99 -149 99q-103 0 -155 -102q-39 -77 -39 -190v-20q28 62 84.5 100t125.5 38q94 0 159 -65t65 -159q0 -100 -72.5 -167 t-175.5 -67q-53 0 -110.5 23t-99.5 84q-62 91 -62 228q0 148 56 243q75 128 222 128q47 0 85.5 -13t61 -30t40.5 -40.5t24.5 -38t11.5 -30.5z" unicode="6"/>
<glyph glyph-name="seven" d="M531 686v-52q-110 -131 -172 -277q-72 -168 -72 -342v-15h-88q2 224 109 419q50 91 133 193h-372l9 74h453z" unicode="7"/>
<glyph glyph-name="eight" d="M321 313l-28 9q-58 -13 -105 -40q-67 -40 -67 -99q0 -46 40.5 -84.5t136.5 -38.5q95 0 138 36.5t43 80.5q0 27 -14 49.5t-39.5 39t-49.5 27t-55 20.5zM276 405l23 -7q80 17 116 48.5t36 69.5q0 46 -37 78t-115 32q-76 0 -111 -32t-35 -73q0 -31 26 -63t97 -53zM198 356 q-55 20 -92 64t-37 99q0 68 60 122.5t178 54.5q100 0 164 -46.5t64 -123.5q0 -62 -38.5 -102t-94.5 -56q163 -65 163 -184q0 -80 -67.5 -137t-191.5 -57q-127 0 -199 55.5t-72 130.5q0 69 50 114.5t113 65.5z" unicode="8"/>
<glyph glyph-name="nine" d="M284 622q-62 0 -107 -40q-51 -45 -51 -115q0 -61 41 -107q44 -48 113 -48q62 0 116.5 43t54.5 120q0 69 -47 108t-120 39zM65 128l69 25q46 -89 146 -89q95 0 147 84q29 46 37.5 97.5t9.5 130.5q-28 -62 -84.5 -100t-125.5 -38q-94 0 -159 65t-65 158q0 102 73 168.5 t177 66.5q138 0 208 -102q30 -44 46 -109t16 -124q0 -148 -56 -243q-75 -128 -222 -128q-163 0 -217 138z" unicode="9"/>
<glyph glyph-name="colon" horiz-adv-x="258" unicode=":" d="M184 508v-113h-110v113h110zM184 113v-113h-110v113h110z"/>
<glyph glyph-name="semicolon" horiz-adv-x="258" unicode=";" d="M184 508v-113h-110v113h110zM184 115v-103l-75 -141h-43l60 129h-52v115h110z"/>
<glyph glyph-name="less" d="M149 288l395 -162v-62l-489 207v34l489 207v-62z" unicode="&lt;"/>
<glyph glyph-name="equal" horiz-adv-x="643" unicode="=" d="M63 159v65h517v-65h-517zM63 353v65h517v-65h-517z"/>
<glyph glyph-name="greater" d="M447 288l-391 162v62l489 -207v-34l-489 -207v62z" unicode="&gt;"/>
<glyph glyph-name="question" horiz-adv-x="522" unicode="?" d="M285 98v-98h-102v98h102zM96 478l-75 16q12 94 75.5 148t159.5 54q58 0 103 -17.5t70.5 -46.5t38 -62t12.5 -67q0 -112 -127 -180q-58 -31 -70.5 -48t-12.5 -54v-51h-72v43v5q0 26 1.5 40.5t7 35t19.5 35.5t37 28l44 25q85 49 85 120q0 40 -23 71q-39 52 -119 52 q-85 0 -127 -69q-22 -37 -27 -78z"/>
<glyph glyph-name="at" horiz-adv-x="808" unicode="@" d="M425 466q-52 0 -90 -41q-22 -24 -35.5 -62t-13.5 -72q0 -37 21 -62q22 -25 51 -25q44 0 78 44q26 33 41 77.5t15 76.5q0 27 -19 45.5t-48 18.5zM554 80l23 -56q-78 -34 -183 -34q-127 0 -220 68q-132 98 -132 267q0 163 114 271q107 100 270 100q167 0 264 -101 q76 -79 76 -192q0 -110 -58 -178q-64 -72 -150 -72q-81 0 -99 57q-48 -57 -116 -57q-50 0 -87 35q-40 38 -40 110q0 44 23.5 96.5t73.5 89.5q51 37 103 37q80 0 104 -69l18 56h66l-78 -242q-5 -18 -5 -21q0 -41 40 -41q61 0 101 52q40 51 40 131q0 79 -43 139 q-35 48 -102.5 79t-151.5 31q-126 0 -210 -84q-83 -84 -83 -223q0 -136 84 -211q76 -68 199 -68q90 0 159 30z"/>
<glyph glyph-name="A" horiz-adv-x="560" unicode="A" d="M377 269l-102 325l-103 -325h205zM333 686l223 -686h-94l-64 199h-246l-62 -199h-78l222 686h99z"/>
<glyph glyph-name="B" horiz-adv-x="629" unicode="B" d="M174 324v-250h171q69 0 106 28q43 31 43 95q0 54 -34 88q-18 18 -43 27t-41 10.5t-43 1.5h-159zM174 612v-218h144q84 0 122 32q37 31 37 82q0 53 -40 81q-35 23 -105 23h-158zM88 686h262q99 0 149 -35q64 -45 64 -130q0 -79 -53 -123q-25 -20 -66 -33v-2q45 -9 78 -36 q64 -51 64 -141t-66 -142q-54 -44 -169 -44h-263v686z"/>
<glyph glyph-name="C" horiz-adv-x="604" unicode="C" d="M576 477l-81 -15q-10 50 -36 89q-47 71 -132 71q-102 0 -153 -91q-38 -66 -38 -181q0 -109 32 -177q52 -109 159 -109q67 0 114 51q44 51 57 116l78 -17q-17 -90 -77 -153q-68 -71 -168 -71q-144 0 -222 118q-65 100 -65 246q0 162 78 251q78 91 207 91q103 0 169 -61 q66 -63 78 -158z"/>
<glyph glyph-name="D" horiz-adv-x="668" unicode="D" d="M174 74h120q130 0 189 87q49 72 49 188q0 121 -62 193q-60 70 -169 70h-127v-538zM88 686h227q140 0 226 -97q83 -92 83 -243q0 -114 -44 -199q-76 -147 -260 -147h-232v686z"/>
<glyph glyph-name="E" horiz-adv-x="567" unicode="E" d="M88 686h434v-74h-348v-218h276v-70h-276v-250h358v-74h-444v686z"/>
<glyph glyph-name="F" horiz-adv-x="526" unicode="F" d="M508 686v-74h-334v-218h277v-70h-277v-324h-86v686h420z"/>
<glyph glyph-name="G" horiz-adv-x="670" unicode="G" d="M596 346v-351h-53l-23 85q-25 -37 -64 -59q-56 -31 -131 -31q-128 0 -206 99q-75 94 -75 247q0 61 17 126t48 111q85 123 238 123q105 0 174 -65q55 -53 68 -132l-81 -20q-6 37 -28 70q-51 73 -145 73q-105 0 -159 -95q-40 -70 -40 -191q0 -103 41 -175q57 -97 166 -97 q71 0 120 50q47 48 47 122v38h-173v72h259z"/>
<glyph glyph-name="H" horiz-adv-x="668" unicode="H" d="M580 686v-686h-86v328h-320v-328h-86v686h86v-288h320v288h86z"/>
<glyph glyph-name="I" horiz-adv-x="262" unicode="I" d="M174 686v-686h-86v686h86z"/>
<glyph glyph-name="J" horiz-adv-x="387" unicode="J" d="M306 686v-462q0 -57 -8 -94.5t-34 -70.5q-54 -69 -164 -69q-48 0 -100 14v74q41 -14 88 -14q62 0 96 31q17 15 25.5 37t9.5 37t1 43v474h86z"/>
<glyph glyph-name="K" horiz-adv-x="637" unicode="K" d="M174 686v-397h2l305 397h95l-185 -240l239 -446h-95l-204 378l-157 -195v-183h-86v686h86z"/>
<glyph glyph-name="L" horiz-adv-x="510" unicode="L" d="M174 686v-612h322v-74h-408v686h86z"/>
<glyph glyph-name="M" horiz-adv-x="840" unicode="M" d="M214 686l206 -549h2l204 549h126v-686h-86v599h-2l-220 -599h-58l-225 599h-1v-599h-72v686h126z"/>
<glyph glyph-name="N" horiz-adv-x="680" unicode="N" d="M196 686l326 -559h2q-4 23 -4 55v504h72v-686h-84l-335 575l-15 23h-2q4 -28 4 -62v-536h-72v686h108z"/>
<glyph glyph-name="O" horiz-adv-x="652" unicode="O" d="M326 622q-81 0 -133 -68q-57 -75 -57 -211t57 -211q52 -68 133 -68t133 68q57 75 57 211t-57 211q-52 68 -133 68zM326 696q110 0 184 -72q98 -96 98 -281t-98 -281q-74 -72 -184 -72t-184 72q-98 96 -98 281t98 281q74 72 184 72z"/>
<glyph glyph-name="P" horiz-adv-x="585" unicode="P" d="M174 352h134q82 0 120 34q40 37 40 102q0 60 -40 93q-38 31 -112 31h-142v-260zM88 686h227q113 0 172 -44q73 -56 73 -156q0 -96 -64 -154q-27 -24 -62 -37t-56.5 -15t-54.5 -2h-5h-144v-278h-86v686z"/>
<glyph glyph-name="Q" horiz-adv-x="652" unicode="Q" d="M326 622q-81 0 -133 -68q-57 -75 -57 -211t57 -211q52 -68 133 -68t133 68q57 75 57 211t-57 211q-52 68 -133 68zM563 -78v-72q-39 -13 -79 -13q-80 0 -121 45t-39 108h-18q-93 4 -164 71q-44 43 -71 116t-27 166q0 185 98 281q74 72 184 72t184 -72q98 -96 98 -281 q0 -183 -98 -281q-50 -48 -116 -65v-9q0 -33 22 -55q23 -22 67 -22q32 0 80 11z"/>
<glyph glyph-name="R" horiz-adv-x="637" unicode="R" d="M174 612v-243h175q73 0 112 51q23 32 23 75q0 59 -41 91q-32 26 -96 26h-173zM88 686h259q101 0 154 -38q75 -54 75 -154q0 -61 -33 -110.5t-96 -70.5l137 -313h-92l-127 295h-191v-295h-86v686z"/>
<glyph glyph-name="S" horiz-adv-x="601" unicode="S" d="M543 528l-78 -21q-15 50 -52 79q-45 36 -121 36q-57 0 -92 -22q-48 -30 -48 -89q0 -42 32.5 -64.5t90.5 -36.5l102 -25q84 -20 126 -54q63 -52 63 -135q0 -96 -76 -156q-63 -50 -172 -50q-113 0 -181 46q-80 55 -107 149l77 17q18 -60 68 -98q53 -40 135 -40 q50 0 85 12.5t51 32.5t22 37.5t6 35.5q0 86 -114 115l-114 28q-180 44 -180 182q0 92 64.5 140.5t168.5 48.5q113 0 170 -49t74 -119z"/>
<glyph glyph-name="T" horiz-adv-x="496" unicode="T" d="M11 686h474v-74h-194v-612h-86v612h-194v74z"/>
<glyph glyph-name="U" horiz-adv-x="628" unicode="U" d="M77 686h86v-432q0 -97 27 -136q36 -54 133 -54q82 0 122 50q34 43 34 140v432h72v-434q0 -37 -2 -62t-14 -61t-34 -63q-63 -76 -187 -76q-125 0 -183 66q-25 27 -37.5 65.5t-14.5 64t-2 66.5v434z"/>
<glyph glyph-name="V" horiz-adv-x="553" unicode="V" d="M4 686h90l190 -566l189 566h76l-232 -686h-82z"/>
<glyph glyph-name="W" horiz-adv-x="846" unicode="W" d="M20 686h90l138 -556l147 556h70l157 -556l128 556h76l-167 -686h-86l-149 532l-141 -532h-86z"/>
<glyph glyph-name="X" horiz-adv-x="554" unicode="X" d="M38 686h96l149 -254l149 254h88l-193 -317l217 -369h-96l-172 292l-178 -292h-88l223 358z"/>
<glyph glyph-name="Y" horiz-adv-x="522" unicode="Y" d="M533 686l-229 -397v-289h-86v289l-229 397h100l182 -316l184 316h78z"/>
<glyph glyph-name="Z" horiz-adv-x="538" unicode="Z" d="M46 686h456v-57l-377 -555h388v-74h-484v72l371 540h-354v74z"/>
<glyph glyph-name="bracketleft" horiz-adv-x="279" unicode="[" d="M249 686v-54h-109v-749h109v-54h-179v857h179z"/>
<glyph glyph-name="backslash" horiz-adv-x="521" unicode="\" d="M87 686l414 -686h-68l-414 686h68z"/>
<glyph glyph-name="bracketright" horiz-adv-x="279" unicode="]" d="M30 686h179v-857h-179v54h109v749h-109v54z"/>
<glyph glyph-name="asciicircum" horiz-adv-x="599" unicode="^" d="M300 591l-136 -333h-60l173 428h46l173 -428h-60z"/>
<glyph glyph-name="underscore" horiz-adv-x="500" unicode="_" d="M500 -65v-62h-500v62h500z"/>
<glyph glyph-name="grave" horiz-adv-x="380" unicode="`" d="M103 738l201 -119l-20 -40l-215 94z"/>
<glyph glyph-name="a" horiz-adv-x="544" unicode="a" d="M395 253h-65q-107 0 -154 -25q-52 -27 -52 -85q0 -44 37 -68q27 -19 73 -19q74 0 121 57q40 49 40 115v25zM127 369l-73 12q16 77 70.5 108t145.5 31q99 0 145 -37q26 -21 39 -54t15 -58t2 -68v-196q0 -49 13 -107h-80q-7 43 -9 95q-51 -105 -178 -105q-82 0 -131 45 q-46 42 -46 108q0 83 69 129q29 20 69.5 30t70 11.5t80.5 1.5h66v21q0 58 -20 85q-27 37 -106 37q-129 0 -142 -89z"/>
<glyph glyph-name="b" horiz-adv-x="553" unicode="b" d="M157 312v-98q0 -70 38.5 -114t96.5 -44q66 0 102 60q31 50 31 141q0 93 -30 140q-35 57 -105 57q-54 0 -92 -38q-41 -41 -41 -104zM157 686v-262q48 96 156 96q84 0 137 -59q63 -70 63 -203q0 -118 -55 -192q-57 -76 -152 -76q-54 0 -95.5 25.5t-63.5 70.5 q-25 -70 -30 -86h-36v686h76z"/>
<glyph glyph-name="c" horiz-adv-x="482" unicode="c" d="M452 345l-72 -13q-7 46 -28 77q-31 45 -93 45q-63 0 -98 -57q-33 -53 -33 -144q0 -102 33 -146q35 -51 97 -51q56 0 89 42q26 33 33 83l72 -13q-11 -75 -58 -124q-53 -54 -138 -54q-84 0 -140 50q-76 70 -76 214q0 109 53 183q61 83 168 83q88 0 139 -58q41 -46 52 -117z "/>
<glyph glyph-name="d" horiz-adv-x="553" unicode="d" d="M396 207v107q0 56 -36 97q-37 43 -98 43q-66 0 -103 -57q-31 -49 -31 -140q0 -89 30 -141q35 -60 100 -60t104 50q34 45 34 101zM396 686h76v-686h-70v86h-2q-9 -26 -32 -49q-47 -47 -120 -47q-95 0 -153 76q-55 73 -55 185q0 139 68 210q56 59 141 59q63 0 108 -35 q23 -18 39 -43v244z"/>
<glyph glyph-name="e" horiz-adv-x="533" unicode="e" d="M132 306h278q-2 56 -24 93q-36 59 -108 59q-68 0 -111 -52q-33 -43 -35 -100zM415 154l74 -15q-22 -68 -83 -111q-56 -38 -131 -38q-108 0 -173 74q-62 70 -62 187q0 111 61.5 190t175.5 79q54 0 95.5 -19.5t64.5 -47.5t37.5 -65t19 -67t4.5 -59v-18h-370v-7 q0 -50 17 -92q36 -89 133 -89q66 0 106 44q20 22 31 54z"/>
<glyph glyph-name="f" horiz-adv-x="299" unicode="f" d="M324 689v-62q-34 7 -65 7q-43 0 -63 -21q-22 -23 -22 -69v-34h120v-62h-120v-448h-76v448h-90v62h90v14q0 99 46 140q37 32 106 32q37 0 74 -7z"/>
<glyph glyph-name="g" horiz-adv-x="507" unicode="g" d="M281 14l-122 6q-54 -23 -54 -65q0 -33 34.5 -59t124.5 -26q68 0 110 13q34 11 48 29.5t14 35.5q0 15 -5 25.5t-18 17.5t-23 11t-34 6.5t-34.5 3.5t-40.5 2zM254 235q28 0 49.5 9.5t32.5 22.5t17.5 30t8.5 28.5t2 22.5q0 49 -30 79q-30 31 -79 31q-34 0 -61 -15 q-53 -31 -53 -96q0 -53 33 -84q30 -28 80 -28zM495 586v-62h-14q-3 0 -9.5 0.5t-9.5 0.5q-33 0 -49 -23q-7 -10 -16 -37q49 -49 49 -125q0 -66 -49 -115q-52 -52 -132 -52q-14 0 -40 4q-28 5 -34 5q-28 0 -43 -11q-19 -14 -19 -36q0 -43 67 -47l106 -5q101 -5 134 -18 q38 -15 58 -45t20 -65q0 -78 -76 -117q-59 -30 -175 -30q-113 0 -174.5 34t-61.5 98q0 39 21 65.5t56 37.5q-49 26 -49 80q0 30 17.5 55.5t52.5 35.5v2q-66 47 -66 132q0 71 52 121q53 51 143 51q55 0 103 -21q7 65 65 83q19 6 49 6q12 0 18 -1z"/>
<glyph glyph-name="h" horiz-adv-x="562" unicode="h" d="M157 686v-272q50 106 165 106q79 0 120 -47q39 -43 39 -138v-335h-76v316q0 77 -21 105q-24 33 -76 33q-67 0 -110 -53q-41 -50 -41 -140v-261h-76v686h76z"/>
<glyph glyph-name="i" horiz-adv-x="238" unicode="i" d="M161 686v-88h-84v88h84zM157 510v-510h-76v510h76z"/>
<glyph glyph-name="j" horiz-adv-x="237" unicode="j" d="M160 686v-88h-84v88h84zM156 510v-515q0 -116 -60 -151q-33 -19 -89 -19q-37 0 -71 9v60q34 -7 58 -7q52 0 72 30q14 22 14 74v519h76z"/>
<glyph glyph-name="k" horiz-adv-x="510" unicode="k" d="M157 686v-439l235 263h84l-157 -178l178 -332h-84l-148 278l-108 -121v-157h-76v686h76z"/>
<glyph glyph-name="l" horiz-adv-x="238" unicode="l" d="M157 686v-686h-76v686h76z"/>
<glyph glyph-name="m" horiz-adv-x="844" unicode="m" d="M157 0h-76v508h69v-98h1q22 49 63 79.5t92 30.5q68 0 107 -47q25 -30 34 -73q17 45 51 77q46 43 113 43q72 0 112 -46t40 -135v-339h-76v320v14q0 60 -20 87q-24 33 -71 33q-52 0 -89 -36q-47 -45 -47 -125v-293h-76v320q0 69 -24 101q-25 33 -75 33q-45 0 -78 -29 q-50 -45 -50 -132v-293z"/>
<glyph glyph-name="n" horiz-adv-x="562" unicode="n" d="M157 0h-76v508h70v-94h2q23 50 67 78t102 28q77 0 120 -47q39 -43 39 -138v-335h-76v316q0 77 -21 105q-26 33 -78 33q-55 0 -95 -37q-54 -50 -54 -148v-269z"/>
<glyph glyph-name="o" horiz-adv-x="540" unicode="o" d="M270 56q57 0 93 36q49 49 49 163t-49 163q-36 36 -93 36t-93 -36q-49 -49 -49 -163t49 -163q36 -36 93 -36zM40 255q0 133 77 207q62 58 153 58t153 -58q77 -74 77 -207t-77 -207q-62 -58 -153 -58t-153 58q-77 74 -77 207z"/>
<glyph glyph-name="p" horiz-adv-x="549" unicode="p" d="M157 309v-107q0 -62 36 -103q39 -43 97 -43q64 0 100 60q31 50 31 141q0 93 -30 140q-35 57 -100 57q-53 0 -92 -40q-42 -45 -42 -105zM157 -166h-76v676h70v-96l1 1q18 43 56.5 74t95.5 31q89 0 141 -59q64 -71 64 -203q0 -119 -54 -192q-55 -76 -151 -76 q-104 0 -144 90h-3v-246z"/>
<glyph glyph-name="q" horiz-adv-x="557" unicode="q" d="M396 227v72q0 58 -35 105q-38 50 -99 50q-63 0 -100 -57q-34 -51 -34 -140t30 -141q34 -60 99 -60q71 0 111 67q28 47 28 104zM472 -166h-76v252h-3q-12 -33 -40 -56q-47 -40 -114 -40q-92 0 -146 76q-53 74 -53 192q0 132 68 203q55 59 142 59q67 0 109 -35 q27 -22 43 -55l30 80h44q-4 -30 -4 -61v-615z"/>
<glyph glyph-name="r" horiz-adv-x="340" unicode="r" d="M81 510h70v-121h2q15 63 57 99q38 33 90 33q19 0 29 -2v-74h-16q-75 -3 -119 -58q-37 -47 -37 -131v-256h-76v510z"/>
<glyph glyph-name="s" horiz-adv-x="489" unicode="s" d="M442 393l-72 -15q-12 37 -44.5 58.5t-79.5 21.5q-60 0 -83.5 -24.5t-23.5 -53.5q0 -54 85 -69q3 -1 5 -1l69 -13q89 -16 125 -49q41 -39 41 -105t-50 -109q-52 -44 -153 -44q-89 0 -141 28q-71 38 -90 117l76 15q8 -38 36 -63q44 -35 115 -35q58 0 89 24q30 22 30 61 q0 17 -6.5 30t-15 20.5t-24.5 14t-25.5 8.5t-27.5 6l-77 15q-149 28 -149 142q0 64 46 103q51 44 148 44q99 0 151 -50q33 -31 46 -77z"/>
<glyph glyph-name="t" horiz-adv-x="316" unicode="t" d="M170 646v-136h115v-62h-115v-301q0 -50 24 -72q21 -19 62 -19q21 0 57 6v-62q-35 -6 -73 -6q-76 0 -112 36q-34 35 -34 106v312h-89v62h89v128z"/>
<glyph glyph-name="u" horiz-adv-x="558" unicode="u" d="M477 510v-510h-70v101h-2q-20 -54 -62.5 -82.5t-94.5 -28.5q-76 0 -120 50q-47 54 -47 153v317h76v-317q0 -74 26 -105q26 -32 77 -32q59 0 100 48t41 135v271h76z"/>
<glyph glyph-name="v" horiz-adv-x="464" unicode="v" d="M451 510l-175 -510h-82l-181 510h88l139 -415h2l139 415h70z"/>
<glyph glyph-name="w" horiz-adv-x="691" unicode="w" d="M671 510l-151 -510h-64l-112 376l-1 1l-105 -377h-64l-154 510h84l105 -381h2l105 381h64l110 -381h2l109 381h70z"/>
<glyph glyph-name="x" horiz-adv-x="437" unicode="x" d="M20 510h92l107 -176l111 176h76l-148 -230l175 -280h-92l-128 206l-133 -206h-76l170 263z"/>
<glyph glyph-name="y" horiz-adv-x="427" unicode="y" d="M437 510l-201 -558q-21 -59 -54 -91q-40 -37 -95 -37q-35 0 -64 10v59q24 -7 55 -7q37 0 57 17q25 21 48 89l6 17l-179 501h88l132 -392l137 392h70z"/>
<glyph glyph-name="z" horiz-adv-x="437" unicode="z" d="M409 510v-43l-279 -405h279v-62h-374v61l270 387h-249v62h353z"/>
<glyph glyph-name="braceleft" horiz-adv-x="288" unicode="{" d="M280 696v-60h-24q-19 0 -31 -4.5t-16.5 -13.5t-6 -17t-1.5 -20v-8v-162q0 -86 -73 -147v-1q73 -46 73 -147v-162q0 -64 52 -64h27v-60h-46q-108 0 -108 115v155q0 74 -22 103.5t-51 29.5h-6v60h5q74 0 74 132v157q0 18 1 30t7 29.5t16.5 28t31 18.5t49.5 8h49z"/>
<glyph glyph-name="bar" horiz-adv-x="506" unicode="|" d="M283 686v-686h-60v686h60z"/>
<glyph glyph-name="braceright" horiz-adv-x="288" unicode="}" d="M8 696h55q34 0 56 -11.5t30.5 -33t10.5 -35.5t2 -34v-157q0 -132 74 -132h5v-60h-6q-29 0 -51 -29.5t-22 -103.5v-156q0 -114 -108 -114h-46v60h27q52 0 52 64v162q0 101 73 147v1q-73 61 -73 147v162v8q0 15 -2 25t-13.5 20t-33.5 10h-30v60z"/>
<glyph glyph-name="asciitilde" horiz-adv-x="631" unicode="~" d="M109 217l-46 30q24 60 59 90q37 32 85 32q10 0 32 -4q25 -5 56 -19l28 -13q4 -2 18 -8.5t20.5 -9t18.5 -7t23 -6t23 -1.5q33 0 57 20q23 20 38 50l47 -28q-25 -54 -59 -84q-40 -35 -89 -35q-32 0 -69 15q-32 14 -48 22l-27 13q-40 19 -72 19q-31 0 -56 -22 q-21 -19 -39 -54z"/>
<glyph glyph-name="currency" horiz-adv-x="574" unicode="¤" d="M175 341q0 -47 32.5 -79.5t79.5 -32.5t79.5 32.5t32.5 79.5t-32.5 79.5t-79.5 32.5t-79.5 -32.5t-32.5 -79.5zM89 191l52 52q-32 41 -32 98t32 98l-52 52l46 46l52 -52q39 34 100 34t100 -34l52 52l46 -46l-52 -52q32 -41 32 -98t-32 -98l52 -52l-46 -46l-52 52 q-41 -34 -100 -34t-100 34l-52 -52z"/>
<glyph glyph-name="brokenbar" horiz-adv-x="506" unicode="¦" d="M283 686v-275h-60v275h60zM283 275v-275h-60v275h60z"/>
<glyph glyph-name="section" horiz-adv-x="612" unicode="§" d="M340 354l-88 31q-16 -7 -31.5 -18t-31.5 -34t-16 -49q0 -15 3 -27t12.5 -21.5t14.5 -15.5t22.5 -13.5l21 -9t25.5 -8.5l22 -7l75 -24q35 16 54 46t19 60q0 11 -3 20.5t-7 16.5t-12.5 14t-13.5 11t-17 9.5t-16 7t-18 6.5t-15 5zM510 562l-76 -8q-35 76 -132 76 q-51 0 -80 -24.5t-29 -53.5q0 -14 4.5 -26t9.5 -20.5t17 -17.5t18 -14t23 -11.5t21.5 -8.5t22.5 -8t19 -6l62 -20q29 -10 46.5 -17.5t41.5 -23.5t36 -40t12 -57q0 -82 -81 -144q46 -18 72 -57t26 -87q0 -70 -64.5 -126t-171.5 -56q-26 0 -51.5 4t-64 17t-71 46t-51.5 82 l88 13q20 -46 61 -71t92 -25q62 0 103.5 30.5t41.5 74.5q0 25 -10.5 44t-31 30.5t-36 17t-39.5 11.5l-80 21q-36 9 -57.5 17t-51.5 24.5t-45 44t-15 64.5q0 52 29 90.5t69 59.5q-82 41 -82 134q0 62 46.5 108.5t145.5 46.5q24 0 47 -4t58 -15.5t64 -41t44 -73.5z"/>
<glyph glyph-name="copyright" horiz-adv-x="770" unicode="©" d="M695 343q0 127 -91.5 218.5t-218.5 91.5t-218.5 -91.5t-91.5 -218.5t91.5 -218.5t218.5 -91.5t218.5 91.5t91.5 218.5zM23 343q0 151 105.5 256.5t256.5 105.5t256.5 -105.5t105.5 -256.5t-105.5 -256.5t-256.5 -105.5t-256.5 105.5t-105.5 256.5zM486 280l60 -13 q-14 -57 -47 -93q-44 -49 -121 -49q-75 0 -122 50q-60 63 -60 178q0 100 58 158q50 50 128 50q75 0 121 -50q29 -33 43 -88l-62 -12q-15 43 -26 59q-26 39 -77 39q-49 0 -77 -33q-38 -45 -38 -136q0 -82 38 -128q29 -35 74 -35q50 0 79 36q11 13 29 67z"/>
<glyph glyph-name="guillemotleft" horiz-adv-x="353" unicode="«" d="M251 257l53 -146h-44l-87 146l87 142h44zM120 257l53 -146h-44l-87 146l87 142h44z"/>
<glyph glyph-name="logicalnot" d="M559 386v-270h-65v205h-453v65h518z" unicode="¬"/>
<glyph glyph-name="registered" horiz-adv-x="770" unicode="®" d="M695 343q0 127 -91.5 218.5t-218.5 91.5t-218.5 -91.5t-91.5 -218.5t91.5 -218.5t218.5 -91.5t218.5 91.5t91.5 218.5zM23 343q0 151 105.5 256.5t256.5 105.5t256.5 -105.5t105.5 -256.5t-105.5 -256.5t-256.5 -105.5t-256.5 105.5t-105.5 256.5zM291 361h108 q43 0 65 23q19 20 19 51t-22 49q-20 17 -55 17h-115v-140zM229 553h177q58 0 94 -26q49 -34 49 -93q0 -48 -32 -80q-19 -19 -48 -28l86 -193h-68l-81 179h-115v-179h-62v420z"/>
<glyph glyph-name="degree" horiz-adv-x="399" unicode="°" d="M110 546q0 -38 26 -64t64 -26t64 26t26 64t-26 64t-64 26t-64 -26t-26 -64zM50 546q0 62 44 106t106 44t106 -44t44 -106t-44 -106t-106 -44t-106 44t-44 106z"/>
<glyph glyph-name="plusminus" horiz-adv-x="643" unicode="±" d="M63 0v65h517v-65h-517zM289 632h65v-226h226v-65h-226v-226h-65v226h-226v65h226v226z"/>
<glyph glyph-name="mu" horiz-adv-x="515" unicode="µ" d="M455 510v-510h-69v101l-1 1q-23 -53 -66.5 -82.5t-88.5 -29.5h-2q-46 0 -92 24v-180h-76v676h76v-311q0 -141 99 -141q58 0 101 47.5t43 132.5v272h76z"/>
<glyph glyph-name="mu" horiz-adv-x="515" unicode="μ" d="M455 510v-510h-69v101l-1 1q-23 -53 -66.5 -82.5t-88.5 -29.5h-2q-46 0 -92 24v-180h-76v676h76v-311q0 -141 99 -141q58 0 101 47.5t43 132.5v272h76z"/>
<glyph glyph-name="paragraph" horiz-adv-x="579" unicode="¶" d="M524 686v-65h-58v-809h-65v809h-81v-809h-65v403q-78 3 -132 53q-73 66 -73 180q0 106 74 178q28 27 62.5 41t58.5 16.5t65 2.5h214z"/>
<glyph glyph-name="guillemotright" horiz-adv-x="353" unicode="»" d="M233 257l-53 142h44l87 -142l-87 -146h-44zM102 257l-53 142h44l87 -142l-87 -146h-44z"/>
<glyph glyph-name="afii10023" horiz-adv-x="567" unicode="Ё" d="M444 836v-95h-95v95h95zM250 836v-95h-95v95h95zM88 686h434v-74h-348v-218h276v-70h-276v-250h358v-74h-444v686z"/>
<glyph glyph-name="afii10051" horiz-adv-x="698" unicode="Ђ" d="M11 686h476v-74h-205v-235q82 32 155 32q107 0 167 -67q54 -60 54 -146q0 -87 -42 -139q-55 -67 -166 -67q-51 0 -98 14l19 70q27 -10 69 -10q72 0 105 39q27 31 27 87q0 58 -29 95q-39 50 -126 50q-73 0 -135 -30v-305h-86v612h-185v74z"/>
<glyph glyph-name="afii10052" horiz-adv-x="496" unicode="Ѓ" d="M359 899l34 -65l-215 -94l-20 40zM88 686h408v-74h-322v-612h-86v686z"/>
<glyph glyph-name="afii10053" horiz-adv-x="608" unicode="Є" d="M568 495l-84 -15q-15 52 -51 89q-50 53 -120 53q-83 0 -131 -68q-44 -63 -44 -160h278v-74h-280q0 -97 32 -158q51 -98 153 -98q72 0 124 60q30 35 42 77l87 -17q-20 -79 -78 -132q-69 -62 -170 -62q-152 0 -227 124q-55 90 -55 243q0 181 84 268q69 71 182 71 q111 0 181 -68q50 -49 77 -133z"/>
<glyph glyph-name="afii10054" horiz-adv-x="601" unicode="Ѕ" d="M543 528l-78 -21q-15 50 -52 79q-45 36 -121 36q-57 0 -92 -22q-48 -30 -48 -89q0 -42 32.5 -64.5t90.5 -36.5l102 -25q84 -20 126 -54q63 -52 63 -135q0 -96 -76 -156q-63 -50 -172 -50q-113 0 -181 46q-80 55 -107 149l77 17q18 -60 68 -98q53 -40 135 -40 q50 0 85 12.5t51 32.5t22 37.5t6 35.5q0 86 -114 115l-114 28q-180 44 -180 182q0 92 64.5 140.5t168.5 48.5q113 0 170 -49t74 -119z"/>
<glyph glyph-name="afii10055" horiz-adv-x="262" unicode="І" d="M174 686v-686h-86v686h86z"/>
<glyph glyph-name="afii10056" horiz-adv-x="274" unicode="Ї" d="M105 836v-95h-80v95h80zM249 836v-95h-80v95h80zM180 686v-686h-86v686h86z"/>
<glyph glyph-name="afii10057" horiz-adv-x="387" unicode="Ј" d="M306 686v-462q0 -57 -8 -94.5t-34 -70.5q-54 -69 -164 -69q-48 0 -100 14v74q41 -14 88 -14q62 0 96 31q17 15 25.5 37t9.5 37t1 43v474h86z"/>
<glyph glyph-name="afii10058" horiz-adv-x="984" unicode="Љ" d="M554 317v-243h173q20 0 33 1t34.5 7t34.5 17.5t23 35.5t10 57q0 54 -31 89.5t-120 35.5h-157zM155 686h399v-295h151q243 0 243 -197q0 -22 -3 -43t-16 -50t-34.5 -50t-63 -36t-97.5 -15h-266v612h-234q-2 -229 -27 -382q-6 -35 -12.5 -63t-20 -61.5t-31 -55.5t-46 -37.5 t-64.5 -15.5q-16 0 -31 3v79l16 -2q2 0 5 -0.5t5 -0.5q23 0 41 13.5t31 40.5t22.5 57.5t15.5 76t9.5 83t5 92t2 90t0.5 88.5v38v31z"/>
<glyph glyph-name="afii10059" horiz-adv-x="1010" unicode="Њ" d="M580 317v-243h173q20 0 33 1t34.5 7t34.5 17.5t23 35.5t10 57q0 54 -31 89.5t-120 35.5h-157zM88 686h86v-288h320v288h86v-295h151q243 0 243 -197q0 -22 -3 -43t-16 -50t-34.5 -50t-63 -36t-97.5 -15h-266v328h-320v-328h-86v686z"/>
<glyph glyph-name="afii10060" horiz-adv-x="725" unicode="Ћ" d="M11 686h476v-74h-205v-235q81 28 155 28q109 0 163 -52q55 -52 55 -142v-211h-86v190q0 27 -4.5 47t-18 44t-45.5 37t-80 13q-70 0 -139 -26v-305h-86v612h-185v74z"/>
<glyph glyph-name="afii10061" horiz-adv-x="630" unicode="Ќ" d="M402 899l34 -65l-215 -94l-20 40zM174 393h95q77 0 108 51q16 26 31 94t25 90q31 68 105 68q18 0 32 -4v-68q-14 2 -22 2q-20 0 -38 -22q-13 -17 -26 -78t-19 -78q-26 -69 -84 -80v-3q72 -10 103 -81q11 -24 23.5 -78.5t28.5 -99.5q7 -20 17 -31t28 -11q13 0 19 2v-66 q-17 -10 -43 -10q-59 0 -91 55q-20 36 -40 127q-20 79 -30 97q-13 25 -37.5 37.5t-42.5 14.5t-48 2h-94v-323h-86v686h86v-293z"/>
<glyph glyph-name="afii10062" horiz-adv-x="535" unicode="Ў" d="M363 856h76q-4 -53 -43 -88q-42 -37 -114 -37t-114 37q-39 35 -43 88h76q1 -31 24 -48t57 -17t57 17t24 48zM10 686h90l195 -413h1l161 413h76l-204 -507q-34 -87 -59 -119q-11 -15 -24 -26q-48 -42 -111 -42q-24 0 -46 8v73q18 -7 38 -7q48 0 78 28q29 26 46 85z"/>
<glyph glyph-name="afii10145" horiz-adv-x="656" unicode="Џ" d="M87 686h86v-611h310v611h86v-686h-201v-180h-80v180h-201v686z"/>
<glyph glyph-name="afii10017" horiz-adv-x="560" unicode="А" d="M377 269l-102 325l-103 -325h205zM333 686l223 -686h-94l-64 199h-246l-62 -199h-78l222 686h99z"/>
<glyph glyph-name="afii10018" horiz-adv-x="638" unicode="Б" d="M174 327v-253h200q59 0 89 31q33 35 33 98q0 60 -37 93q-35 31 -114 31h-171zM517 686v-74h-343v-211h171q127 0 182 -48q61 -53 61 -149q0 -91 -54 -149q-51 -55 -140 -55h-306v686h429z"/>
<glyph glyph-name="afii10019" horiz-adv-x="629" unicode="В" d="M174 324v-250h171q69 0 106 28q43 31 43 95q0 54 -34 88q-18 18 -43 27t-41 10.5t-43 1.5h-159zM174 612v-218h144q84 0 122 32q37 31 37 82q0 53 -40 81q-35 23 -105 23h-158zM88 686h262q99 0 149 -35q64 -45 64 -130q0 -79 -53 -123q-25 -20 -66 -33v-2q45 -9 78 -36 q64 -51 64 -141t-66 -142q-54 -44 -169 -44h-263v686z"/>
<glyph glyph-name="afii10020" horiz-adv-x="506" unicode="Г" d="M88 686h408v-74h-322v-612h-86v686z"/>
<glyph glyph-name="afii10021" horiz-adv-x="657" unicode="Д" d="M261 612l-3 -42q-6 -89 -13.5 -148.5t-35 -159.5t-73.5 -188h335v538h-210zM189 686h368v-612h80v-228h-80v154h-470v-154h-80v228h43q59 111 86.5 207.5t42.5 233.5q5 46 9 150z"/>
<glyph glyph-name="afii10022" horiz-adv-x="567" unicode="Е" d="M88 686h434v-74h-348v-218h276v-70h-276v-250h358v-74h-444v686z"/>
<glyph glyph-name="afii10024" horiz-adv-x="920" unicode="Ж" d="M417 686h86v-293h47q53 0 90 33q26 22 39 73q21 86 28 105q32 86 109 86q21 0 37 -4v-67q-5 1 -14 1q-19 0 -31 -10q-18 -15 -28 -49q-2 -5 -11.5 -45t-19.5 -67q-13 -34 -30.5 -52t-54.5 -29v-3q72 -8 108 -79q11 -23 22 -60q11 -36 20 -67.5t14 -47.5q5 -14 8 -20.5 t12.5 -13.5t23.5 -7q12 0 18 1v-67q-21 -8 -45 -8q-52 0 -83 44q-28 40 -54 152q-17 70 -37 95q-7 9 -16 15q-29 21 -86 21h-66v-323h-86v323h-66q-57 0 -86 -21q-7 -6 -13.5 -13t-11.5 -16.5t-8.5 -16t-7 -18.5t-5 -16t-4.5 -17l-3 -13q-26 -112 -54 -152q-31 -44 -83 -44 q-24 0 -45 8v67q6 -1 18 -1q14 0 23.5 7t12.5 13.5t8 20.5q5 16 14 47.5t20 67.5q11 37 22 60q36 71 108 79v3q-37 11 -54.5 29t-30.5 52q-10 27 -19.5 67t-11.5 45q-10 34 -28 49q-12 10 -31 10q-9 0 -14 -1v67q16 4 37 4q77 0 109 -86q7 -19 28 -105q13 -51 39 -73 q37 -33 90 -33h47v293z"/>
<glyph glyph-name="afii10025" horiz-adv-x="616" unicode="З" d="M213 323v70h87q82 0 113 24q40 31 40 93q0 55 -44 86q-37 26 -99 26q-72 0 -122 -36q-40 -29 -62 -89l-77 21q23 78 86 126q68 52 168 52q97 0 157 -38q79 -49 79 -133q0 -51 -26 -94q-30 -50 -91 -63v-2q58 -6 96 -42q48 -45 48 -121q0 -99 -73 -160q-64 -53 -186 -53 q-120 0 -184 51q-65 51 -85 142l83 18q13 -53 50 -88q50 -49 139 -49q77 0 121 38q43 38 43 94q0 69 -51 101q-43 26 -115 26h-95z"/>
<glyph glyph-name="afii10026" horiz-adv-x="678" unicode="И" d="M88 686h86v-461q0 -21 -3 -63q22 39 26 45l307 432v47h86v-686h-86v463q0 9 3 72q-12 -23 -26 -45l-307 -430v-60h-86v686z"/>
<glyph glyph-name="afii10027" horiz-adv-x="678" unicode="Й" d="M420 856h76q-4 -53 -43 -88q-42 -37 -114 -37t-114 37q-39 35 -43 88h76q1 -31 24 -48t57 -17t57 17t24 48zM88 686h86v-461q0 -21 -3 -63q7 12 10.5 19t4 8.5t2.5 4.5t9 13l307 432v47h86v-686h-86v446q0 44 3 89q-12 -23 -26 -45l-307 -430v-60h-86v686z"/>
<glyph glyph-name="afii10028" horiz-adv-x="630" unicode="К" d="M174 393h95q77 0 108 51q16 26 31 94t25 90q31 68 105 68q18 0 32 -4v-68q-14 2 -22 2q-20 0 -38 -22q-13 -17 -26 -78t-19 -78q-26 -69 -84 -80v-3q72 -10 103 -81q11 -24 23.5 -78.5t28.5 -99.5q7 -20 17 -31t28 -11q13 0 19 2v-66q-17 -10 -43 -10q-59 0 -91 55 q-20 36 -40 127q-20 79 -30 97q-13 25 -37.5 37.5t-42.5 14.5t-48 2h-94v-323h-86v686h86v-293z"/>
<glyph glyph-name="afii10029" horiz-adv-x="650" unicode="Л" d="M163 686h399v-686h-86v612h-234q0 -480 -106 -579q-40 -37 -95 -37q-18 0 -31 4v79q12 -2 17 -2q52 0 81 51q55 96 55 527v31z"/>
<glyph glyph-name="afii10030" horiz-adv-x="840" unicode="М" d="M214 686l206 -549h2l204 549h126v-686h-86v599h-2l-220 -599h-58l-225 599h-1v-599h-72v686h126z"/>
<glyph glyph-name="afii10031" horiz-adv-x="668" unicode="Н" d="M580 686v-686h-86v328h-320v-328h-86v686h86v-288h320v288h86z"/>
<glyph glyph-name="afii10032" horiz-adv-x="652" unicode="О" d="M326 622q-81 0 -133 -68q-57 -75 -57 -211t57 -211q52 -68 133 -68t133 68q57 75 57 211t-57 211q-52 68 -133 68zM326 696q110 0 184 -72q98 -96 98 -281t-98 -281q-74 -72 -184 -72t-184 72q-98 96 -98 281t98 281q74 72 184 72z"/>
<glyph glyph-name="afii10033" horiz-adv-x="658" unicode="П" d="M88 686h482v-686h-86v612h-310v-612h-86v686z"/>
<glyph glyph-name="afii10034" horiz-adv-x="585" unicode="Р" d="M174 352h134q82 0 120 34q40 37 40 102q0 60 -40 93q-38 31 -112 31h-142v-260zM88 686h227q113 0 172 -44q73 -56 73 -156q0 -96 -64 -154q-27 -24 -62 -37t-56.5 -15t-54.5 -2h-5h-144v-278h-86v686z"/>
<glyph glyph-name="afii10035" horiz-adv-x="604" unicode="С" d="M576 477l-81 -15q-10 50 -36 89q-47 71 -132 71q-102 0 -153 -91q-38 -66 -38 -181q0 -109 32 -177q52 -109 159 -109q67 0 114 51q44 51 57 116l78 -17q-17 -90 -77 -153q-68 -71 -168 -71q-144 0 -222 118q-65 100 -65 246q0 162 78 251q78 91 207 91q103 0 169 -61 q66 -63 78 -158z"/>
<glyph glyph-name="afii10036" horiz-adv-x="496" unicode="Т" d="M11 686h474v-74h-194v-612h-86v612h-194v74z"/>
<glyph glyph-name="afii10037" horiz-adv-x="535" unicode="У" d="M10 686h90l195 -413h1l161 413h76l-204 -507q-34 -87 -59 -119q-11 -15 -24 -26q-48 -42 -111 -42q-24 0 -46 8v73q18 -7 38 -7q48 0 78 28q29 26 46 85z"/>
<glyph glyph-name="afii10038" horiz-adv-x="784" unicode="Ф" d="M432 533v-364h12q74 0 121 23q87 44 87 155q0 98 -65 147q-52 39 -145 39h-10zM352 169v364h-10q-93 0 -145 -39q-65 -49 -65 -147q0 -111 87 -155q47 -23 121 -23h12zM349 705h86v-100h11q127 0 203 -59q40 -32 65.5 -82.5t25.5 -114.5q0 -48 -15.5 -90t-29.5 -60 t-28 -31q-77 -71 -232 -71v-107h-86v107q-155 0 -232 71q-14 13 -28 31t-29.5 60t-15.5 90q0 64 25.5 114.5t65.5 82.5q76 59 203 59h11v100z"/>
<glyph glyph-name="afii10039" horiz-adv-x="540" unicode="Х" d="M31 686h96l149 -254l149 254h88l-193 -317l217 -369h-96l-172 292l-178 -292h-88l223 358z"/>
<glyph glyph-name="afii10040" horiz-adv-x="670" unicode="Ц" d="M88 686h86v-612h310v612h86v-612h80v-224h-80v150h-482v686z"/>
<glyph glyph-name="afii10041" horiz-adv-x="618" unicode="Ч" d="M60 686h86v-204q0 -18 1 -28t5.5 -28t17.5 -30.5t34 -19.5q22 -8 80 -8q81 0 160 13v305h86v-686h-86v307q-95 -13 -151 -13q-112 0 -165 31q-68 39 -68 138v223z"/>
<glyph glyph-name="afii10042" horiz-adv-x="908" unicode="Ш" d="M88 686h86v-612h237v612h86v-612h237v612h86v-686h-732v686z"/>
<glyph glyph-name="afii10043" horiz-adv-x="920" unicode="Щ" d="M88 686h86v-612h237v612h86v-612h237v612h86v-612h80v-224h-80v150h-732v686z"/>
<glyph glyph-name="afii10044" horiz-adv-x="713" unicode="Ъ" d="M279 317v-243h171h10q62 0 92 28q33 31 33 90q0 64 -37 95q-36 30 -114 30h-155zM-10 686h289v-295h155q127 0 182 -48q27 -24 44 -64t17 -85q0 -86 -54 -142q-33 -34 -70 -43t-90 -9h-270v612h-203v74z"/>
<glyph glyph-name="afii10045" horiz-adv-x="820" unicode="Ы" d="M646 686h86v-686h-86v686zM174 317v-243h182q62 0 91 28q33 33 33 93q0 62 -37 92q-36 30 -99 30h-170zM88 686h86v-295h155q127 0 182 -48q27 -24 44 -64t17 -85q0 -87 -54 -142q-51 -52 -151 -52h-279v686z"/>
<glyph glyph-name="afii10046" horiz-adv-x="608" unicode="Ь" d="M174 317v-243h171h10q62 0 92 28q33 31 33 90q0 64 -37 95q-36 30 -105 30h-164zM88 686h86v-295h155q127 0 182 -48q27 -24 44 -64t17 -85q0 -87 -54 -142q-51 -52 -141 -52h-289v686z"/>
<glyph glyph-name="afii10047" horiz-adv-x="608" unicode="Э" d="M124 480l-84 15q27 84 77 133q70 68 181 68q113 0 182 -71q84 -87 84 -268q0 -153 -55 -243q-75 -124 -227 -124q-101 0 -170 62q-58 53 -78 132l87 17q12 -42 42 -77q52 -60 124 -60q102 0 153 98q32 61 32 158h-253v74h251q0 97 -44 160q-48 68 -131 68q-70 0 -120 -53 q-36 -37 -51 -89z"/>
<glyph glyph-name="afii10048" horiz-adv-x="906" unicode="Ю" d="M580 622q-81 0 -133 -68q-57 -75 -57 -211t57 -211q52 -68 133 -68t133 68q57 75 57 211t-57 211q-52 68 -133 68zM174 396h124q6 60 31.5 123.5t66.5 104.5q72 72 184 72q110 0 184 -72q98 -96 98 -281t-98 -281q-74 -72 -184 -72q-111 0 -184 72q-47 47 -72.5 119.5 t-25.5 140.5h-124v-322h-86v686h86v-290z"/>
<glyph glyph-name="afii10049" horiz-adv-x="627" unicode="Я" d="M453 612h-154q-71 0 -106 -23q-46 -31 -46 -100q0 -58 38 -90q33 -28 108 -28h160v241zM539 686v-686h-86v297h-143l-173 -297h-102l186 302q-68 7 -112 48q-54 49 -54 137t60 144q38 35 83 45t108 10h233z"/>
<glyph glyph-name="afii10065" horiz-adv-x="544" unicode="а" d="M395 253h-65q-107 0 -154 -25q-52 -27 -52 -85q0 -44 37 -68q27 -19 73 -19q74 0 121 57q40 49 40 115v25zM127 369l-73 12q16 77 70.5 108t145.5 31q99 0 145 -37q26 -21 39 -54t15 -58t2 -68v-196q0 -49 13 -107h-80q-7 43 -9 95q-51 -105 -178 -105q-82 0 -131 45 q-46 42 -46 108q0 83 69 129q29 20 69.5 30t70 11.5t80.5 1.5h66v21q0 58 -20 85q-27 37 -106 37q-129 0 -142 -89z"/>
<glyph glyph-name="afii10066" horiz-adv-x="564" unicode="б" d="M292 429q-70 0 -109 -42q-45 -48 -45 -140q0 -95 43 -145q38 -46 110 -46q55 0 90 31q55 50 55 164q0 91 -42 138q-36 40 -102 40zM498 698v-74q-58 -28 -184 -49q-64 -12 -89 -23q-40 -19 -65 -51q-37 -47 -46 -117h2q50 111 193 111q90 0 144 -51q71 -65 71 -192 q0 -116 -57 -185q-63 -77 -184 -77q-93 0 -154 62q-79 80 -79 241q0 192 81 278q25 27 61.5 45.5t60 24.5t61.5 13q18 3 47.5 9t39 7.5t27.5 5.5t26.5 6.5t20 6.5t23.5 9z"/>
<glyph glyph-name="afii10067" horiz-adv-x="564" unicode="в" d="M157 235v-173h160q53 0 80 25q24 22 24 62q0 42 -31 65q-28 21 -80 21h-153zM157 448v-151h142q53 0 77 26q20 22 20 58q0 31 -22 49q-21 18 -68 18h-149zM81 510h226q82 0 119 -22q54 -31 54 -98q0 -54 -34 -85q-30 -26 -66 -32v-2q60 -5 95 -40q34 -34 34 -87 q0 -71 -53 -113q-40 -31 -124 -31h-251v510z"/>
<glyph glyph-name="afii10068" horiz-adv-x="400" unicode="г" d="M81 510h308v-62h-232v-448h-76v510z"/>
<glyph glyph-name="afii10069" horiz-adv-x="514" unicode="д" d="M205 448l-1 -27q-7 -187 -45 -287q-13 -35 -32 -72h234v386h-156zM141 510h296v-448h52v-199h-70v137h-339v-137h-70v199h38q29 43 48 91q25 64 33 133t11 178z"/>
<glyph glyph-name="afii10070" horiz-adv-x="533" unicode="е" d="M132 306h278q-2 56 -24 93q-36 59 -108 59q-68 0 -111 -52q-33 -43 -35 -100zM415 154l74 -15q-22 -68 -83 -111q-56 -38 -131 -38q-108 0 -173 74q-62 70 -62 187q0 111 61.5 190t175.5 79q54 0 95.5 -19.5t64.5 -47.5t37.5 -65t19 -67t4.5 -59v-18h-370v-7 q0 -50 17 -92q36 -89 133 -89q66 0 106 44q20 22 31 54z"/>
<glyph glyph-name="afii10072" horiz-adv-x="716" unicode="ж" d="M322 510h72v-212h39q44 0 67 16q20 14 31 47q7 20 16 56.5t19 53.5q23 42 76 42q16 0 29 -3v-60q-5 1 -15 1q-21 0 -31 -15q-7 -10 -13 -36q-1 -6 -5.5 -26.5t-9 -34.5t-11.5 -27q-20 -38 -57 -43v-2q32 -5 52 -26q17 -17 33 -64q5 -15 14 -49t15 -46q6 -14 13 -18.5 t21 -4.5q13 0 19 2v-61q-16 -3 -33 -3q-38 0 -58 12q-22 14 -35 48q-8 19 -17.5 55.5t-13.5 48.5q-7 18 -13 31q-11 20 -26.5 30.5t-27.5 12t-33 1.5h-45v-236h-72v236h-45q-21 0 -33 -1.5t-27.5 -12t-26.5 -30.5q-6 -13 -13 -31q-4 -12 -13.5 -48.5t-17.5 -55.5 q-13 -34 -35 -48q-20 -12 -58 -12q-17 0 -33 3v61q6 -2 19 -2q14 0 21 4.5t13 18.5q6 12 15 46t14 49q16 47 33 64q20 21 52 26v2q-37 5 -57 43q-7 13 -11.5 27t-9 34.5t-5.5 26.5q-6 26 -13 36q-10 15 -31 15q-10 0 -15 -1v60q13 3 29 3q53 0 76 -42q10 -17 19 -53.5 t16 -56.5q11 -33 31 -47q23 -16 67 -16h39v212z"/>
<glyph glyph-name="afii10073" horiz-adv-x="507" unicode="з" d="M118 361l-71 19q19 81 94 117q46 23 119 23q84 0 130 -28q63 -38 63 -109q0 -48 -33 -81q-28 -28 -72 -32v-2q53 -4 87 -39q32 -34 32 -86q0 -75 -64 -118q-51 -35 -150 -35q-110 0 -163 47q-43 39 -55 100l74 15q7 -37 29 -59q39 -41 111 -41q60 0 93 22q37 24 37 68 q0 41 -24 63q-31 29 -101 29h-57v62h57q44 0 71 13q44 20 44 72q0 34 -28 55q-27 22 -89 22q-58 0 -95 -31q-31 -25 -39 -66z"/>
<glyph glyph-name="afii10074" horiz-adv-x="550" unicode="и" d="M81 510h76v-306q0 -14 -3 -70q15 33 48 79l191 253v44h76v-510h-76v301q0 41 4 73q-12 -28 -46 -71l-194 -254v-49h-76v510z"/>
<glyph glyph-name="afii10075" horiz-adv-x="550" unicode="й" d="M340 688h72q0 -39 -26 -70q-38 -42 -111 -42t-111 42q-26 31 -26 70h72q2 -25 17 -42q16 -17 48 -17t48 17q15 17 17 42zM81 510h76v-306q0 -14 -3 -70q15 33 48 79l191 253v44h76v-510h-76v301q0 41 4 73q-12 -28 -46 -71l-194 -254v-49h-76v510z"/>
<glyph glyph-name="afii10076" horiz-adv-x="514" unicode="к" d="M157 297h68q54 0 80.5 20.5t42.5 87.5q14 62 30 81q23 27 70 27q8 0 24 -2v-60h-5h-6h-5q-22 -2 -32 -15q-8 -10 -16 -46l-7 -36q-15 -77 -77 -86v-2q56 -5 80 -69q8 -23 20.5 -64t18.5 -53q6 -13 14 -17t24 -4q12 0 18 1v-61q-11 -2 -33 -2q-30 0 -48.5 5.5t-30.5 21.5 t-17 28t-14 42q-28 88 -34 98q-25 43 -91 43h-74v-235h-76v510h76v-213z"/>
<glyph glyph-name="afii10077" horiz-adv-x="510" unicode="л" d="M122 510h307v-510h-76v448h-164q-10 -274 -32 -341q-37 -107 -148 -107h-4v66h8q19 1 41.5 15t35.5 38q13 23 20.5 90t10.5 244z"/>
<glyph glyph-name="afii10078" horiz-adv-x="684" unicode="м" d="M81 510h106l159 -390l151 390h106v-510h-76v350q0 16 0.5 25t1.5 22.5t2 32.5q-13 -23 -39 -89l-132 -341h-39l-141 341q-7 17 -16.5 41.5t-19.5 47.5q0 -15 1.5 -40.5t1.5 -36.5v-353h-66v510z"/>
<glyph glyph-name="afii10079" horiz-adv-x="550" unicode="н" d="M81 510h76v-213h236v213h76v-510h-76v235h-236v-235h-76v510z"/>
<glyph glyph-name="afii10080" horiz-adv-x="540" unicode="о" d="M270 56q58 0 100 43.5t42 155.5t-42 155.5t-100 43.5t-100 -43.5t-42 -155.5t42 -155.5t100 -43.5zM40 255q0 123 64.5 194t165.5 71t165.5 -71t64.5 -194t-64.5 -194t-165.5 -71t-165.5 71t-64.5 194z"/>
<glyph glyph-name="afii10081" horiz-adv-x="550" unicode="п" d="M81 510h388v-510h-76v448h-236v-448h-76v510z"/>
<glyph glyph-name="afii10082" horiz-adv-x="549" unicode="р" d="M157 309v-107q0 -62 36 -103q39 -43 97 -43q64 0 100 60q31 50 31 141q0 93 -30 140q-35 57 -100 57q-53 0 -92 -40q-42 -45 -42 -105zM157 -166h-76v676h70v-96l1 1q18 43 56.5 74t95.5 31q89 0 141 -59q64 -71 64 -203q0 -119 -54 -192q-55 -76 -151 -76 q-104 0 -144 90h-3v-246z"/>
<glyph glyph-name="afii10083" horiz-adv-x="482" unicode="с" d="M452 345l-72 -13q-7 46 -28 77q-31 45 -93 45q-63 0 -98 -57q-33 -53 -33 -144q0 -102 33 -146q35 -51 97 -51q56 0 89 42q26 33 33 83l72 -13q-11 -75 -58 -124q-53 -54 -138 -54q-84 0 -140 50q-76 70 -76 214q0 109 53 183q61 83 168 83q88 0 139 -58q41 -46 52 -117z "/>
<glyph glyph-name="afii10084" horiz-adv-x="396" unicode="т" d="M0 510h396v-62h-160v-448h-76v448h-160v62z"/>
<glyph glyph-name="afii10085" horiz-adv-x="427" unicode="у" d="M437 510l-201 -558q-21 -59 -54 -91q-40 -37 -95 -37q-35 0 -64 10v59q24 -7 55 -7q37 0 57 17q25 21 48 89l6 17l-179 501h88l132 -392l137 392h70z"/>
<glyph glyph-name="afii10086" horiz-adv-x="686" unicode="ф" d="M378 448v-386h12q61 0 101 28q71 51 71 165q0 118 -68 165q-40 28 -108 28h-8zM308 62v386h-8q-68 0 -108 -28q-68 -47 -68 -165q0 -114 71 -165q40 -28 101 -28h12zM305 686h76v-176h10q41 0 88 -15t78 -39q89 -69 89 -205q0 -121 -74 -189q-67 -62 -185 -62h-6v-166 h-76v166h-6q-118 0 -185 62q-74 68 -74 189q0 136 89 205q31 24 78 39t88 15h10v176z"/>
<glyph glyph-name="afii10087" horiz-adv-x="437" unicode="х" d="M20 510h92l107 -176l111 176h76l-148 -230l175 -280h-92l-128 206l-133 -206h-76l170 263z"/>
<glyph glyph-name="afii10088" horiz-adv-x="576" unicode="ц" d="M81 510h76v-448h248v448h76v-448h70v-199h-70v137h-400v510z"/>
<glyph glyph-name="afii10089" horiz-adv-x="499" unicode="ч" d="M55 510h76v-141v-23q0 -38 14 -55q18 -22 87 -22q40 0 110 7v234h76v-510h-76v215q-64 -8 -122 -8q-85 0 -120 26q-21 15 -31.5 42t-12 47t-1.5 59v129z"/>
<glyph glyph-name="afii10090" horiz-adv-x="742" unicode="ш" d="M81 510h76v-448h176v448h76v-448h176v448h76v-510h-580v510z"/>
<glyph glyph-name="afii10091" horiz-adv-x="756" unicode="щ" d="M81 510h76v-448h176v448h76v-448h176v448h76v-448h70v-199h-70v137h-580v510z"/>
<glyph glyph-name="afii10092" horiz-adv-x="572" unicode="ъ" d="M223 247v-185h119q50 0 75 21q31 28 31 76q0 49 -34 72q-25 16 -69 16h-122zM-5 510h228v-201h142q86 0 126 -39q41 -41 41 -112q0 -79 -51 -123q-40 -35 -103 -35h-231v448h-152v62z"/>
<glyph glyph-name="afii10093" horiz-adv-x="690" unicode="ы" d="M533 510h76v-510h-76v510zM157 247v-185h119q50 0 75 21q31 28 31 76q0 49 -34 72q-25 16 -69 16h-122zM81 510h76v-201h142q86 0 126 -39q41 -41 41 -112q0 -79 -51 -123q-40 -35 -103 -35h-231v510z"/>
<glyph glyph-name="afii10094" horiz-adv-x="506" unicode="ь" d="M157 247v-185h119q50 0 75 21q31 28 31 76q0 49 -34 72q-25 16 -69 16h-122zM81 510h76v-201h142q86 0 126 -39q41 -41 41 -112q0 -79 -51 -123q-40 -35 -103 -35h-231v510z"/>
<glyph glyph-name="afii10095" horiz-adv-x="504" unicode="э" d="M118 360l-75 13q17 64 71 105q56 42 142 42q97 0 151 -65q57 -69 57 -187q0 -123 -54 -199q-33 -46 -72.5 -62.5t-92.5 -16.5q-75 0 -123 30q-65 40 -87 117l79 13q9 -37 41 -63q36 -31 89 -31q69 0 103 55q29 45 29 125h-185v62h185q0 50 -24 98q-34 58 -102 58 q-61 0 -101 -42q-19 -19 -31 -52z"/>
<glyph glyph-name="afii10096" horiz-adv-x="739" unicode="ю" d="M469 56q57 0 93 36q49 49 49 163t-49 163q-36 36 -93 36t-93 -36q-49 -49 -49 -163t49 -163q36 -36 93 -36zM81 510h76v-215h82q2 16 5.5 35.5t22.5 61.5t48 70q61 58 154 58q91 0 153 -58q77 -74 77 -207t-77 -207q-62 -58 -153 -58q-93 0 -154 58q-33 31 -54 80.5 t-22 104.5h-82v-233h-76v510z"/>
<glyph glyph-name="afii10097" horiz-adv-x="513" unicode="я" d="M356 448h-104q-38 0 -60 -5t-39 -24q-21 -23 -21 -65q0 -40 25 -62t90 -22h109v178zM432 510v-510h-76v208h-110l-113 -208h-88l120 213q-43 9 -76 39q-41 38 -41 112q0 51 28 90q24 34 58.5 45t87.5 11h210z"/>
<glyph glyph-name="afii10071" horiz-adv-x="533" unicode="ё" d="M427 704v-95h-95v95h95zM236 704v-95h-95v95h95zM132 306h278q-2 56 -24 93q-36 59 -108 59q-68 0 -111 -52q-33 -43 -35 -100zM415 154l74 -15q-22 -68 -83 -111q-56 -38 -131 -38q-108 0 -173 74q-62 70 -62 187q0 111 61.5 190t175.5 79q54 0 95.5 -19.5t64.5 -47.5 t37.5 -65t19 -67t4.5 -59v-18h-370v-7q0 -50 17 -92q36 -89 133 -89q66 0 106 44q20 22 31 54z"/>
<glyph glyph-name="afii10099" horiz-adv-x="564" unicode="ђ" d="M83 559h-75v57h75v70h76v-70h188v-57h-188v-162q50 106 165 106q79 0 120 -47q39 -43 39 -138v-286q0 -98 -32 -146q-40 -61 -122 -61q-40 0 -82 9v65q33 -8 69 -8q58 0 77 44q14 31 14 99v265q0 77 -21 105q-24 33 -76 33q-41 0 -77 -23q-74 -49 -74 -170v-244h-76v559z "/>
<glyph glyph-name="afii10100" horiz-adv-x="400" unicode="ѓ" d="M323 738l34 -65l-215 -94l-20 40zM81 510h308v-62h-232v-448h-76v510z"/>
<glyph glyph-name="afii10101" horiz-adv-x="504" unicode="є" d="M461 373l-75 -13q-12 33 -31 52q-40 42 -101 42q-68 0 -102 -58q-24 -48 -24 -98h185v-62h-185q0 -80 29 -125q34 -55 103 -55q53 0 89 31q32 26 41 63l79 -13q-22 -77 -87 -117q-48 -30 -123 -30q-53 0 -92.5 16.5t-72.5 62.5q-54 76 -54 199q0 118 57 187q54 65 151 65 q86 0 142 -42q54 -41 71 -105z"/>
<glyph glyph-name="afii10102" horiz-adv-x="489" unicode="ѕ" d="M442 393l-72 -15q-12 37 -44.5 58.5t-79.5 21.5q-60 0 -83.5 -24.5t-23.5 -53.5q0 -54 85 -69q3 -1 5 -1l69 -13q89 -16 125 -49q41 -39 41 -105t-50 -109q-52 -44 -153 -44q-89 0 -141 28q-71 38 -90 117l76 15q8 -38 36 -63q44 -35 115 -35q58 0 89 24q30 22 30 61 q0 17 -6.5 30t-15 20.5t-24.5 14t-25.5 8.5t-27.5 6l-77 15q-149 28 -149 142q0 64 46 103q51 44 148 44q99 0 151 -50q33 -31 46 -77z"/>
<glyph glyph-name="afii10103" horiz-adv-x="244" unicode="і" d="M164 686v-88h-84v88h84zM160 510v-510h-76v510h76z"/>
<glyph glyph-name="afii10104" horiz-adv-x="274" unicode="ї" d="M105 704v-95h-80v95h80zM249 704v-95h-80v95h80zM175 510v-510h-76v510h76z"/>
<glyph glyph-name="afii10105" horiz-adv-x="237" unicode="ј" d="M160 686v-88h-84v88h84zM156 510v-515q0 -116 -60 -151q-33 -19 -89 -19q-37 0 -71 9v60q34 -7 58 -7q52 0 72 30q14 22 14 74v519h76z"/>
<glyph glyph-name="afii10106" horiz-adv-x="778" unicode="љ" d="M429 247v-185h119q50 0 75 21q31 28 31 76q0 49 -34 72q-25 16 -69 16h-122zM122 510h307v-201h142q86 0 126 -39q41 -41 41 -112q0 -79 -51 -123q-40 -35 -103 -35h-231v448h-164q-6 -165 -12.5 -234.5t-19.5 -106.5q-37 -107 -148 -107h-4v66h8q27 2 47 16.5t29.5 36.5 t13 37.5t5.5 30.5q10 82 13 266z"/>
<glyph glyph-name="afii10107" horiz-adv-x="818" unicode="њ" d="M469 247v-185h119q50 0 75 21q31 28 31 76q0 49 -34 72q-25 16 -69 16h-122zM393 296v214h76v-201h142q86 0 126 -39q41 -41 41 -112q0 -79 -51 -123q-40 -35 -103 -35h-231v234h-236v-234h-76v510h76v-214h236z"/>
<glyph glyph-name="afii10108" horiz-adv-x="564" unicode="ћ" d="M159 686v-70h188v-57h-188v-162q50 106 165 106q79 0 120 -47q39 -43 39 -138v-318h-76v299q0 77 -21 105q-24 33 -76 33q-41 0 -77 -23q-74 -49 -74 -170v-244h-76v559h-75v57h75v70h76z"/>
<glyph glyph-name="afii10109" horiz-adv-x="514" unicode="ќ" d="M364 738l34 -65l-215 -94l-20 40zM157 297h68q54 0 80.5 20.5t42.5 87.5q14 62 30 81q23 27 70 27q8 0 24 -2v-60h-5h-6h-5q-22 -2 -32 -15q-8 -10 -16 -46l-7 -36q-15 -77 -77 -86v-2q56 -5 80 -69q8 -23 20.5 -64t18.5 -53q6 -13 14 -17t24 -4q12 0 18 1v-61 q-11 -2 -33 -2q-30 0 -48.5 5.5t-30.5 21.5t-17 28t-14 42q-28 88 -34 98q-25 43 -91 43h-74v-235h-76v510h76v-213z"/>
<glyph glyph-name="afii10110" horiz-adv-x="427" unicode="ў" d="M296 688h72q0 -39 -26 -70q-38 -42 -111 -42t-111 42q-26 31 -26 70h72q2 -25 17 -42q16 -17 48 -17t48 17q15 17 17 42zM437 510l-201 -558q-21 -59 -54 -91q-40 -37 -95 -37q-35 0 -64 10v59q24 -7 55 -7q37 0 57 17q25 21 48 89l6 17l-179 501h88l132 -392l137 392h70 z"/>
<glyph glyph-name="afii10193" horiz-adv-x="494" unicode="џ" d="M47 508h76v-446h248v446h76v-508h-165v-137h-70v137h-165v508z"/>
<glyph glyph-name="afii10050" horiz-adv-x="505" unicode="Ґ" d="M88 686h331v92h76v-168h-321v-610h-86v686z"/>
<glyph glyph-name="afii10098" horiz-adv-x="399" unicode="ґ" d="M81 510h249v63h59v-125h-232v-448h-76v510z"/>
<glyph glyph-name="endash" horiz-adv-x="706" unicode="–" d="M603 288v-62h-500v62h500z"/>
<glyph glyph-name="emdash" horiz-adv-x="1000" unicode="—" d="M950 288v-62h-900v62h900z"/>
<glyph glyph-name="quoteleft" horiz-adv-x="251" unicode="‘" d="M177 686l-50 -120h50v-102h-103v102l67 120h36z"/>
<glyph glyph-name="quotesinglbase" horiz-adv-x="266" unicode="‚" d="M192 99v-86l-80 -134h-38l59 121h-41v99h100z"/>
<glyph glyph-name="quotedblleft" horiz-adv-x="417" unicode="“" d="M192 686l-59 -120h41v-99h-100v86l80 133h38zM343 686l-59 -120h41v-99h-100v86l80 133h38z"/>
<glyph glyph-name="quotedblright" horiz-adv-x="418" unicode="”" d="M344 686v-86l-80 -134h-38l59 121h-41v99h100zM192 686v-86l-80 -133h-38l59 120h-41v99h100z"/>
<glyph glyph-name="dagger" horiz-adv-x="598" unicode="†" d="M299 674l58 12l-43 -215l212 37l-9 -45l9 -45l-212 25q20 -21 43 -46q-19 -66 -31 -238t-12 -284v-46h-30v46q0 112 -12 284t-31 238q23 25 43 46l-212 -25l9 45l-9 45l212 -37l-43 215z"/>
<glyph glyph-name="daggerdbl" horiz-adv-x="598" unicode="‡" d="M299 670l50 16l-35 -189l212 37l-9 -47l9 -47l-212 29l22 -51l-22 -64l212 37l-9 -47l9 -47l-212 29q22 -20 44 -38q-20 -72 -32 -194.5t-12 -231.5v-33h-30v33q0 109 -12 231.5t-32 194.5q22 18 44 38l-212 -29l9 47l-9 47l212 -37l-22 64l22 51l-212 -29l9 47l-9 47 l212 -37l-35 189z"/>
<glyph glyph-name="ellipsis" horiz-adv-x="924" unicode="…" d="M850 113v-113h-110v113h110zM517 113v-113h-110v113h110zM184 113v-113h-110v113h110z"/>
<glyph glyph-name="perthousand" horiz-adv-x="1080" unicode="‰" d="M823 170q0 -128 78 -128t78 128t-78 128t-78 -128zM761 170q0 79 36.5 129.5t103.5 50.5t103.5 -50.5t36.5 -129.5t-36.5 -129.5t-103.5 -50.5t-103.5 50.5t-36.5 129.5zM469 170q0 -128 78 -128t78 128t-78 128t-78 -128zM407 170q0 79 36.5 129.5t103.5 50.5 t103.5 -50.5t36.5 -129.5t-36.5 -129.5t-103.5 -50.5t-103.5 50.5t-36.5 129.5zM607 686l-415 -686h-73l415 686h73zM179 388q78 0 78 128t-78 128t-78 -128t78 -128zM179 696q67 0 103.5 -50.5t36.5 -129.5t-36.5 -129.5t-103.5 -50.5t-103.5 50.5t-36.5 129.5t36.5 129.5 t103.5 50.5z"/>
<glyph glyph-name="guilsinglleft" horiz-adv-x="222" unicode="‹" d="M120 257l53 -146h-44l-87 146l87 142h44z"/>
<glyph glyph-name="guilsinglright" horiz-adv-x="222" unicode="›" d="M102 257l-53 142h44l87 -142l-87 -146h-44z"/>
<glyph glyph-name="Euro" horiz-adv-x="596" unicode="€" d="M550 647v-82q-64 58 -166 58q-86 0 -136.5 -50t-61.5 -129h319l-24 -63h-305q0 -4 -0.5 -16t-0.5 -19q0 -8 0.5 -20.5t0.5 -16.5h277l-23 -63h-244q14 -87 64.5 -134.5t134.5 -47.5q100 0 165 58v-83q-23 -19 -69 -33.5t-106 -14.5q-112 0 -181.5 64t-89.5 191h-77l24 63 h47q-2 18 -2 37q0 17 2 35h-71l24 63h53q19 114 85 183t186 69q111 0 175 -49z"/>
<glyph glyph-name="trademark" horiz-adv-x="823" unicode="™" d="M776 287h-62v317l-127 -317h-44l-128 317v-317h-55v399h88l122 -303l119 303h87v-399zM192 287h-62v349h-120v50h302v-50h-120v-349z"/>
</font>
</defs>
</svg>
