<?xml version="1.0" encoding="UTF-8" standalone="no"?>
<!DOCTYPE svg  PUBLIC '-//W3C//DTD SVG 1.1//EN'  'http://www.w3.org/Graphics/SVG/1.1/DTD/svg11.dtd'>
<svg xmlns="http://www.w3.org/2000/svg">
<defs>
<font id="FranklinGothicMediumC-Regular" horiz-adv-x="616">
<font-face underline-position="-50" font-weight="500" descent="-200" panose-1="0 0 6 0 0 0 0 0 0 0" units-per-em="1000" unicode-range="U+0020-2122" bbox="-51 -187 1204 895" x-height="510" underline-thickness="50" font-family="FranklinGothicMediumC" ascent="800" cap-height="686"/>
<missing-glyph horiz-adv-x="1000"/>
<glyph glyph-name=".notdef" horiz-adv-x="1000"/>
<glyph glyph-name=".null" horiz-adv-x="0"/>
<glyph glyph-name="nonmarkingreturn" horiz-adv-x="333"/>
<glyph glyph-name="space" horiz-adv-x="233" unicode=" "/>
<glyph glyph-name="space" horiz-adv-x="233" unicode=" "/>
<glyph glyph-name="exclam" horiz-adv-x="293" unicode="!" d="M228 686l-44 -495h-70l-44 495h158zM215 132v-132h-132v132h132z"/>
<glyph glyph-name="quotedbl" horiz-adv-x="398" unicode='&quot;' d="M229 686h114l-29 -261h-56zM55 686h114l-29 -261h-56z"/>
<glyph glyph-name="numbersign" horiz-adv-x="594" unicode="#" d="M347 271l29 146h-126l-29 -146h126zM377 0h-84l39 193h-126l-38 -193h-84l39 193h-106v78h121l28 146h-108v78h124l38 194h84l-38 -194h125l39 194h84l-39 -194h102v-78h-117l-29 -146h108v-78h-123z"/>
<glyph glyph-name="dollar" horiz-adv-x="599" unicode="$" d="M258 427v169q-47 -3 -69.5 -29.5t-22.5 -58.5q0 -34 28.5 -54t63.5 -27zM329 281v-191q47 1 76.5 28.5t29.5 64.5q0 34 -33 66t-71 32h-2zM258 777h71v-81q171 -17 216 -168l-110 -32q-10 42 -40.5 65.5t-65.5 29.5v-181l35 -8q94 -21 136 -55q29 -24 48 -61.5t19 -81.5 q0 -47 -22 -89.5t-57 -69.5q-63 -49 -159 -55v-79h-71v81q-92 5 -161 57t-93 139l117 22q30 -92 128 -115q1 -1 4 -1t5 -1v205l-28 7q-81 21 -124 55q-66 53 -66 135q0 100 79 156q58 41 139 45v81z"/>
<glyph glyph-name="percent" horiz-adv-x="857" unicode="%" d="M637 310q-70 0 -70 -117t70 -117t70 117t-70 117zM637 384q76 0 120 -52t44 -143t-44 -143t-120 -52t-120 52t-44 143t44 143t120 52zM220 619q-70 0 -70 -117t70 -117t70 117t-70 117zM220 693q76 0 120 -52t44 -143t-44 -143t-120 -52t-120 52t-44 143t44 143t120 52z M669 686l-416 -686h-80l416 686h80z"/>
<glyph glyph-name="ampersand" horiz-adv-x="693" unicode="&amp;" d="M399 128l-145 198q-28 -8 -52 -27q-43 -35 -43 -92q0 -49 34 -84t96 -35q63 0 110 40zM307 435l20 12q2 1 10 6t11.5 7t10.5 6.5t11 8t9.5 9t8.5 11t6 12t4.5 14.5t1.5 16q0 31 -22.5 50t-57.5 19q-32 0 -51 -18t-19 -46q0 -9 2.5 -19t5 -16.5t9 -16.5t8.5 -13t9 -13 l8 -9zM556 384l108 -17q-30 -142 -120 -237q33 -33 75 -33q28 0 53 5v-97q-46 -9 -77 -9q-38 0 -64 11.5t-54 36.5l-12 11q-76 -65 -189 -65q-100 0 -169 52q-77 57 -77 153q0 89 73 150q41 34 96 50q-37 53 -52 83.5t-15 63.5q0 59 44.5 106.5t141.5 47.5q85 0 136 -38 q56 -42 56 -115q0 -81 -67 -129q-40 -29 -88 -46l117 -165q64 69 84 181z"/>
<glyph glyph-name="quotesingle" horiz-adv-x="224" unicode="&apos;" d="M55 686h114l-29 -261h-56z"/>
<glyph glyph-name="parenleft" horiz-adv-x="322" unicode="(" d="M206 686h80q-127 -197 -127 -423q0 -228 128 -431h-80q-74 91 -115 222q-37 115 -37 207q0 124 47 243q38 98 104 182z"/>
<glyph glyph-name="parenright" horiz-adv-x="322" unicode=")" d="M36 686h80q72 -89 110 -196q41 -112 41 -229q0 -102 -38 -213q-38 -113 -114 -216h-80q128 199 128 431q0 233 -127 423z"/>
<glyph glyph-name="asterisk" horiz-adv-x="564" unicode="*" d="M242 686h80l-10 -166l145 82l33 -71l-151 -65l151 -65l-33 -71l-145 82l10 -166h-80l10 166l-145 -82l-33 71l151 65l-151 65l33 71l145 -82z"/>
<glyph glyph-name="plus" horiz-adv-x="645" unicode="+" d="M276 547h93v-212h212v-93h-212v-212h-93v212h-212v93h212v212z"/>
<glyph glyph-name="comma" horiz-adv-x="284" unicode="," d="M210 136v-123l-87 -158h-54l66 145h-61v136h136z"/>
<glyph glyph-name="hyphen" horiz-adv-x="266" unicode="-" d="M246 310v-94h-226v94h226z"/>
<glyph glyph-name="hyphen" horiz-adv-x="266" unicode="­" d="M246 310v-94h-226v94h226z"/>
<glyph glyph-name="period" horiz-adv-x="284" unicode="." d="M74 136h136v-136h-136v136z"/>
<glyph glyph-name="slash" horiz-adv-x="517" unicode="/" d="M493 686l-439 -857h-89l439 857h89z"/>
<glyph glyph-name="zero" d="M169 343q0 -109 22 -169q34 -90 117 -90t117 90q22 60 22 169t-22 169q-34 90 -117 90t-117 -90q-22 -60 -22 -169zM45 343q0 153 66 249q70 104 197 104t197 -104q66 -96 66 -249t-66 -249q-70 -104 -197 -104t-197 104q-66 96 -66 249z" unicode="0"/>
<glyph glyph-name="one" d="M375 689v-585h180v-104h-495v104h193v444q-86 -74 -177 -115v108q142 62 206 148h93z" unicode="1"/>
<glyph glyph-name="two" d="M168 455l-111 27q11 67 50 119q73 95 206 95q103 0 167 -51q76 -60 76 -160q0 -121 -130 -221l-209 -160h341l-3 -104h-498v99l263 205q112 89 112 177q0 52 -40 85q-35 30 -87 30q-72 0 -112 -61q-21 -33 -25 -80z" unicode="2"/>
<glyph glyph-name="three" d="M173 502l-109 23q23 71 84 118q68 53 158 53q113 0 177 -51q67 -52 67 -135q0 -54 -34 -95t-88 -56q64 -10 105.5 -53.5t41.5 -111.5q0 -93 -74 -149q-72 -55 -192 -55q-99 0 -173 50q-75 52 -95 133l113 26q9 -42 43 -71q43 -38 110 -38q65 0 105 29q39 28 39 79 q0 54 -47 85q-39 25 -117 25h-70v92h65q70 0 102 19q46 26 46 79q0 31 -19 56q-32 42 -103 42q-46 0 -82 -24.5t-53 -69.5z" unicode="3"/>
<glyph glyph-name="four" d="M354 253v328l-211 -328h211zM478 689v-436h107v-96h-107v-157h-124v157h-319v87l295 445h148z" unicode="4"/>
<glyph glyph-name="five" d="M527 686l-10 -102h-321l-13 -182q64 62 150 62q99 0 169 -65q67 -63 67 -166q0 -98 -66 -166q-75 -77 -202 -77q-89 0 -161 48.5t-92 128.5l108 24q13 -44 52 -72.5t93 -28.5q68 0 106 41.5t38 95.5q0 55 -35 93q-40 44 -101 44q-87 0 -132 -72l-98 17l25 377h423z" unicode="5"/>
<glyph glyph-name="six" horiz-adv-x="617" unicode="6" d="M321 85q55 0 94 39q36 36 36 92q0 57 -39 96q-37 36 -88 36q-58 0 -99 -39q-40 -39 -40 -98q0 -52 35 -89q34 -37 101 -37zM550 536l-104 -23q-30 86 -120 86q-75 0 -116 -65q-41 -66 -43 -203q27 52 76 83t109 31q94 0 159 -63q64 -60 64 -157q0 -102 -76 -170 q-73 -65 -179 -65q-143 0 -217 111q-60 91 -60 224q0 164 75 265q78 106 205 106q83 0 144 -40t83 -120z"/>
<glyph glyph-name="seven" d="M546 686v-77q-108 -135 -159 -266q-64 -164 -64 -327v-16h-134q10 175 82 343q48 113 152 241h-354l11 102h466z" unicode="7"/>
<glyph glyph-name="eight" d="M286 304q-56 -12 -93 -44.5t-37 -72.5q0 -15 6 -31t20.5 -34.5t47 -30t77.5 -11.5q78 0 112.5 29.5t34.5 66.5q0 79 -168 128zM321 408q116 32 116 100q0 40 -32.5 69t-99.5 29q-59 0 -89 -27.5t-30 -60.5q0 -36 40.5 -67t94.5 -43zM183 349q-57 24 -86 69t-29 90 q0 39 22.5 78.5t53.5 62.5q63 47 168 47q110 0 177 -53q62 -49 62 -121q0 -55 -34 -94.5t-84 -57.5q145 -60 145 -179q0 -100 -86 -154q-74 -47 -183 -47q-110 0 -188 50q-83 53 -83 137q0 39 16 71t41 52t46 31t42 18z" unicode="8"/>
<glyph glyph-name="nine" horiz-adv-x="617" unicode="9" d="M297 601q-51 0 -90 -36q-40 -38 -40 -95q0 -55 35 -92q38 -40 92 -40q61 0 102 42q37 38 37 95q0 51 -32 87q-35 39 -104 39zM68 150l104 23q30 -86 120 -86q75 0 116 65q41 66 43 203q-27 -52 -76 -83t-109 -31q-96 0 -162 66q-61 59 -61 154q0 109 82 176q72 59 173 59 q141 0 213 -106q64 -94 64 -229q0 -163 -75 -265q-43 -59 -92.5 -82.5t-112.5 -23.5q-83 0 -144 40t-83 120z"/>
<glyph glyph-name="colon" horiz-adv-x="284" unicode=":" d="M210 510v-136h-136v136h136zM210 136v-136h-136v136h136z"/>
<glyph glyph-name="semicolon" horiz-adv-x="284" unicode=";" d="M210 510v-136h-136v136h136zM210 136v-123l-87 -158h-54l66 145h-61v136h136z"/>
<glyph glyph-name="less" horiz-adv-x="644" unicode="&lt;" d="M199 289l363 -145v-96l-496 203v75l496 204v-96z"/>
<glyph glyph-name="equal" horiz-adv-x="644" unicode="=" d="M64 137v93h516v-93h-516zM64 347v93h516v-93h-516z"/>
<glyph glyph-name="greater" horiz-adv-x="644" unicode="&gt;" d="M445 289l-363 145v96l496 -204v-75l-496 -203v96z"/>
<glyph glyph-name="question" horiz-adv-x="532" unicode="?" d="M316 126v-126h-132v126h132zM129 465l-111 18q11 106 92 168q60 45 156 45q99 0 162 -51q71 -57 71 -150q0 -96 -103 -163q-4 -2 -24.5 -15t-27 -18.5t-19.5 -17.5t-17.5 -24.5t-4.5 -27.5v-43h-106v33q0 32 2 51t16.5 46.5t43.5 45.5l36 22q76 48 76 115q0 48 -35 77 q-29 26 -79 26q-34 0 -59.5 -14t-39.5 -36t-20.5 -43.5t-8.5 -43.5z"/>
<glyph glyph-name="at" horiz-adv-x="829" unicode="@" d="M431 448q-46 0 -82.5 -44t-36.5 -102q0 -33 19 -57t49 -24q38 0 66 31t38.5 65t10.5 59q0 31 -17.5 51.5t-46.5 20.5zM584 98l45 -37q-80 -71 -214 -71q-60 0 -123 22t-107 56q-57 44 -91 112t-34 152q0 77 30 146.5t80 118.5q102 99 265 99q158 0 252 -94 q82 -82 82 -198q0 -56 -15 -101.5t-38.5 -73.5t-53.5 -46.5t-57 -26t-53 -7.5q-30 0 -54.5 13.5t-28.5 39.5q-28 -29 -51 -41t-56 -12q-21 0 -42.5 7t-44.5 23t-37 48.5t-14 76.5q0 88 61.5 152.5t135.5 64.5q77 0 105 -61l15 50h76l-68 -254q-4 -14 -4 -19q0 -31 32 -31 q41 0 70 31t40 70t11 78q0 80 -40 137q-33 48 -96.5 76t-139.5 28q-114 0 -189 -68q-43 -39 -67 -99.5t-24 -129.5q0 -137 95 -211q73 -57 182 -57q94 0 165 37z"/>
<glyph glyph-name="A" horiz-adv-x="587" unicode="A" d="M369 274l-87 284l-88 -284h175zM364 686l220 -686h-134l-55 178h-226l-54 -178h-110l219 686h140z"/>
<glyph glyph-name="B" horiz-adv-x="647" unicode="B" d="M203 308v-208h145q58 0 90 25q35 30 35 78q0 43 -29 72q-22 22 -45 27.5t-59 5.5h-137zM203 586v-182h126q69 0 100 27q30 26 30 68q0 45 -33 67q-29 20 -89 20h-134zM77 686h293q106 0 158 -39q60 -44 60 -130q0 -71 -44 -113q-29 -28 -74 -42v-2q46 -9 79 -36 q60 -49 60 -135q0 -88 -62 -141q-57 -48 -170 -48h-300v686z"/>
<glyph glyph-name="C" horiz-adv-x="645" unicode="C" d="M605 460l-119 -14q-4 48 -30 86q-42 64 -115 64q-87 0 -129 -85q-30 -59 -30 -163q0 -107 27 -165q44 -93 133 -93q61 0 103 49q37 44 44 103l116 -15q-13 -98 -79 -164q-72 -73 -178 -73q-162 0 -245 132q-57 90 -57 226q0 170 89 263q79 85 209 85q113 0 183 -68 t78 -168z"/>
<glyph glyph-name="D" horiz-adv-x="676" unicode="D" d="M203 100h94q111 0 160 76q43 65 43 174q0 111 -53 175q-50 61 -149 61h-95v-486zM77 686h223q160 0 247 -92q41 -44 65 -113t24 -140q0 -107 -45 -190q-82 -151 -271 -151h-243v686z"/>
<glyph glyph-name="E" horiz-adv-x="575" unicode="E" d="M77 686h461v-100h-335v-182h267v-96h-267v-208h341v-100h-467v686z"/>
<glyph glyph-name="F" horiz-adv-x="536" unicode="F" d="M522 686v-100h-319v-182h260v-96h-260v-308h-126v686h445z"/>
<glyph glyph-name="G" horiz-adv-x="686" unicode="G" d="M619 361v-364h-73l-25 80q-26 -35 -63 -57q-53 -30 -129 -30q-133 0 -211 96q-38 47 -58 113.5t-20 135.5q0 71 20 141.5t60 118.5q39 47 98.5 74t130.5 27q118 0 188 -66q58 -55 74 -145l-122 -20q-7 43 -27 72q-41 59 -118 59q-91 0 -135 -84q-33 -62 -33 -168 q0 -114 36 -172q20 -34 55 -58t84 -24q62 0 102 42q40 40 40 103v26h-153v100h279z"/>
<glyph glyph-name="H" horiz-adv-x="674" unicode="H" d="M597 686v-686h-126v309h-268v-309h-126v686h126v-277h268v277h126z"/>
<glyph glyph-name="I" horiz-adv-x="280" unicode="I" d="M203 686v-686h-126v686h126z"/>
<glyph glyph-name="J" horiz-adv-x="393" unicode="J" d="M316 686v-451q0 -122 -40 -175q-53 -70 -169 -70q-48 0 -107 10v100q43 -10 80 -10q55 0 82 29q28 30 28 100v6v461h126z"/>
<glyph glyph-name="K" horiz-adv-x="670" unicode="K" d="M203 686v-359h2l266 359h126l-181 -244l236 -442h-144l-176 339l-129 -164v-175h-126v686h126z"/>
<glyph glyph-name="L" horiz-adv-x="525" unicode="L" d="M203 686v-586h306v-100h-432v686h126z"/>
<glyph glyph-name="M" horiz-adv-x="851" unicode="M" d="M252 686l172 -488h2l170 488h178v-686h-126v563h-2l-190 -563h-84l-194 563h-1v-563h-100v686h175z"/>
<glyph glyph-name="N" horiz-adv-x="687" unicode="N" d="M215 686l288 -501h8q-7 51 -7 74v427h106v-686h-114l-315 548h-6q1 -10 4.5 -30.5t3.5 -52.5v-465h-106v686h138z"/>
<glyph glyph-name="O" horiz-adv-x="676" unicode="O" d="M338 596q-74 0 -116 -63q-46 -69 -46 -190t46 -190q42 -63 116 -63t116 63q46 69 46 190t-46 190q-42 63 -116 63zM338 696q122 0 200 -74q98 -94 98 -279t-98 -279q-78 -74 -200 -74t-200 74q-98 94 -98 279t98 279q78 74 200 74z"/>
<glyph glyph-name="P" horiz-adv-x="605" unicode="P" d="M203 368h117h5q64 0 95 29q34 31 34 83q0 50 -33 78q-32 28 -96 28h-122v-218zM77 686h238q122 0 182 -41q83 -55 83 -164q0 -39 -13 -75t-39 -68t-73 -51t-108 -19h-144v-268h-126v686z"/>
<glyph glyph-name="Q" horiz-adv-x="676" unicode="Q" d="M338 596q-74 0 -116 -63q-46 -69 -46 -190t46 -190q42 -63 116 -63t116 63q46 69 46 190t-46 190q-42 63 -116 63zM603 -40v-100q-41 -10 -81 -10t-71 11.5t-47 27t-27 37t-14 36t-4 30.5q-22 -2 -32 -2q-112 0 -189 74q-98 94 -98 279t98 279q78 74 200 74t200 -74 q98 -94 98 -279q0 -27 -2.5 -53.5t-13.5 -69t-29.5 -77.5t-55 -69.5t-85.5 -53.5q8 -43 25.5 -56.5t54.5 -13.5q42 0 73 10z"/>
<glyph glyph-name="R" horiz-adv-x="659" unicode="R" d="M203 586v-204h159q57 0 87 36q23 28 23 69q0 99 -130 99h-139zM77 686h284q111 0 170 -47q67 -54 67 -150q0 -15 -3 -32t-13 -48t-37.5 -58.5t-69.5 -43.5l135 -307h-138l-119 282h-150v-282h-126v686z"/>
<glyph glyph-name="S" horiz-adv-x="603" unicode="S" d="M551 528l-110 -32q-9 40 -43 67q-42 33 -109 33q-62 0 -89.5 -27t-27.5 -61q0 -60 105 -84l93 -22q96 -22 136 -55q67 -56 67 -143q0 -47 -22 -89.5t-57 -69.5q-71 -55 -188 -55q-123 0 -201 58q-72 54 -95 140l117 22q19 -57 67 -90q46 -30 111 -30q74 0 105 29t31 64 q0 29 -23 56.5t-81 41.5l-101 24q-79 18 -124 55q-66 53 -66 135q0 100 79 156q63 45 172 45q111 0 179 -53q55 -43 75 -115z"/>
<glyph glyph-name="T" horiz-adv-x="482" unicode="T" d="M0 686h482v-100h-178v-586h-126v586h-178v100z"/>
<glyph glyph-name="U" horiz-adv-x="637" unicode="U" d="M70 686h126v-434q0 -84 25 -118q34 -44 111 -44q72 0 104 41q30 36 30 121v434h104v-436q0 -59 -11 -105t-47 -85q-66 -70 -188 -70q-128 0 -192 62q-29 28 -43.5 67.5t-16.5 64t-2 62.5v440z"/>
<glyph glyph-name="V" horiz-adv-x="586" unicode="V" d="M2 686h134l170 -524l168 524h110l-227 -686h-127z"/>
<glyph glyph-name="W" horiz-adv-x="863" unicode="W" d="M11 686h126l124 -503l129 503h102l138 -503l118 503h104l-171 -686h-116l-132 481l-126 -481h-116z"/>
<glyph glyph-name="X" horiz-adv-x="600" unicode="X" d="M28 686h146l135 -231l135 231h122l-195 -318l223 -368h-146l-157 267l-163 -267h-122l223 357z"/>
<glyph glyph-name="Y" horiz-adv-x="551" unicode="Y" d="M565 686l-225 -397v-289h-126v289l-228 397h144l160 -284l161 284h114z"/>
<glyph glyph-name="Z" horiz-adv-x="554" unicode="Z" d="M40 686h483v-82l-349 -500h359v-104h-512v92l348 490h-329v104z"/>
<glyph glyph-name="bracketleft" horiz-adv-x="343" unicode="[" d="M275 686v-64h-102v-726h102v-64h-198v854h198z"/>
<glyph glyph-name="backslash" horiz-adv-x="560" unicode="\" d="M121 686l407 -686h-89l-407 686h89z"/>
<glyph glyph-name="bracketright" horiz-adv-x="343" unicode="]" d="M68 686h198v-854h-198v64h102v726h-102v64z"/>
<glyph glyph-name="asciicircum" horiz-adv-x="492" unicode="^" d="M246 552l-106 -294h-90l174 428h44l174 -428h-90z"/>
<glyph glyph-name="underscore" horiz-adv-x="500" unicode="_" d="M500 -65v-62h-500v62h500z"/>
<glyph glyph-name="grave" horiz-adv-x="384" unicode="`" d="M84 743l211 -112l-22 -50l-223 86z"/>
<glyph glyph-name="a" horiz-adv-x="569" unicode="a" d="M387 248l-53 -1q-64 0 -103 -14q-68 -23 -68 -88q0 -29 21 -47q25 -24 70 -24q63 0 100 47q33 41 33 101v26zM162 361l-109 14q19 82 90 118q50 27 146 27q102 0 152 -36q38 -28 50 -67t12 -92v-216q0 -41 11 -109h-116q-9 46 -11 87q-51 -97 -170 -97q-92 0 -136 46.5 t-44 107.5q0 94 89 138q68 35 204 38l57 1v17q0 49 -18 72q-23 30 -87 30q-49 0 -76 -15q-36 -21 -44 -64z"/>
<glyph glyph-name="b" horiz-adv-x="570" unicode="b" d="M186 310v-95q0 -58 22 -92q31 -49 87 -49t86 55q26 48 26 129q0 83 -25 127q-29 51 -86 51q-47 0 -78.5 -32t-31.5 -94zM186 686v-253q53 87 150 87q82 0 137 -63q60 -70 60 -198q0 -119 -57 -194q-58 -75 -155 -75q-112 0 -160 91l-29 -81h-62v686h116z"/>
<glyph glyph-name="c" horiz-adv-x="503" unicode="c" d="M478 336l-106 -13q-3 43 -25 75q-25 38 -76 38q-53 0 -81 -47q-27 -44 -27 -134q0 -92 27 -135q30 -46 81 -46q46 0 74 38q24 33 27 77l106 -13q-11 -84 -64 -133q-59 -53 -147 -53q-93 0 -154 57q-76 72 -76 207q0 116 59 186q30 35 75.5 57.5t98.5 22.5q94 0 148 -56 q47 -47 60 -128z"/>
<glyph glyph-name="d" horiz-adv-x="570" unicode="d" d="M384 205v110q0 47 -29 85q-29 36 -78 36q-57 0 -88 -52q-26 -44 -26 -126q0 -79 25 -129q28 -55 86 -55q52 0 83 43q27 39 27 88zM500 686v-686h-107v79h-2q-21 -45 -62 -67t-88 -22q-92 0 -149 75q-55 73 -55 189q0 131 64 203q56 63 143 63q55 0 100 -30q23 -15 40 -39 v235h116z"/>
<glyph glyph-name="e" horiz-adv-x="562" unicode="e" d="M166 309h233q0 52 -22 84q-32 47 -90 47q-55 0 -91 -43q-30 -37 -30 -88zM406 162l111 -14q-22 -72 -84 -116q-62 -42 -147 -42q-51 0 -100 19.5t-81 52.5q-68 70 -68 191q0 137 90 212q65 55 155 55q127 0 192 -91q51 -70 51 -173v-23h-362q0 -54 17 -89q34 -70 110 -70 q53 0 89 37q22 23 27 51z"/>
<glyph glyph-name="f" horiz-adv-x="354" unicode="f" d="M359 691v-86q-30 5 -65 5q-43 0 -61 -19q-18 -18 -18 -59v-27h121v-86h-121v-419h-116v419h-84v86h84v14q0 100 45 142q37 35 125 35q53 0 90 -5z"/>
<glyph glyph-name="g" horiz-adv-x="544" unicode="g" d="M311 10l-128 6q-23 -6 -38 -21t-15 -33q0 -42 51 -59q42 -14 102 -14q97 0 128 26q21 17 21 42q0 12 -5 21t-17 14.5t-20 9t-27.5 5t-25.5 2t-26 1.5zM270 255q46 0 69 25q26 28 26 72q0 43 -27 70q-25 25 -67 25q-31 0 -55 -15q-42 -27 -42 -81q0 -47 28 -73 q25 -23 68 -23zM530 600l-2 -87h-13h-23q-51 -2 -64 -46q53 -45 53 -121q0 -66 -51.5 -115t-141.5 -49q-21 0 -42 3q-24 4 -37 4q-24 0 -37 -11t-13 -29q0 -37 56 -39l121 -5q38 -1 63 -4t59 -15t53 -33q32 -35 32 -87q0 -80 -77 -121q-62 -32 -190 -32q-121 0 -183 31 q-70 34 -70 99q0 38 21 64.5t55 37.5q-48 28 -48 82q0 38 23 63q21 25 56 34v2q-72 43 -72 126q0 80 64 126q57 42 147 42q58 0 103 -17q7 48 40 75q29 24 72 24h19q13 0 19 -1z"/>
<glyph glyph-name="h" horiz-adv-x="572" unicode="h" d="M186 686v-259q55 93 157 93q76 0 118 -44q41 -43 41 -139v-337h-116v321v7q0 55 -18 79q-20 27 -62 27q-34 0 -62 -19q-58 -40 -58 -135v-280h-116v686h116z"/>
<glyph glyph-name="i" horiz-adv-x="260" unicode="i" d="M190 689v-104h-120v104h120zM188 510v-510h-116v510h116z"/>
<glyph glyph-name="j" horiz-adv-x="266" unicode="j" d="M196 689v-104h-120v104h120zM194 510v-502q0 -113 -53 -154q-37 -28 -104 -28q-46 0 -88 7v89q26 -5 56 -5q43 0 60 26q13 16 13 66v501h116z"/>
<glyph glyph-name="k" horiz-adv-x="537" unicode="k" d="M186 686v-416l210 240h115l-157 -177l176 -333h-124l-131 254l-89 -102v-152h-116v686h116z"/>
<glyph glyph-name="l" horiz-adv-x="256" unicode="l" d="M186 686v-686h-116v686h116z"/>
<glyph glyph-name="m" horiz-adv-x="858" unicode="m" d="M186 0h-116v510h108v-90h1q22 47 62.5 73.5t89.5 26.5q65 0 105 -42q26 -27 36 -65q23 50 66 78.5t96 28.5q73 0 115 -45q39 -42 39 -124v-351h-116v322q0 60 -16 84q-19 28 -62 28q-42 0 -73 -35q-34 -39 -34 -102v-297h-116v322q0 58 -19 84q-20 28 -59 28 q-44 0 -72 -30q-35 -36 -35 -107v-297z"/>
<glyph glyph-name="n" horiz-adv-x="572" unicode="n" d="M186 0h-116v510h108v-87h2q51 97 161 97q75 0 117 -42q44 -42 44 -132v-346h-116v321q0 64 -20 88q-22 25 -62 25q-44 0 -76 -30q-42 -40 -42 -120v-284z"/>
<glyph glyph-name="o" horiz-adv-x="562" unicode="o" d="M163 255q0 -101 38 -144q31 -37 80 -37t80 37q38 43 38 144t-38 144q-31 37 -80 37t-80 -37q-38 -43 -38 -144zM37 255q0 129 79 203q66 62 165 62t165 -62q79 -74 79 -203t-79 -203q-66 -62 -165 -62t-165 62q-79 74 -79 203z"/>
<glyph glyph-name="p" horiz-adv-x="569" unicode="p" d="M186 312v-109q0 -55 28 -91q31 -38 80 -38q54 0 85 55q27 47 27 128q0 84 -27 129q-30 50 -85 50q-51 0 -82 -39q-26 -33 -26 -85zM186 -164h-116v674h108v-88l2 1q20 45 63 71t89 26q86 0 139 -63q61 -70 61 -198q0 -121 -55 -194q-57 -75 -149 -75q-51 0 -89 24 q-33 21 -50 58h-3v-236z"/>
<glyph glyph-name="q" horiz-adv-x="569" unicode="q" d="M383 216v92q0 42 -21 78q-31 50 -87 50q-53 0 -85 -51q-27 -44 -27 -127t24 -129q29 -55 85 -55q57 0 89 54q22 39 22 88zM499 -164h-116v240h-2q-13 -32 -43 -54q-42 -32 -102 -32q-91 0 -146 74q-53 73 -53 195q0 126 66 198q59 63 149 63q62 0 107 -33q29 -20 45 -53 l32 74h63v-672z"/>
<glyph glyph-name="r" horiz-adv-x="359" unicode="r" d="M70 510h104v-115h2q8 51 46 87q39 38 95 38q19 0 28 -1v-108q-7 1 -21 1q-72 0 -107 -49q-31 -42 -31 -118v-245h-116v510z"/>
<glyph glyph-name="s" horiz-adv-x="494" unicode="s" d="M447 391l-98 -19q-10 25 -32 42q-33 26 -82 26q-45 0 -67 -17q-23 -17 -23 -44q0 -45 75 -57l77 -12q93 -15 132 -53q40 -40 40 -105q0 -73 -60 -118q-58 -44 -165 -44q-98 0 -157 38q-60 38 -80 110l103 17q9 -37 34 -55q38 -30 101 -30q57 0 83 19q25 18 25 49t-23 44 t-62 20l-75 13q-83 14 -125 54q-39 37 -39 96q0 70 58 115q53 40 156 40q94 0 150 -47q38 -33 54 -82z"/>
<glyph glyph-name="t" horiz-adv-x="362" unicode="t" d="M210 657v-147h110v-86h-110v-260q0 -45 19 -64q17 -17 54 -17q29 0 51 4v-89q-41 -8 -82 -8q-84 0 -123 40q-35 36 -35 126v268h-84v86h84l11 138z"/>
<glyph glyph-name="u" horiz-adv-x="570" unicode="u" d="M500 510v-510h-108v95h-2q-20 -48 -57 -75q-41 -30 -97 -30q-71 0 -113 42q-53 52 -53 153v325h116v-312q0 -64 21 -89q22 -27 65 -27q52 0 84 45q28 39 28 102v281h116z"/>
<glyph glyph-name="v" horiz-adv-x="481" unicode="v" d="M474 510l-179 -510h-104l-184 510h126l122 -368h2l123 368h94z"/>
<glyph glyph-name="w" horiz-adv-x="706" unicode="w" d="M695 510l-155 -510h-90l-97 343l-1 1l-93 -344h-90l-158 510h121l93 -332l2 -6l91 338h92l94 -338h2l97 338h92z"/>
<glyph glyph-name="x" horiz-adv-x="486" unicode="x" d="M21 510h136l94 -159l98 159h106l-149 -231l177 -279h-136l-116 192l-122 -192h-106l174 265z"/>
<glyph glyph-name="y" horiz-adv-x="470" unicode="y" d="M470 510l-200 -553q-23 -66 -60 -98q-42 -37 -106 -37q-38 0 -77 7v89q38 -6 71 -6q66 0 88 80l4 15l-183 503h130l116 -353l121 353h96z"/>
<glyph glyph-name="z" horiz-adv-x="450" unicode="z" d="M422 510v-65l-259 -359h262v-86h-400v78l253 346h-232v86h376z"/>
<glyph glyph-name="braceleft" horiz-adv-x="360" unicode="{" d="M311 696v-70h-31q-32 0 -45 -13q-11 -12 -11 -39v-11v-160q0 -94 -90 -132v-8q90 -38 90 -132v-160v-11q0 -27 11 -39q13 -13 45 -13h31v-70h-61q-53 0 -83 22q-26 18 -33.5 42t-7.5 61v161v7q0 20 -1 32t-7.5 26t-18.5 24q-24 19 -53 19h-8v70h8q37 0 60 25q20 22 20 76 v7v161q0 37 7.5 61t33.5 42q30 22 83 22h61z"/>
<glyph glyph-name="bar" horiz-adv-x="280" unicode="|" d="M185 686v-686h-90v686h90z"/>
<glyph glyph-name="braceright" horiz-adv-x="360" unicode="}" d="M49 696h61q53 0 83 -22q26 -18 33.5 -42t7.5 -61v-161v-7q0 -54 20 -76q23 -25 60 -25h8v-70h-8q-29 0 -53 -19q-18 -14 -22.5 -32.5t-4.5 -49.5v-7v-161q0 -37 -7.5 -61t-33.5 -42q-30 -22 -83 -22h-61v70h31q32 0 45 13q11 12 11 39v11v160q0 94 90 132v8 q-90 38 -90 132v160v11q0 27 -11 39q-13 13 -45 13h-31v70z"/>
<glyph glyph-name="asciitilde" horiz-adv-x="714" unicode="~" d="M124 242l-60 34q32 60 66 91q44 39 106 39q39 0 132 -35l56 -21q31 -12 66 -12q30 0 50.5 12.5t49.5 49.5l60 -34q-29 -50 -55 -76q-48 -48 -120 -48q-45 0 -127 32l-59 23q-34 14 -66 14q-53 0 -99 -69z"/>
<glyph glyph-name="currency" horiz-adv-x="522" unicode="¤" d="M261 240q42 0 72 30t30 72t-30 72t-72 30t-72 -30t-30 -72t30 -72t72 -30zM449 342q0 -52 -29 -96l52 -53l-59 -60l-53 53q-40 -32 -99 -32t-99 32l-53 -53l-59 60l52 53q-29 44 -29 96t29 96l-52 53l59 60l53 -53q40 32 99 32t99 -32l53 53l59 -60l-52 -53 q29 -44 29 -96z"/>
<glyph glyph-name="brokenbar" horiz-adv-x="280" unicode="¦" d="M185 686v-275h-90v275h90zM185 275v-275h-90v275h90z"/>
<glyph glyph-name="section" horiz-adv-x="582" unicode="§" d="M315 349l-76 28q-27 -14 -44.5 -37t-17.5 -47q0 -14 6.5 -26.5t12.5 -20t22 -16t21.5 -11t26.5 -9.5l20 -7l72 -25q58 29 58 86q0 26 -19.5 44t-81.5 41zM508 566l-92 -17q-34 69 -122 69q-43 0 -68.5 -20t-25.5 -45q0 -9 2.5 -17t5.5 -14.5t10 -13t11 -11t14 -10 t14 -7.5t16.5 -6.5t15 -6t15 -5.5t13.5 -4l55 -18q72 -23 110.5 -57.5t38.5 -95.5q0 -76 -73 -139q40 -20 64.5 -56.5t24.5 -83.5q0 -71 -60.5 -129t-179.5 -58q-20 0 -39.5 2t-51 10.5t-57 23.5t-52 44t-42.5 69l108 17q39 -86 138 -86q58 0 91 26.5t33 60.5q0 22 -10 38 t-30 27t-33.5 16t-37.5 12l-62 18q-27 8 -39.5 12t-39 14.5t-40 21.5t-30 27.5t-23.5 39t-7 49.5q0 86 85 147q-71 43 -71 125q0 64 50 112.5t154 48.5q165 0 217 -130z"/>
<glyph glyph-name="copyright" horiz-adv-x="792" unicode="©" d="M477 278l83 -9q-5 -55 -45 -98q-47 -48 -119 -48q-81 0 -128 51q-54 58 -54 162q0 105 57 164q47 49 126 49q61 0 102 -32q10 -8 18 -16t13.5 -18t9.5 -17.5t8 -19t5.5 -16t4.5 -17t3 -14.5l-83 -9q-3 7 -6 17.5t-4.5 17t-5.5 15t-10 15.5q-22 28 -59 28q-36 0 -59 -34 q-25 -39 -25 -112q0 -67 23 -106q23 -40 67 -40q39 0 63 39q13 21 15 48zM100 336q0 -58 23 -115t64 -99q86 -88 209 -88t209 88q41 42 64 99t23 115t-23 115t-64 99q-86 88 -209 88t-209 -88q-41 -42 -64 -99t-23 -115zM36 336q0 151 106 255q107 105 254 105t254 -105 q106 -104 106 -255t-106 -255q-107 -105 -254 -105t-254 105q-106 104 -106 255z"/>
<glyph glyph-name="guillemotleft" horiz-adv-x="365" unicode="«" d="M266 257l53 -143h-54l-86 143l86 143h54zM126 257l53 -143h-54l-86 143l86 143h54z"/>
<glyph glyph-name="logicalnot" horiz-adv-x="644" unicode="¬" d="M585 418v-288h-93v195h-432v93h525z"/>
<glyph glyph-name="registered" horiz-adv-x="792" unicode="®" d="M315 362h92q41 0 59 16.5t18 39.5q0 28 -17 43q-17 17 -54 17h-98v-116zM226 543h193q76 0 114 -31q42 -33 42 -94q0 -41 -16.5 -63t-59.5 -45l75 -181h-92l-67 168h-100v-168h-89v414zM100 336q0 -58 23 -115t64 -99q86 -88 209 -88t209 88q41 42 64 99t23 115t-23 115 t-64 99q-86 88 -209 88t-209 -88q-41 -42 -64 -99t-23 -115zM36 336q0 151 106 255q107 105 254 105t254 -105q106 -104 106 -255t-106 -255q-107 -105 -254 -105t-254 105q-106 104 -106 255z"/>
<glyph glyph-name="degree" horiz-adv-x="439" unicode="°" d="M140 546q0 -33 23.5 -56.5t56.5 -23.5t56.5 23.5t23.5 56.5t-23.5 56.5t-56.5 23.5t-56.5 -23.5t-23.5 -56.5zM70 546q0 62 44 106t106 44t106 -44t44 -106t-44 -106t-106 -44t-106 44t-44 106z"/>
<glyph glyph-name="plusminus" horiz-adv-x="645" unicode="±" d="M64 0v93h516v-93h-516zM276 651h93v-212h212v-93h-212v-212h-93v212h-212v93h212v212z"/>
<glyph glyph-name="mu" horiz-adv-x="570" unicode="µ" d="M489 510v-510h-107v95l-2 1q-21 -47 -63 -72.5t-96 -25.5q-20 0 -44 8v-170h-116v674h116v-311q0 -116 81 -116q44 0 79.5 36.5t35.5 111.5v279h116z"/>
<glyph glyph-name="mu" horiz-adv-x="570" unicode="μ" d="M489 510v-510h-107v95l-2 1q-21 -47 -63 -72.5t-96 -25.5q-20 0 -44 8v-170h-116v674h116v-311q0 -116 81 -116q44 0 79.5 36.5t35.5 111.5v279h116z"/>
<glyph glyph-name="paragraph" horiz-adv-x="567" unicode="¶" d="M527 686v-70h-61v-795h-72v795h-79v-795h-72v406q-70 3 -123 44q-36 29 -59.5 76.5t-23.5 104.5q0 102 66 170q39 40 81.5 52t103.5 12h239z"/>
<glyph glyph-name="guillemotright" horiz-adv-x="365" unicode="»" d="M239 257l-53 143h54l86 -143l-86 -143h-54zM99 257l-53 143h54l86 -143l-86 -143h-54z"/>
<glyph glyph-name="afii10023" horiz-adv-x="576" unicode="Ё" d="M463 844v-108h-110v108h110zM255 844v-108h-110v108h110zM77 686h461v-100h-335v-182h267v-96h-267v-208h341v-100h-467v686z"/>
<glyph glyph-name="afii10051" horiz-adv-x="730" unicode="Ђ" d="M25 686h482v-100h-188v-195q75 22 153 22q20 0 38.5 -2t54 -13.5t61 -31.5t45 -61.5t19.5 -98.5q0 -103 -55.5 -159.5t-159.5 -56.5q-43 0 -99 13l18 95q26 -8 57 -8q113 0 113 110q0 16 -3 30.5t-13.5 35.5t-37.5 34t-67 13q-56 0 -124 -22v-291h-126v586h-168v100z"/>
<glyph glyph-name="afii10052" horiz-adv-x="514" unicode="Ѓ" d="M360 895l34 -76l-223 -85l-22 49zM77 686h427v-100h-301v-586h-126v686z"/>
<glyph glyph-name="afii10053" horiz-adv-x="638" unicode="Є" d="M594 489l-119 -22q-14 53 -54 91t-97 38q-43 0 -74 -20t-46 -52.5t-21.5 -62t-6.5 -58.5h222v-98h-222v-8q0 -33 7 -65.5t23 -66t49 -54.5t78 -21q52 0 91 34t53 86l121 -23q-18 -89 -88.5 -143t-175.5 -54q-61 0 -109.5 18t-79.5 49t-52.5 67.5t-32.5 79.5t-15.5 78 t-4.5 69q0 66 14.5 124.5t45.5 109.5t87.5 81t133.5 30q52 0 96 -14t72.5 -35.5t51 -50.5t34 -54.5t19.5 -52.5z"/>
<glyph glyph-name="afii10054" horiz-adv-x="603" unicode="Ѕ" d="M551 528l-110 -32q-9 40 -43 67q-42 33 -109 33q-62 0 -89.5 -27t-27.5 -61q0 -60 105 -84l93 -22q96 -22 136 -55q67 -56 67 -143q0 -47 -22 -89.5t-57 -69.5q-71 -55 -188 -55q-123 0 -201 58q-72 54 -95 140l117 22q19 -57 67 -90q46 -30 111 -30q74 0 105 29t31 64 q0 29 -23 56.5t-81 41.5l-101 24q-79 18 -124 55q-66 53 -66 135q0 100 79 156q63 45 172 45q111 0 179 -53q55 -43 75 -115z"/>
<glyph glyph-name="afii10055" horiz-adv-x="280" unicode="І" d="M203 686v-686h-126v686h126z"/>
<glyph glyph-name="afii10056" horiz-adv-x="320" unicode="Ї" d="M120 844v-108h-100v108h100zM300 844v-108h-100v108h100zM223 686v-686h-126v686h126z"/>
<glyph glyph-name="afii10057" horiz-adv-x="393" unicode="Ј" d="M316 686v-451q0 -122 -40 -175q-53 -70 -169 -70q-48 0 -107 10v100q43 -10 80 -10q55 0 82 29q28 30 28 100v6v461h126z"/>
<glyph glyph-name="afii10058" horiz-adv-x="1038" unicode="Љ" d="M594 311v-211h142q57 0 86 27q30 28 30 73q0 56 -30 83q-30 28 -93 28h-135zM594 686v-275h153q116 0 172 -44q69 -55 69 -158q0 -96 -55 -153q-33 -35 -72 -45.5t-93 -10.5h-300v586h-193q-2 -158 -12 -267q-21 -213 -93 -282q-44 -43 -109 -43q-25 0 -41 6v104 q10 -2 15 -2q21 0 36 7q59 28 80 187q16 133 16 349v41h427z"/>
<glyph glyph-name="afii10059" horiz-adv-x="1041" unicode="Њ" d="M597 311v-211h142q57 0 86 27q30 28 30 73q0 56 -30 83q-30 28 -93 28h-135zM597 686v-275h153q116 0 172 -44q69 -55 69 -158q0 -96 -55 -153q-33 -35 -72 -45.5t-93 -10.5h-300v309h-268v-309h-126v686h126v-277h268v277h126z"/>
<glyph glyph-name="afii10060" horiz-adv-x="739" unicode="Ћ" d="M25 686h482v-100h-188v-195q70 22 153 22q116 0 172 -63q45 -51 45 -155v-195h-126v181v7q0 63 -30 92q-35 33 -90 33q-61 0 -124 -22v-291h-126v586h-168v100z"/>
<glyph glyph-name="afii10061" horiz-adv-x="636" unicode="Ќ" d="M401 895l34 -76l-223 -85l-22 49zM203 409h70q42 0 65 16q30 20 45 68q8 26 15.5 59t15.5 53q17 44 52 66q32 21 82 21q17 0 40 -5v-90h-12q-18 0 -26.5 -2t-18 -11t-16.5 -29q-8 -24 -15 -53t-12.5 -47.5t-15.5 -34.5q-26 -44 -75 -53v-3q67 -8 102 -65q18 -31 33 -80 q2 -6 5.5 -18.5t9 -30.5t13.5 -41q4 -12 8 -19t16 -13.5t30 -6.5q1 0 3.5 0.5t3.5 0.5v-91q-23 -6 -53 -6q-70 0 -104 45q-22 28 -40 99q-26 99 -36 119q-14 27 -37.5 39.5t-72.5 12.5h-75v-309h-126v686h126v-277z"/>
<glyph glyph-name="afii10062" horiz-adv-x="582" unicode="Ў" d="M360 857h102q-6 -58 -48 -93q-45 -37 -128 -37t-128 37q-42 35 -48 93h102q1 -25 17 -41q18 -18 57 -18t57 18q16 16 17 41zM10 686h136l172 -366h1l145 366h112l-207 -500q-46 -109 -82 -145q-48 -48 -130 -48q-35 0 -66 7v100q33 -7 47 -7q47 0 73 22q28 22 41 68z"/>
<glyph glyph-name="afii10145" horiz-adv-x="610" unicode="Џ" d="M72 686h126v-586h260v586h126v-686h-198v-168h-116v168h-198v686z"/>
<glyph glyph-name="afii10017" horiz-adv-x="587" unicode="А" d="M369 274l-87 284l-88 -284h175zM364 686l220 -686h-134l-55 178h-226l-54 -178h-110l219 686h140z"/>
<glyph glyph-name="afii10018" horiz-adv-x="654" unicode="Б" d="M203 311v-211h149q57 0 86 27q30 28 30 73q0 56 -30 83q-30 28 -93 28h-142zM539 686v-100h-336v-175h160q116 0 172 -44q69 -55 69 -158q0 -96 -55 -153q-33 -35 -72 -45.5t-93 -10.5h-307v686h462z"/>
<glyph glyph-name="afii10019" horiz-adv-x="647" unicode="В" d="M203 308v-208h145q58 0 90 25q35 30 35 78q0 43 -29 72q-22 22 -45 27.5t-59 5.5h-137zM203 586v-182h126q69 0 100 27q30 26 30 68q0 45 -33 67q-29 20 -89 20h-134zM77 686h293q106 0 158 -39q60 -44 60 -130q0 -71 -44 -113q-29 -28 -74 -42v-2q46 -9 79 -36 q60 -49 60 -135q0 -88 -62 -141q-57 -48 -170 -48h-300v686z"/>
<glyph glyph-name="afii10020" horiz-adv-x="514" unicode="Г" d="M77 686h427v-100h-301v-586h-126v686z"/>
<glyph glyph-name="afii10021" horiz-adv-x="679" unicode="Д" d="M282 586l-2 -49q-10 -256 -102 -437h281v486h-177zM180 686h405v-586h70v-248h-116v148h-407v-148h-116v248h45q119 223 119 540v46z"/>
<glyph glyph-name="afii10022" horiz-adv-x="576" unicode="Е" d="M77 686h461v-100h-335v-182h267v-96h-267v-208h341v-100h-467v686z"/>
<glyph glyph-name="afii10024" horiz-adv-x="908" unicode="Ж" d="M514 686v-277h36q76 0 103 78q11 32 20.5 71t18.5 60q17 39 44 56q28 18 79 18q22 0 46 -6v-90h-11h-5q-13 0 -21 -2t-19 -12.5t-19 -31.5q-6 -16 -11.5 -41t-12.5 -45q-16 -47 -43 -70q-16 -15 -45 -25v-3q64 -8 102 -66q13 -21 25 -50q13 -34 22.5 -66.5t14 -49 t12.5 -25.5q15 -19 42 -19h6v-90q-17 -6 -42 -6q-41 0 -69 10.5t-50 41.5q-7 10 -12.5 21t-11.5 27.5t-9 26.5t-10.5 35.5t-10.5 37.5q-22 76 -48.5 95.5t-84.5 19.5h-36v-309h-120v309h-36q-58 0 -84.5 -19.5t-48.5 -95.5q-3 -12 -10.5 -37.5t-10.5 -35.5t-9 -26.5 t-11.5 -27.5t-12.5 -21q-22 -31 -50 -41.5t-69 -10.5q-25 0 -42 6v90h6q27 0 42 19q8 9 12.5 25.5t14 49t22.5 66.5q12 29 25 50q38 58 102 66v3q-29 10 -45 25q-25 22 -42 68q-3 8 -10 34q-2 6 -4.5 17t-5 20t-5.5 17q-8 21 -19 31.5t-19 12.5t-21 2h-5h-11v90q24 6 46 6 q51 0 79 -18q27 -17 44 -56q9 -21 18.5 -60t20.5 -71q27 -78 103 -78h36v277h120z"/>
<glyph glyph-name="afii10025" horiz-adv-x="645" unicode="З" d="M168 485l-106 25q9 49 40 87t68 60q67 39 156 39q108 0 171 -41q80 -51 80 -138q0 -59 -35 -101t-92 -53v-2q62 -7 100 -43q45 -44 45 -117q0 -47 -20 -89t-53 -68q-68 -54 -200 -54q-123 0 -189 51q-67 52 -87 145l114 24q13 -49 43 -78q42 -42 119 -42q66 0 104 35 q33 31 33 78q0 104 -136 104h-93v96h90q64 0 95 24q34 26 34 75q0 38 -27 63q-32 31 -92 31q-80 0 -125 -49q-16 -18 -37 -62z"/>
<glyph glyph-name="afii10026" horiz-adv-x="681" unicode="И" d="M77 686h126v-403q0 -40 -4 -75q7 24 26 54l253 376v48h126v-686h-126v405q0 44 4 81q-14 -34 -27 -54l-252 -375v-57h-126v686z"/>
<glyph glyph-name="afii10027" horiz-adv-x="681" unicode="Й" d="M165 857h102q1 -25 16.5 -39.5t29.5 -17.5t28 -3t28 3t29.5 17.5t16.5 39.5h102q-5 -58 -49 -94t-127 -36t-127 36t-49 94zM77 686h126v-403q0 -40 -4 -75q7 24 26 54l253 376v48h126v-686h-126v405q0 44 4 81q-14 -34 -27 -54l-252 -375v-57h-126v686z"/>
<glyph glyph-name="afii10028" horiz-adv-x="636" unicode="К" d="M203 409h70q42 0 65 16q30 20 45 68q8 26 15.5 59t15.5 53q17 44 52 66q32 21 82 21q17 0 40 -5v-90h-12q-18 0 -26.5 -2t-18 -11t-16.5 -29q-8 -24 -15 -53t-12.5 -47.5t-15.5 -34.5q-26 -44 -75 -53v-3q67 -8 102 -65q18 -31 33 -80q2 -6 5.5 -18.5t9 -30.5t13.5 -41 q4 -12 8 -19t16 -13.5t30 -6.5q1 0 3.5 0.5t3.5 0.5v-91q-23 -6 -53 -6q-70 0 -104 45q-22 28 -40 99q-26 99 -36 119q-14 27 -37.5 39.5t-72.5 12.5h-75v-309h-126v686h126v-277z"/>
<glyph glyph-name="afii10029" horiz-adv-x="676" unicode="Л" d="M172 686h427v-686h-126v586h-193q-1 -142 -12 -247q-10 -110 -29.5 -184.5t-63.5 -117.5t-109 -43q-25 0 -41 6v104q10 -2 15 -2q21 0 36 7q27 13 45 50t23.5 66.5t11.5 80.5q16 134 16 339v41z"/>
<glyph glyph-name="afii10030" horiz-adv-x="851" unicode="М" d="M254 686l172 -488h2l170 488h176v-686h-124v563h-2l-189 -563h-84l-195 563h-1v-563h-102v686h177z"/>
<glyph glyph-name="afii10031" horiz-adv-x="674" unicode="Н" d="M597 686v-686h-126v309h-268v-309h-126v686h126v-277h268v277h126z"/>
<glyph glyph-name="afii10032" horiz-adv-x="676" unicode="О" d="M338 596q-74 0 -116 -63q-46 -69 -46 -190t46 -190q42 -63 116 -63t116 63q46 69 46 190t-46 190q-42 63 -116 63zM338 696q122 0 200 -74q98 -94 98 -279t-98 -279q-78 -74 -200 -74t-200 74q-98 94 -98 279t98 279q78 74 200 74z"/>
<glyph glyph-name="afii10033" horiz-adv-x="668" unicode="П" d="M77 686h514v-686h-126v586h-262v-586h-126v686z"/>
<glyph glyph-name="afii10034" horiz-adv-x="605" unicode="Р" d="M203 368h117h5q64 0 95 29q34 31 34 83q0 50 -33 78q-32 28 -96 28h-122v-218zM77 686h238q122 0 182 -41q83 -55 83 -164q0 -39 -13 -75t-39 -68t-73 -51t-108 -19h-144v-268h-126v686z"/>
<glyph glyph-name="afii10035" horiz-adv-x="645" unicode="С" d="M605 460l-119 -14q-4 48 -30 86q-42 64 -115 64q-87 0 -129 -85q-30 -59 -30 -163q0 -107 27 -165q44 -93 133 -93q61 0 103 49q37 44 44 103l116 -15q-13 -98 -79 -164q-72 -73 -178 -73q-162 0 -245 132q-57 90 -57 226q0 170 89 263q79 85 209 85q113 0 183 -68 t78 -168z"/>
<glyph glyph-name="afii10036" horiz-adv-x="482" unicode="Т" d="M0 686h482v-100h-178v-586h-126v586h-178v100z"/>
<glyph glyph-name="afii10037" horiz-adv-x="581" unicode="У" d="M10 686h136l172 -366h1l145 366h112l-207 -500q-46 -109 -82 -145q-48 -48 -130 -48q-35 0 -66 7v100q33 -7 47 -7q47 0 73 22q28 22 41 68z"/>
<glyph glyph-name="afii10038" horiz-adv-x="816" unicode="Ф" d="M467 522v-340h8q58 0 98 20q77 41 77 147q0 90 -53 135q-46 38 -118 38h-12zM349 182v340h-12q-72 0 -118 -38q-53 -45 -53 -135q0 -106 77 -147q40 -20 98 -20h8zM345 706h126v-90h9q120 0 193 -52q47 -33 75 -89t28 -124q0 -59 -22 -111t-60 -85q-75 -67 -212 -67h-11 v-95h-126v95h-11q-137 0 -212 67q-38 33 -60 85t-22 111q0 68 28 124t75 89q73 52 193 52h9v90z"/>
<glyph glyph-name="afii10039" horiz-adv-x="600" unicode="Х" d="M28 686h146l135 -231l135 231h122l-195 -318l223 -368h-146l-157 267l-163 -267h-122l223 357z"/>
<glyph glyph-name="afii10040" horiz-adv-x="695" unicode="Ц" d="M77 686h126v-586h264v586h126v-586h72v-246h-116v146h-472v686z"/>
<glyph glyph-name="afii10041" horiz-adv-x="632" unicode="Ч" d="M55 686h126v-196v-6q0 -53 23 -76q26 -25 106 -25q46 0 119 11v292h126v-686h-126v294q-75 -11 -142 -11q-59 0 -98.5 7t-70.5 29q-63 47 -63 157v210z"/>
<glyph glyph-name="afii10042" horiz-adv-x="936" unicode="Ш" d="M77 686h126v-586h202v586h126v-586h202v586h126v-686h-782v686z"/>
<glyph glyph-name="afii10043" horiz-adv-x="961" unicode="Щ" d="M77 686h126v-586h202v586h126v-586h202v586h126v-586h72v-246h-116v146h-738v686z"/>
<glyph glyph-name="afii10044" horiz-adv-x="745" unicode="Ъ" d="M306 311v-211h142q57 0 86 27q30 28 30 73q0 56 -30 83q-30 28 -93 28h-135zM306 686v-275h153q116 0 172 -44q69 -55 69 -158q0 -96 -55 -153q-33 -35 -72 -45.5t-93 -10.5h-300v586h-190v100h316z"/>
<glyph glyph-name="afii10045" horiz-adv-x="869" unicode="Ы" d="M792 686v-686h-126v686h126zM198 311v-211h137q57 0 86 27q30 28 30 73q0 56 -30 83q-30 28 -93 28h-130zM72 686h126v-275h148q116 0 172 -44q69 -55 69 -158q0 -96 -55 -153q-33 -35 -72 -45.5t-93 -10.5h-295v686z"/>
<glyph glyph-name="afii10046" horiz-adv-x="642" unicode="Ь" d="M198 311v-211h142q57 0 86 27q30 28 30 73q0 56 -30 83q-30 28 -93 28h-135zM72 686h126v-275h153q116 0 172 -44q69 -55 69 -158q0 -96 -55 -153q-33 -35 -72 -45.5t-93 -10.5h-300v686z"/>
<glyph glyph-name="afii10047" horiz-adv-x="638" unicode="Э" d="M240 402h222q0 82 -36 135q-39 59 -112 59q-63 0 -108 -49q-30 -32 -43 -80l-119 22q26 87 82 139q73 68 191 68q130 0 204 -82q77 -86 77 -263q0 -67 -17 -138t-51 -118q-78 -105 -226 -105q-113 0 -184 61q-63 53 -80 136l121 23q10 -37 37 -69q44 -51 107 -51 q89 0 131 82q26 52 26 126v8h-222v96z"/>
<glyph glyph-name="afii10048" horiz-adv-x="943" unicode="Ю" d="M605 90q73 0 116 64q46 66 46 189t-46 189q-43 64 -116 64t-116 -64q-46 -66 -46 -189q0 -112 42 -182.5t120 -70.5zM203 409h108q6 58 31.5 117t64.5 96q37 35 90.5 54.5t107.5 19.5q53 0 107 -19.5t91 -54.5q48 -46 74 -123.5t26 -155.5t-26 -155.5t-74 -123.5 q-37 -35 -91 -54.5t-107 -19.5t-105.5 19.5t-89.5 54.5q-41 41 -68 110.5t-31 134.5h-108v-309h-126v686h126v-277z"/>
<glyph glyph-name="afii10049" horiz-adv-x="646" unicode="Я" d="M443 586h-138q-62 0 -92 -21q-37 -26 -37 -81q0 -50 32 -76q29 -25 93 -25h142v203zM569 686v-686h-126v283h-117l-154 -283h-142l175 295q-8 1 -22 4.5t-38.5 15.5t-42.5 29q-52 48 -52 138q0 99 70 155q60 49 181 49h268z"/>
<glyph glyph-name="afii10065" horiz-adv-x="569" unicode="а" d="M387 248l-53 -1q-64 0 -103 -14q-68 -23 -68 -88q0 -29 21 -47q25 -24 70 -24q63 0 100 47q33 41 33 101v26zM162 361l-109 14q19 82 90 118q50 27 146 27q102 0 152 -36q38 -28 50 -67t12 -92v-216q0 -41 11 -109h-116q-9 46 -11 87q-51 -97 -170 -97q-92 0 -136 46.5 t-44 107.5q0 94 89 138q68 35 204 38l57 1v17q0 49 -18 72q-23 30 -87 30q-49 0 -76 -15q-36 -21 -44 -64z"/>
<glyph glyph-name="afii10066" horiz-adv-x="578" unicode="б" d="M289 406q-49 0 -80 -35q-39 -42 -39 -127q0 -90 38 -133q32 -37 84 -37q55 0 86 36q37 45 37 136q0 88 -38 128q-30 32 -88 32zM511 700v-96q-46 -22 -114 -34q-21 -4 -50 -8t-49 -7.5t-35 -7.5q-64 -17 -96 -60q-33 -45 -40 -104h2q54 103 191 103q86 0 141 -45 q80 -67 80 -192q0 -116 -64 -187q-64 -72 -184 -72q-111 0 -176 73q-73 81 -73 234q0 196 87 283q47 47 119 66q15 4 144 26q66 11 117 28z"/>
<glyph glyph-name="afii10067" horiz-adv-x="576" unicode="в" d="M186 226v-152h124q46 0 68 21q22 20 22 56t-28 57q-24 18 -66 18h-120zM186 436v-136h106q45 0 66 21q20 20 20 50q0 32 -22 50q-19 15 -53 15h-6h-111zM70 510h255q83 0 122 -25q51 -33 51 -98q0 -50 -32 -82q-27 -27 -67 -33v-2q58 -5 92 -38q35 -33 35 -88 q0 -73 -53 -113q-42 -31 -131 -31h-272v510z"/>
<glyph glyph-name="afii10068" horiz-adv-x="425" unicode="г" d="M70 510h345v-86h-229v-424h-116v510z"/>
<glyph glyph-name="afii10069" horiz-adv-x="565" unicode="д" d="M230 424l-1 -39q-3 -91 -20 -175q-13 -67 -42 -124h189v338h-126zM140 510h332v-424h55v-222h-106v136h-295v-136h-106v222h41q48 70 66 186q13 85 13 197v41z"/>
<glyph glyph-name="afii10070" horiz-adv-x="562" unicode="е" d="M166 309h233q0 52 -22 84q-32 47 -90 47q-55 0 -91 -43q-30 -37 -30 -88zM406 162l111 -14q-22 -72 -84 -116q-62 -42 -147 -42q-51 0 -100 19.5t-81 52.5q-68 70 -68 191q0 137 90 212q65 55 155 55q127 0 192 -91q51 -70 51 -173v-23h-362q0 -54 17 -89q34 -70 110 -70 q53 0 89 37q22 23 27 51z"/>
<glyph glyph-name="afii10072" horiz-adv-x="746" unicode="ж" d="M427 510v-202h31q18 0 29 2t25.5 15.5t23.5 40.5q5 14 9 29t7 28t4 17q10 36 33 55t72 19q22 0 42 -4v-78l-18 1h-3q-17 0 -26 -15q-4 -7 -12 -35l-11 -39q-12 -40 -35 -57q-15 -12 -37 -13v-2q47 -7 73 -47q16 -26 36 -90q10 -32 20 -42.5t28 -10.5h14v-82 q-24 -4 -50 -4q-45 0 -69 15q-30 19 -53 85q-27 82 -27 83q-8 20 -21 30t-23 11.5t-27 1.5h-35v-222h-108v222h-35q-17 0 -27 -1.5t-23 -11.5t-21 -30q0 -1 -27 -83q-23 -66 -53 -85q-24 -15 -69 -15q-26 0 -50 4v82h14q18 0 28 10.5t20 42.5q20 64 36 90q26 40 73 47v2 q-22 1 -37 13q-23 17 -35 57l-11 39q-8 28 -12 35q-9 15 -26 15h-3l-18 -1v78q20 4 42 4q49 0 72 -19t33 -55q1 -4 4 -17t7 -28t9 -29q9 -27 23.5 -40.5t25.5 -15.5t29 -2h31v202h108z"/>
<glyph glyph-name="afii10073" horiz-adv-x="535" unicode="з" d="M140 350l-101 22q18 74 82 113q54 35 144 35q85 0 139 -30q70 -39 70 -108q0 -37 -23 -71t-81 -41v-2q54 -7 83 -38q32 -34 32 -85q0 -37 -19 -69t-49 -52q-52 -34 -156 -34q-113 0 -169 45q-51 40 -62 108l105 18q9 -35 25 -54q29 -33 93 -33q50 0 76 18q30 21 30 58 q0 35 -22 53q-27 22 -83 22h-53v78h53q41 0 65 12q33 17 33 58q0 26 -21 43q-24 20 -73 20q-54 0 -85 -27q-27 -22 -33 -59z"/>
<glyph glyph-name="afii10074" horiz-adv-x="568" unicode="и" d="M70 510h116v-269q0 -9 -3 -61q19 36 37 60l162 229v41h116v-510h-116v271q0 26 4 62q-8 -20 -37 -59l-163 -229v-45h-116v510z"/>
<glyph glyph-name="afii10075" horiz-adv-x="568" unicode="й" d="M131 690h94q2 -25 13 -39q14 -20 46 -20t46 20q11 14 13 39h94q-1 -56 -46 -91q-43 -32 -107 -32t-107 32q-45 35 -46 91zM70 510h116v-269q0 -9 -3 -61q19 36 37 60l162 229v41h116v-510h-116v271q0 26 4 62q-8 -20 -37 -59l-163 -229v-45h-116v510z"/>
<glyph glyph-name="afii10076" horiz-adv-x="536" unicode="к" d="M70 510h116v-202h54q37 0 57 11t32 39q6 13 13.5 40t9.5 34l5 15q12 35 33 50q22 17 62 17q24 0 48 -4v-76q-4 1 -13 1q-20 0 -32 -13q-11 -14 -21 -54q-12 -46 -28 -65q-24 -28 -62 -30v-2q48 -7 74 -49q12 -19 29 -66q22 -57 27 -62q12 -12 35 -12q9 0 13 1v-81 q-30 -6 -53 -6q-54 0 -83 29q-22 22 -42 87q-19 63 -30 80q-9 14 -21 21t-21 8t-27 1h-59v-222h-116v510z"/>
<glyph glyph-name="afii10077" horiz-adv-x="541" unicode="л" d="M129 510h342v-510h-116v424h-132q-2 -37 -4 -79.5t-3 -64.5q-3 -48 -5 -73t-14.5 -75t-32.5 -78q-29 -39 -78 -52q-20 -6 -41 -6q-17 0 -30 4v88h10q26 2 48 19q18 15 29 46t13.5 52t5.5 63q5 82 7 188z"/>
<glyph glyph-name="afii10078" horiz-adv-x="706" unicode="м" d="M70 510h154l133 -349l127 349h152v-510h-108v342q0 7 3 73q-20 -48 -30 -77l-121 -338h-64l-129 338q-3 9 -9 25t-19 52q1 -23 2 -43t1 -28v-344h-92v510z"/>
<glyph glyph-name="afii10079" horiz-adv-x="566" unicode="н" d="M70 510h116v-201h194v201h116v-510h-116v223h-194v-223h-116v510z"/>
<glyph glyph-name="afii10080" horiz-adv-x="562" unicode="о" d="M163 255q0 -101 38 -144q31 -37 80 -37t80 37q38 43 38 144t-38 144q-31 37 -80 37t-80 -37q-38 -43 -38 -144zM37 255q0 129 79 203q66 62 165 62t165 -62q79 -74 79 -203t-79 -203q-66 -62 -165 -62t-165 62q-79 74 -79 203z"/>
<glyph glyph-name="afii10081" horiz-adv-x="566" unicode="п" d="M70 510h426v-510h-116v424h-194v-424h-116v510z"/>
<glyph glyph-name="afii10082" horiz-adv-x="569" unicode="р" d="M186 312v-109q0 -55 28 -91q31 -38 80 -38q54 0 85 55q27 47 27 128q0 84 -27 129q-30 50 -85 50q-51 0 -82 -39q-26 -33 -26 -85zM186 -164h-116v674h108v-88l2 1q20 45 63 71t89 26q86 0 139 -63q61 -70 61 -198q0 -121 -55 -194q-57 -75 -149 -75q-51 0 -89 24 q-33 21 -50 58h-3v-236z"/>
<glyph glyph-name="afii10083" horiz-adv-x="503" unicode="с" d="M478 336l-106 -13q-3 43 -25 75q-25 38 -76 38q-53 0 -81 -47q-27 -44 -27 -134q0 -92 27 -135q30 -46 81 -46q46 0 74 38q24 33 27 77l106 -13q-11 -84 -64 -133q-59 -53 -147 -53q-93 0 -154 57q-76 72 -76 207q0 116 59 186q30 35 75.5 57.5t98.5 22.5q94 0 148 -56 q47 -47 60 -128z"/>
<glyph glyph-name="afii10084" horiz-adv-x="434" unicode="т" d="M6 510h422v-86h-153v-424h-116v424h-153v86z"/>
<glyph glyph-name="afii10085" horiz-adv-x="470" unicode="у" d="M470 510l-200 -553q-23 -66 -60 -98q-42 -37 -106 -37q-38 0 -77 7v89q38 -6 71 -6q66 0 88 80l4 15l-183 503h130l116 -353l121 353h96z"/>
<glyph glyph-name="afii10086" horiz-adv-x="732" unicode="ф" d="M418 428v-346h11q77 0 117 61q29 44 29 112q0 63 -26 109q-37 64 -120 64h-11zM314 82v346h-11q-83 0 -120 -63q-26 -45 -26 -110q0 -69 29 -112q40 -61 117 -61h11zM308 686h116v-176h12q100 0 172 -56q87 -68 87 -201q0 -122 -76 -191q-68 -62 -187 -62h-8v-165h-116 v165h-8q-119 0 -187 62q-76 69 -76 191q0 133 87 201q72 56 172 56h12v176z"/>
<glyph glyph-name="afii10087" horiz-adv-x="486" unicode="х" d="M21 510h136l94 -159l98 159h106l-149 -231l177 -279h-136l-116 192l-122 -192h-106l174 265z"/>
<glyph glyph-name="afii10088" horiz-adv-x="590" unicode="ц" d="M70 510h116v-424h203v424h116v-424h60v-222h-106v136h-389v510z"/>
<glyph glyph-name="afii10089" horiz-adv-x="526" unicode="ч" d="M50 510h116v-155q0 -34 11 -52q15 -22 76 -22q9 0 87 6v223h116v-510h-116v207q-62 -8 -109 -8q-102 0 -138 32q-43 37 -43 130v149z"/>
<glyph glyph-name="afii10090" horiz-adv-x="792" unicode="ш" d="M70 510h116v-424h152v424h116v-424h152v424h116v-510h-652v510z"/>
<glyph glyph-name="afii10091" horiz-adv-x="807" unicode="щ" d="M70 510h116v-424h152v424h116v-424h152v424h116v-424h60v-222h-106v136h-606v510z"/>
<glyph glyph-name="afii10092" horiz-adv-x="592" unicode="ъ" d="M253 244v-160h91q45 0 66 18q26 24 26 62q0 45 -31 65q-23 15 -61 15h-91zM253 510v-182h128q93 0 139 -46q42 -41 42 -117q0 -85 -53 -129q-48 -36 -118 -36h-254v424h-152v86h268z"/>
<glyph glyph-name="afii10093" horiz-adv-x="726" unicode="ы" d="M540 510h116v-510h-116v510zM186 244v-160h83q45 0 66 18q26 24 26 62q0 45 -31 65q-23 15 -61 15h-83zM186 510v-182h120q93 0 139 -46q42 -41 42 -117q0 -85 -53 -129q-48 -36 -118 -36h-246v510h116z"/>
<glyph glyph-name="afii10094" horiz-adv-x="525" unicode="ь" d="M186 244v-160h91q45 0 66 18q26 24 26 62q0 45 -31 65q-23 15 -61 15h-91zM186 510v-182h128q93 0 139 -46q42 -41 42 -117q0 -85 -53 -129q-48 -36 -118 -36h-254v510h116z"/>
<glyph glyph-name="afii10095" horiz-adv-x="530" unicode="э" d="M36 367q20 68 75 108q61 45 155 45q103 0 163 -65q64 -71 64 -189q0 -120 -57 -196q-61 -80 -179 -80q-83 0 -138 33q-68 42 -89 121l110 16q6 -32 35 -57q33 -29 80 -29q57 0 87 48q25 40 25 104h-168v78h168q-2 54 -22 86q-28 46 -87 46q-54 0 -86 -34q-20 -22 -30 -51 z"/>
<glyph glyph-name="afii10096" horiz-adv-x="780" unicode="ю" d="M381 255q0 -101 38 -144q31 -37 80 -37t80 37q38 43 38 144t-38 144q-31 37 -80 37t-80 -37q-38 -43 -38 -144zM186 308h76q14 92 75 150q64 62 162 62q99 0 165 -62q79 -74 79 -203t-79 -203q-66 -62 -165 -62q-98 0 -162 62q-66 66 -75 170h-76v-222h-116v510h116v-202 z"/>
<glyph glyph-name="afii10097" horiz-adv-x="534" unicode="я" d="M348 426h-76q-68 0 -91 -27q-18 -21 -18 -52q0 -32 23 -52q24 -21 75 -21h87v152zM464 510v-510h-116v190h-90l-98 -190h-130l117 206q-43 15 -68 43q-38 40 -38 105q0 60 32 99q28 34 68.5 45.5t104.5 11.5h218z"/>
<glyph glyph-name="afii10071" horiz-adv-x="562" unicode="ё" d="M436 702v-108h-110v108h110zM236 702v-108h-110v108h110zM166 309h233q0 52 -22 84q-32 47 -90 47q-55 0 -91 -43q-30 -37 -30 -88zM406 162l111 -14q-22 -72 -84 -116q-62 -42 -147 -42q-51 0 -100 19.5t-81 52.5q-68 70 -68 191q0 137 90 212q65 55 155 55 q127 0 192 -91q51 -70 51 -173v-23h-362q0 -54 17 -89q34 -70 110 -70q53 0 89 37q22 23 27 51z"/>
<glyph glyph-name="afii10099" horiz-adv-x="581" unicode="ђ" d="M193 686v-68h175v-72h-175v-146q54 93 159 93q75 0 117 -44q42 -45 42 -139v-295q0 -94 -32 -142t-125 -48q-40 0 -88 10v86q33 -8 62 -8q18 0 31.5 5.5t20 13t10 20.5t4.5 23t1 26v11v293q0 47 -13 69q-20 33 -68 33q-55 0 -89 -44q-32 -40 -32 -114v-249h-116v546h-77 v72h77v68h116z"/>
<glyph glyph-name="afii10100" horiz-adv-x="425" unicode="ѓ" d="M354 743l34 -76l-223 -86l-22 50zM70 510h345v-86h-229v-424h-116v510z"/>
<glyph glyph-name="afii10101" horiz-adv-x="533" unicode="є" d="M487 367l-106 -16q-12 36 -41 60.5t-75 24.5q-31 0 -53 -13t-33.5 -34t-17 -42.5t-5.5 -44.5h168v-74h-168q0 -10 1 -20t3.5 -30t10 -36.5t19 -32.5t32 -25.5t46.5 -9.5q40 0 73.5 24t41.5 62l110 -16q-7 -28 -21 -52t-39.5 -48.5t-68.5 -39t-98 -14.5q-56 0 -99 19 t-68.5 47.5t-41.5 67t-21.5 73t-5.5 69.5q0 110 57 182t170 72q85 0 147.5 -40.5t82.5 -112.5z"/>
<glyph glyph-name="afii10102" horiz-adv-x="494" unicode="ѕ" d="M447 391l-98 -19q-10 25 -32 42q-33 26 -82 26q-45 0 -67 -17q-23 -17 -23 -44q0 -45 75 -57l77 -12q93 -15 132 -53q40 -40 40 -105q0 -73 -60 -118q-58 -44 -165 -44q-98 0 -157 38q-60 38 -80 110l103 17q9 -37 34 -55q38 -30 101 -30q57 0 83 19q25 18 25 49t-23 44 t-62 20l-75 13q-83 14 -125 54q-39 37 -39 96q0 70 58 115q53 40 156 40q94 0 150 -47q38 -33 54 -82z"/>
<glyph glyph-name="afii10103" horiz-adv-x="260" unicode="і" d="M190 689v-104h-120v104h120zM188 510v-510h-116v510h116z"/>
<glyph glyph-name="afii10104" horiz-adv-x="282" unicode="ї" d="M110 693v-108h-95v108h95zM267 693v-108h-95v108h95zM199 510v-510h-116v510h116z"/>
<glyph glyph-name="afii10105" horiz-adv-x="266" unicode="ј" d="M196 689v-104h-120v104h120zM194 510v-502q0 -113 -53 -154q-37 -28 -104 -28q-46 0 -88 7v89q26 -5 56 -5q43 0 60 26q13 16 13 66v501h116z"/>
<glyph glyph-name="afii10106" horiz-adv-x="810" unicode="љ" d="M471 244v-160h91q45 0 66 18q26 24 26 62q0 45 -31 65q-23 15 -61 15h-91zM471 510v-182h128q93 0 139 -46q42 -41 42 -117q0 -85 -53 -129q-48 -36 -118 -36h-254v424h-132q-2 -37 -4 -79.5t-3 -64.5q-3 -48 -5 -73t-14.5 -75t-32.5 -78q-29 -39 -78 -52q-20 -6 -41 -6 q-17 0 -30 4v88h10q26 2 48 19q18 15 29 46t13.5 52t5.5 63q5 82 7 188l1 54h342z"/>
<glyph glyph-name="afii10107" horiz-adv-x="835" unicode="њ" d="M496 244v-160h91q45 0 66 18q26 24 26 62q0 45 -31 65q-23 15 -61 15h-91zM496 510v-182h128q93 0 139 -46q42 -41 42 -117q0 -85 -53 -129q-48 -36 -118 -36h-254v223h-194v-223h-116v510h116v-201h194v201h116z"/>
<glyph glyph-name="afii10108" horiz-adv-x="581" unicode="ћ" d="M193 686v-68h175v-72h-175v-146q54 93 159 93q75 0 117 -44q42 -45 42 -139v-310h-116v305q0 47 -13 69q-20 33 -68 33q-55 0 -89 -44q-32 -40 -32 -114v-249h-116v546h-77v72h77v68h116z"/>
<glyph glyph-name="afii10109" horiz-adv-x="536" unicode="ќ" d="M381 743l34 -76l-223 -86l-22 50zM70 510h116v-202h54q37 0 57 11t32 39q6 13 13.5 40t9.5 34l5 15q12 35 33 50q22 17 62 17q24 0 48 -4v-76q-4 1 -13 1q-20 0 -32 -13q-11 -14 -21 -54q-12 -46 -28 -65q-24 -28 -62 -30v-2q48 -7 74 -49q12 -19 29 -66q22 -57 27 -62 q12 -12 35 -12q9 0 13 1v-81q-30 -6 -53 -6q-54 0 -83 29q-22 22 -42 87q-19 63 -30 80q-9 14 -21 21t-21 8t-27 1h-59v-222h-116v510z"/>
<glyph glyph-name="afii10110" horiz-adv-x="470" unicode="ў" d="M88 690h94q1 -23 15.5 -41t43.5 -18t43.5 18t15.5 41h94q-1 -63 -48.5 -93t-104.5 -30t-104.5 30t-48.5 93zM470 510l-200 -553q-23 -66 -60 -98q-42 -37 -106 -37q-38 0 -77 7v89q38 -6 71 -6q66 0 88 80l4 15l-183 503h130l116 -353l121 353h96z"/>
<glyph glyph-name="afii10193" horiz-adv-x="558" unicode="џ" d="M62 508h116v-422h202v422h116v-508h-164v-138h-106v138h-164v508z"/>
<glyph glyph-name="afii10050" horiz-adv-x="516" unicode="Ґ" d="M77 686h322v95h107v-195h-303v-586h-126v686z"/>
<glyph glyph-name="afii10098" horiz-adv-x="425" unicode="ґ" d="M70 510h263v70h82v-156h-229v-424h-116v510z"/>
<glyph glyph-name="endash" horiz-adv-x="640" unicode="–" d="M570 310v-94h-500v94h500z"/>
<glyph glyph-name="emdash" horiz-adv-x="1040" unicode="—" d="M970 310v-94h-900v94h900z"/>
<glyph glyph-name="quoteleft" horiz-adv-x="266" unicode="‘" d="M67 442v107l82 137h50l-61 -125h51v-119h-122z"/>
<glyph glyph-name="quotesinglbase" horiz-adv-x="273" unicode="‚" d="M199 119v-107l-82 -137h-50l61 125h-51v119h122z"/>
<glyph glyph-name="quotedblleft" horiz-adv-x="442" unicode="“" d="M236 442v107l82 137h50l-61 -125h51v-119h-122zM67 442v107l82 137h50l-61 -125h51v-119h-122z"/>
<glyph glyph-name="quotedblright" horiz-adv-x="442" unicode="”" d="M199 686v-107l-82 -137h-50l61 125h-51v119h122zM368 686v-107l-82 -137h-50l61 125h-51v119h122z"/>
<glyph glyph-name="dagger" horiz-adv-x="572" unicode="†" d="M351 686l-41 -208l212 38l-10 -56l10 -56l-212 29q5 -7 44 -49q-21 -86 -32.5 -242t-11.5 -260v-50h-48v50q0 104 -11.5 260t-32.5 242q39 42 44 49l-212 -29l10 56l-10 56l212 -38l-41 208l65 -12z"/>
<glyph glyph-name="daggerdbl" horiz-adv-x="594" unicode="‡" d="M357 686l-34 -183l210 39l-10 -57l10 -58l-210 33l22 -55l-22 -60l210 38l-10 -57l10 -57l-210 32q17 -24 43 -44q-36 -149 -44 -391l-1 -34h-48l-1 34q-8 242 -44 391q26 20 43 44l-210 -32l10 57l-10 57l210 -38l-22 60l22 55l-210 -33l10 58l-10 57l210 -39l-34 183 l60 -12z"/>
<glyph glyph-name="ellipsis" horiz-adv-x="1032" unicode="…" d="M958 136v-136h-138v136h138zM585 136v-136h-138v136h138zM212 136v-136h-138v136h138z"/>
<glyph glyph-name="perthousand" horiz-adv-x="1260" unicode="‰" d="M1040 310q-70 0 -70 -117t70 -117t70 117t-70 117zM1040 384q76 0 120 -52t44 -143t-44 -143t-120 -52t-120 52t-44 143t44 143t120 52zM637 310q-70 0 -70 -117t70 -117t70 117t-70 117zM637 384q76 0 120 -52t44 -143t-44 -143t-120 -52t-120 52t-44 143t44 143t120 52 zM220 619q-70 0 -70 -117t70 -117t70 117t-70 117zM220 693q76 0 120 -52t44 -143t-44 -143t-120 -52t-120 52t-44 143t44 143t120 52zM669 686l-416 -686h-80l416 686h80z"/>
<glyph glyph-name="guilsinglleft" horiz-adv-x="225" unicode="‹" d="M126 257l53 -143h-54l-86 143l86 143h54z"/>
<glyph glyph-name="guilsinglright" horiz-adv-x="225" unicode="›" d="M99 257l-53 143h54l86 -143l-86 -143h-54z"/>
<glyph glyph-name="Euro" d="M569 654v-113q-57 53 -165 53q-78 0 -123.5 -35t-57.5 -97h308l-33 -86h-289q-1 -7 -1 -28q0 -25 1 -33h265l-33 -86h-218q13 -65 59 -100.5t123 -35.5q102 0 164 52v-114q-21 -15 -67.5 -27.5t-109.5 -12.5q-116 0 -189.5 59t-95.5 179h-85l33 86h43q-1 8 -1 32 q0 21 1 29h-76l33 86h52q22 108 91.5 171.5t193.5 63.5q57 0 105 -13t72 -30z" unicode="€"/>
<glyph glyph-name="trademark" horiz-adv-x="857" unicode="™" d="M815 287h-88v313l-106 -313h-49l-107 313v-313h-73v399h128l84 -239l82 239h129v-399zM245 287h-92v331h-112v68h316v-68h-112v-331z"/>
</font>
</defs>
</svg>
